<?xml version="1.0" encoding="utf-8"?>
<!--Designed by Vexels.com - 2017 All Rights Reserved - https://vexels.com/terms-and-conditions/-->
<svg version="1.1" id="Layer_1" xmlns="http://www.w3.org/2000/svg" xmlns:xlink="http://www.w3.org/1999/xlink" x="0px" y="0px"
	 viewBox="0 0 1200 1200" enable-background="new 0 0 1200 1200" xml:space="preserve">
<g>
	<g>
		<g>
			<path opacity="0.6" fill="#CACACF" d="M449.693,293.087c0,0,67.552-125.997,66.978-122.084
				c-0.559,3.919,61.619,107.481,61.619,107.481S477.629,302.471,449.693,293.087z"/>
			<polygon fill="#CACACF" points="449.159,285.94 476.178,143.626 1082.323,63.178 515.296,158.853 			"/>
			<path opacity="0.6" fill="#CACACF" d="M600.574,242.097c-6.684-1.35,27.624,99.674,81.788,69.265
				c54.173-30.403,278.108-175.83,304.925-189.153C1014.091,108.88,669.377,255.913,600.574,242.097z"/>
		</g>
		<g>
			<path fill="#475370" d="M501.097,169.265c0.231,8.895,9.439,18.859,13.993,25.785c15.156,23.045,31.261,45.47,47.525,67.73
				c23.287,31.89,53.208,86.809,90.422,104.111c9.902,4.599,18.551-10.074,8.604-14.693c-32.213-14.98-59.493-64.51-79.597-91.59
				c-14.643-19.71-28.832-39.758-42.725-59.997c-4.487-6.554-21.085-27.568-21.181-31.346
				C517.855,158.304,500.83,158.279,501.097,169.265L501.097,169.265z"/>
			<path fill="#475370" d="M662.037,364.05c62.687-36.61,128.219-65.74,185.436-111.305
				c43.909-34.942,86.331-71.592,132.315-103.829c35.758-25.054,76.76-39.487,111.713-65.986c8.618-6.538,0.161-21.343-8.609-14.698
				c-57.559,43.646-123.782,72.322-180.806,118.225c-80.186,64.526-160.537,111.436-248.632,162.9
				C643.969,354.882,652.542,369.605,662.037,364.05L662.037,364.05z"/>
			<path fill="#475370" d="M513.131,168.917c98.158-26.354,194.075-35.416,294.399-49.857
				c97.08-13.952,199.585-38.781,297.567-44.014c10.92-0.579,10.975-17.609,0-17.026c-76.851,4.101-156.529,23.156-232.971,34.479
				c-123.741,18.34-242.557,27.518-363.534,59.997C498.004,155.347,502.502,171.774,513.131,168.917L513.131,168.917z"/>
			<path fill="#475370" d="M441.155,127.089c216.173-20.491,434.274-63.981,652.331-53.731c10.985,0.524,10.926-16.516,0-17.02
				c-218.056-10.265-436.158,33.225-652.331,53.726C430.32,111.087,430.215,128.127,441.155,127.089L441.155,127.089z"/>
			<path fill="#475370" d="M302.74,101.164c255.956-19.816,508.179-41.839,765.223-31.503c10.986,0.449,10.94-16.592,0-17.024
				C810.919,42.31,558.696,64.312,302.74,84.138C291.865,84.974,291.779,102.015,302.74,101.164L302.74,101.164z"/>
			<path fill="#475370" d="M311.268,108.246c48.075,6.563,96.611,8.633,144.691,15.191c10.734,1.466,15.368-14.94,4.528-16.416
				c-48.079-6.568-96.616-8.639-144.695-15.196C305.057,90.359,300.423,106.764,311.268,108.246L311.268,108.246z"/>
			<path fill="#475370" d="M433.065,115.721c7.389,57.811,7.782,117.274,5.32,175.437c-0.464,10.981,16.566,10.936,17.026,0
				c2.468-58.163,2.075-117.626-5.325-175.437C448.721,104.976,431.67,104.845,433.065,115.721L433.065,115.721z"/>
			<path fill="#475370" d="M507.705,156.27c-14.905,46.074-40.378,88.064-67.739,127.725c-6.266,9.077,8.508,17.574,14.693,8.604
				c28.233-40.927,54.103-84.275,69.467-131.801C527.511,150.31,511.07,145.872,507.705,156.27L507.705,156.27z"/>
			<path fill="#475370" d="M441.896,301.866c46.714,8.06,91.519-7.898,137.15-15.67c10.805-1.843,6.206-18.25-4.538-16.426
				c-42.16,7.193-84.885,23.141-128.074,15.675C435.689,283.592,431.101,300.003,441.896,301.866L441.896,301.866z"/>
		</g>
	</g>
	<path fill="#475370" d="M461.767,334.13C282.059,400.136,193.782,553.666,147.94,732.313
		c-32.349,126.084-39.789,333.194,82.326,416.84c5.113,3.511,9.914-4.81,4.836-8.286c-127.308-87.218-104.243-303.37-71.38-431.439
		c42.437-165.358,136.57-305.792,300.594-366.036C470.073,341.277,467.59,331.998,461.767,334.13L461.767,334.13z"/>
	<path fill="#475370" d="M319.388,311.468C164.069,430.323,111.803,633.776,86.744,818.805c-0.816,6.044,8.437,8.658,9.264,2.548
		c24.667-182.141,75.154-384.462,228.217-501.6C329.07,316.051,324.294,307.695,319.388,311.468L319.388,311.468z"/>
	<path fill="#475370" d="M381.661,423.568c-50.472,34.816-97.422,71.84-120.542,130.547c-2.262,5.763,7.021,8.24,9.268,2.544
		c22.117-56.189,67.905-91.545,116.13-124.8C391.57,428.368,386.779,420.048,381.661,423.568L381.661,423.568z"/>
	<path fill="#475370" d="M330.873,495.946c-4.886,4.342-9.762,7.732-13.208,13.429c-3.224,5.298,5.078,10.124,8.281,4.835
		c3.017-4.966,7.48-7.716,11.707-11.485C342.286,498.606,335.472,491.837,330.873,495.946L330.873,495.946z"/>
	<path fill="#475370" d="M208.678,378.581c-9.425,12.765-17.721,26.324-24.914,40.479c-2.801,5.506,5.486,10.361,8.291,4.84
		c7.183-14.144,15.479-27.709,24.909-40.488C220.645,378.431,212.304,373.65,208.678,378.581L208.678,378.581z"/>
</g>
</svg>
