<?xml version="1.0" encoding="UTF-8" standalone="no"?>
<!-- Created with Inkscape (http://www.inkscape.org/) -->

<svg
   xmlns:dc="http://purl.org/dc/elements/1.1/"
   xmlns:cc="http://creativecommons.org/ns#"
   xmlns:rdf="http://www.w3.org/1999/02/22-rdf-syntax-ns#"
   xmlns:svg="http://www.w3.org/2000/svg"
   xmlns="http://www.w3.org/2000/svg"
   xmlns:sodipodi="http://sodipodi.sourceforge.net/DTD/sodipodi-0.dtd"
   xmlns:inkscape="http://www.inkscape.org/namespaces/inkscape"
   id="svg2861"
   version="1.1"
   inkscape:version="0.47 r22583"
   width="1080"
   height="1080"
   sodipodi:docname="Gioppino_slamdunk_outline.png">
  <metadata
     id="metadata2867">
    <rdf:RDF>
      <cc:Work
         rdf:about="">
        <dc:format>image/svg+xml</dc:format>
        <dc:type
           rdf:resource="http://purl.org/dc/dcmitype/StillImage" />
        <dc:title></dc:title>
      </cc:Work>
    </rdf:RDF>
  </metadata>
  <defs
     id="defs2865">
    <inkscape:perspective
       sodipodi:type="inkscape:persp3d"
       inkscape:vp_x="0 : 0.5 : 1"
       inkscape:vp_y="0 : 1000 : 0"
       inkscape:vp_z="1 : 0.5 : 1"
       inkscape:persp3d-origin="0.5 : 0.33333333 : 1"
       id="perspective2869" />
  </defs>
  <sodipodi:namedview
     pagecolor="#ffffff"
     bordercolor="#666666"
     borderopacity="1"
     objecttolerance="10"
     gridtolerance="10"
     guidetolerance="10"
     inkscape:pageopacity="0"
     inkscape:pageshadow="2"
     inkscape:window-width="1280"
     inkscape:window-height="1002"
     id="namedview2863"
     showgrid="false"
     inkscape:zoom="0.37616726"
     inkscape:cx="608.38316"
     inkscape:cy="853.24982"
     inkscape:window-x="1276"
     inkscape:window-y="92"
     inkscape:window-maximized="1"
     inkscape:current-layer="svg2861" />
  <path
     style="fill:#000000"
     d="m 542.97636,1050.8512 c -3.07962,-0.8317 -5.95338,-2.5219 -8.44002,-4.9642 -2.8649,-2.8137 -3.69934,-4.5608 -4.68335,-9.806 -2.22426,-11.8561 -2.67396,-20.6652 -1.46428,-28.6839 l 0.40176,-2.6632 -1.6629,-1.7335 c -6.59638,-6.87638 -11.76736,-15.91929 -15.76067,-27.56189 -0.89372,-2.60569 -1.59003,-4.76163 -1.54735,-4.79096 0.0427,-0.0293 0.8951,-0.35276 1.89425,-0.71882 2.32438,-0.85152 3.88108,-1.9849 4.49064,-3.26944 0.48701,-1.02632 0.60669,-2.83998 0.24523,-3.71634 -0.24367,-0.59078 -6.49256,-5.61639 -11.3196,-9.10368 -16.13346,-11.65563 -35.36801,-22.31084 -67.17268,-37.21109 -21.53042,-10.08686 -27.12048,-12.75828 -36.25881,-17.32758 -9.63581,-4.81806 -17.08625,-8.78012 -24.02107,-12.77414 -3.56009,-2.05037 -4.09403,-2.46574 -5.51772,-4.29243 -4.45344,-5.7141 -7.44763,-11.9806 -8.99652,-18.82872 -1.15058,-5.0871 -1.44377,-8.70434 -1.25063,-15.42978 l 0.17361,-6.04511 -0.82081,0 c -1.41799,0 -4.46626,-1.10262 -6.24743,-2.25981 -2.04415,-1.32805 -3.63287,-3.00893 -5.50497,-5.82429 l -1.38388,-2.08116 0.67411,-1.92357 c 2.1382,-6.10127 5.88869,-10.53195 9.92652,-11.72679 0.58742,-0.17381 0.62125,0.66725 -0.54508,-13.55247 -1.5238,-18.57789 -1.41148,-28.59173 0.43305,-38.60887 l 0.5572,-3.02597 -2.75055,-2.86566 c -3.15659,-3.28872 -4.96338,-5.919 -5.89302,-8.57889 -0.52521,-1.50274 -0.67417,-2.67091 -0.77415,-6.071 -0.20221,-6.87689 0.94863,-12.88892 3.50785,-18.32514 l 1.22412,-2.60023 -0.34971,-5.48938 c -0.37397,-5.87032 -0.86848,-8.60851 -2.00207,-11.08589 -0.39051,-0.85346 -0.71002,-1.75054 -0.71002,-1.99352 0,-0.24297 0.53333,-1.36486 1.18517,-2.49307 2.96118,-5.12529 4.36485,-10.29788 5.29999,-19.53067 0.90796,-8.9645 1.35106,-11.81884 1.85758,-11.96595 0.25804,-0.075 1.21542,-0.26887 2.12751,-0.43092 3.43348,-0.6101 7.02626,-2.39701 12.94461,-6.43815 l 3.33529,-2.27739 0.65797,-6.8509 c 3.56852,-37.15623 8.36096,-76.22441 19.53539,-159.25345 6.91838,-51.4054 10.19103,-76.88814 12.70821,-98.95331 0.56196,-4.926 1.13972,-9.97981 1.28393,-11.2307 0.25672,-2.22692 0.24104,-2.3233 -0.75227,-4.62263 -10.08222,-23.33848 -17.57326,-51.53344 -19.89091,-74.86591 -0.99536,-10.02051 -0.99887,-23.82651 -0.008,-32.21399 1.7231,-14.58841 6.55029,-30.41268 14.10134,-46.22637 7.96534,-16.6813 20.87571,-35.98653 34.23027,-51.18549 1.79246,-2.04001 3.25873,-3.74143 3.25838,-3.78094 -2.9e-4,-0.0395 -1.07294,-1.17729 -2.38355,-2.52842 -5.86932,-6.05079 -8.88913,-11.85335 -8.88037,-17.06361 0.005,-2.76188 1.04242,-5.71024 2.70568,-7.68691 l 0.71402,-0.84856 -3.04414,-1.67155 c -21.50085,-11.80617 -34.44762,-27.27462 -38.47467,-45.968447 -2.63085,-12.212601 -0.52233,-26.350122 5.75248,-38.570118 3.12825,-6.092152 7.02201,-11.416064 11.95299,-16.343204 8.47954,-8.472935 17.38585,-12.926758 26.60217,-13.303066 2.06574,-0.08435 4.63359,-0.340639 5.70633,-0.569542 3.06654,-0.654338 9.59057,-0.993448 13.29846,-0.691232 27.81336,2.26696 54.63602,25.138564 59.62511,50.842162 0.41708,2.148775 0.53197,4.093342 0.52916,8.956358 -0.004,6.559162 -0.25472,8.334522 -1.91918,13.578989 -1.37587,4.33517 -4.69795,10.62822 -7.69871,14.58373 -2.27488,2.99869 -6.05593,7.24513 -7.70724,8.65589 l -1.58578,1.35477 1.4904,1.7874 c 3.18678,3.82184 5.43414,7.97675 5.43414,10.04666 0,1.28566 -0.7111,2.43535 -1.83666,2.96946 -0.54745,0.25978 -1.10572,0.48129 -1.24061,0.49224 -0.13489,0.0109 -6.42081,6.89561 -13.96871,15.29924 -12.86001,14.318 -13.76328,15.39377 -14.35651,17.09829 -0.34819,1.00043 -1.82417,5.52429 -3.27997,10.05303 -12.73342,39.61156 -26.04401,70.87324 -35.50605,83.39061 -1.04265,1.37933 -2.07133,2.7433 -2.28596,3.03104 -0.34536,0.46301 -0.17626,0.8648 1.47042,3.49381 6.99607,11.16957 10.72899,21.09467 12.19581,32.42627 0.24586,1.89932 0.58719,6.18971 0.75853,9.53419 0.17133,3.34448 0.3708,6.47092 0.44327,6.94762 0.10767,0.70828 0.56578,1.15613 2.50562,2.44945 3.11568,2.07727 9.05453,7.9993 11.93936,11.90552 5.51894,7.47298 10.44162,16.85866 13.51415,25.76634 0.17291,0.50129 0.41883,0.52522 3.43242,0.33387 1.78539,-0.11334 3.98431,-0.29134 4.88649,-0.39553 l 1.64033,-0.18941 0.14295,-10.8343 c 0.14794,-11.2127 0.25223,-12.79711 1.46436,-22.24644 0.39748,-3.09861 0.91893,-7.40974 1.15879,-9.5803 1.09772,-9.93383 3.92305,-18.37396 7.67335,-22.92261 0.78607,-0.95342 2.16961,-2.77358 3.07452,-4.04481 5.53574,-7.77666 10.00726,-11.65269 17.87515,-15.49463 9.22837,-4.50629 19.23116,-5.78616 28.92389,-3.70087 14.86699,3.19849 28.63591,14.95706 35.16398,30.02981 2.84355,6.56552 3.8182,11.67611 3.57553,18.74834 -0.23407,6.82154 -1.07618,9.80857 -4.72614,16.7639 -6.23743,11.88607 -14.21397,22.64283 -23.7987,32.09381 -4.26357,4.20406 -6.14863,7.13568 -8.04429,12.5103 -1.5222,4.31578 -2.075,7.5934 -2.25119,13.34757 -0.12054,3.93693 -0.0437,6.07467 0.31638,8.79847 0.26158,1.97892 0.52185,3.64428 0.57838,3.7008 0.0565,0.0565 3.39952,0.22122 7.4289,0.36596 9.93174,0.35684 12.92205,1.11912 16.92658,4.31483 1.39764,1.11536 9.75123,11.71451 15.25118,19.35093 7.03739,9.77107 11.9092,18.78547 14.53039,26.8858 1.65576,5.11686 3.1824,13.49917 4.37281,24.00975 1.05873,9.34789 1.25224,12.80019 1.30866,23.34665 l 0.0563,10.51976 2.49552,2.77032 c 11.33296,12.58097 23.72477,34.33908 32.65573,57.33851 0.97942,2.52226 11.7339,27.00576 23.8988,54.4078 l 22.11802,49.82187 2.39088,1.27747 c 2.78078,1.4858 5.75908,3.31325 11.58941,7.11112 5.63373,3.66976 8.31639,5.16874 11.41214,6.37669 3.00965,1.17433 4.9648,1.57644 8.88017,1.82635 l 2.81296,0.17956 0.30304,1.20122 c 1.45047,5.74984 4.03019,6.84069 12.69633,5.36882 1.94131,-0.32971 3.57995,-0.5492 3.64143,-0.48775 0.0615,0.0614 -0.79091,1.36582 -1.8941,2.89854 -4.69674,6.52546 -5.63626,10.55088 -3.42904,14.69204 1.2081,2.26659 3.72711,4.58944 9.20462,8.48779 6.16923,4.39067 7.94259,6.20976 9.83946,10.09335 0.82577,1.6907 1.45211,3.11748 1.39187,3.17067 -0.0912,0.0805 -6.22108,-3.26459 -16.86658,-9.20404 -1.3477,-0.75193 -1.87783,-0.94452 -1.58903,-0.57726 0.23835,0.30313 3.59245,4.36438 7.45356,9.02504 3.86112,4.66063 6.72137,8.31875 6.35613,8.12913 -0.36525,-0.18958 -5.49941,-3.05781 -11.40922,-6.37377 -5.90984,-3.31596 -10.80628,-6.02905 -10.88099,-6.02905 -0.0747,0 1.47595,6.33807 3.44586,14.0846 1.96991,7.74652 3.58355,14.1379 3.58586,14.20302 0.003,0.0652 -4.60853,-7.02049 -10.24636,-15.74586 -7.98656,-12.36041 -10.61947,-16.21525 -11.92082,-17.45331 -2.45769,-2.33819 -6.40683,-5.19368 -13.12665,-9.49143 -7.52287,-4.81135 -10.14642,-6.68748 -13.28643,-9.50125 -5.72936,-5.13404 -10.37046,-11.37761 -14.69051,-19.76287 -1.31246,-2.54747 -1.71338,-3.03952 -4.68883,-5.75466 -21.42554,-19.55098 -33.94835,-33.2824 -43.85447,-48.08697 C 613.39109,625.342 605.75772,607.0604 601.36259,586.06118 l -1.09583,-5.23569 -3.02753,-4.15404 c -11.50728,-15.78905 -20.50294,-31.91428 -24.53869,-43.98693 -1.27206,-3.80527 -2.40239,-8.54393 -2.71111,-11.3657 -0.19356,-1.7692 -0.22278,-1.81742 -2.10058,-3.46698 -5.61167,-4.92955 -8.37356,-6.57475 -11.03743,-6.57475 -1.35192,0 -1.91642,0.17191 -3.28156,0.99927 -1.75247,1.06211 -8.25118,6.97706 -10.31896,9.39204 -4.60816,5.38191 -9.20234,16.72557 -12.52205,30.91859 -1.28525,5.49496 -1.29668,5.26882 0.48184,9.53263 2.93399,7.03389 5.12608,15.33077 6.02948,22.82112 0.48267,4.00199 0.47699,15.39595 -0.01,19.6462 -0.20019,1.74793 -0.60768,4.80321 -0.90554,6.7895 -0.32412,2.16137 -0.84944,9.44286 -1.30835,18.13495 l -0.76677,14.52348 2.26956,2.45786 c 9.91769,10.7404 16.32584,19.07582 25.42186,33.06759 4.01729,6.17951 4.23855,6.53271 11.94577,19.06838 13.4959,21.95087 18.17639,28.67583 24.66073,35.4327 l 2.99351,3.11933 2.7158,-2.20193 c 10.96301,-8.88873 18.44737,-12.51377 24.69139,-11.95926 5.31668,0.47212 13.98843,3.69502 19.48795,7.24278 9.18627,5.9261 15.1892,14.2938 20.65859,28.79677 l 1.37977,3.65861 6.3858,0.011 c 15.73571,0.0269 23.96787,2.49709 39.61099,11.88547 7.18367,4.31133 11.14711,6.48053 14.30128,7.82707 1.94963,0.83231 2.81857,0.99231 8.66745,1.59608 9.01096,0.93019 8.37569,0.98263 11.42744,-0.94327 8.48003,-5.35163 16.93674,-8.19033 24.39799,-8.18984 5.96158,0 10.0566,1.02192 15.23312,3.79986 2.40215,1.28914 3.04825,1.83528 6.544,5.53154 9.93636,10.50635 14.557,17.97116 16.93492,27.35881 0.46287,1.82738 0.92828,4.37997 1.03425,5.67241 0.10598,1.29243 0.27473,2.46843 0.37501,2.61332 0.10026,0.14492 1.67744,1.50883 3.50483,3.03094 10.46877,8.71991 17.50826,18.56139 20.74555,29.00306 1.65632,5.34229 2.07996,8.24277 2.38185,16.30756 0.71125,18.99947 -1.68689,29.13726 -8.35233,35.30828 -3.04317,2.81743 -6.61245,4.10123 -11.30809,4.06728 -3.18205,-0.0231 -5.7731,-0.52837 -9.31265,-1.81638 l -2.52315,-0.91814 -24.39452,-29.114 c -20.46011,-24.41841 -24.57307,-29.18533 -25.50158,-29.55633 -0.60889,-0.24329 -2.5372,-0.85365 -4.28513,-1.35636 -4.1667,-1.19834 -6.84572,-2.38075 -10.54371,-4.65356 -6.35055,-3.90312 -9.51561,-8.48126 -9.53136,-13.78672 -0.004,-1.4275 -0.045,-1.51339 -0.65456,-1.37925 -1.2914,0.28421 -9.4407,1.0071 -15.0958,1.33909 -6.59752,0.38732 -29.39081,0.19499 -35.68098,-0.30108 -2.14519,-0.16918 -6.34274,-0.51094 -9.3279,-0.75944 l -5.42758,-0.45186 -1.69853,1.26221 c -4.36799,3.2459 -6.67286,7.31183 -7.49685,13.22479 -0.16607,1.19177 -0.43773,4.44206 -0.60369,7.22286 -0.31165,5.22171 -0.48771,6.64692 -0.82069,6.64241 -0.10655,0 -1.88387,-0.19643 -3.94961,-0.43331 -12.94497,-1.48447 -23.09554,-4.35588 -41.4843,-11.7352 -4.7014,-1.88667 -8.75028,-3.43028 -8.9975,-3.43028 -0.24721,0 -2.05611,0.3822 -4.01977,0.84932 -17.00657,4.04559 -35.78519,4.75834 -57.16398,2.16966 -13.38975,-1.6213 -27.03271,-4.39627 -54.56852,-11.09918 -8.40513,-2.04603 -12.05912,-2.82223 -12.30909,-2.61476 -0.63806,0.52955 -2.9845,5.59321 -3.48325,7.5169 -0.37679,1.45327 -0.45226,2.62926 -0.33374,5.20046 0.18421,3.9967 0.83144,6.36996 2.53064,9.27939 5.44498,9.32311 9.28765,23.14213 10.31322,37.08854 l 0.21224,2.88626 4.33373,2.31851 c 10.7688,5.76119 21.40409,13.21398 31.49171,22.06815 4.54629,3.99038 13.54335,13.0074 18.04955,18.08959 l 3.5864,4.04481 7.2392,0.0277 c 5.86891,0.0225 8.05951,0.14897 11.57291,0.66768 11.86385,1.75161 22.52421,5.28102 36.86407,12.20495 l 4.21669,2.03601 -1.94191,5.96629 c -5.60344,17.216 -11.01433,30.05491 -15.57964,36.96721 -2.07813,3.1465 -3.47675,4.693 -5.50192,6.0837 -0.90795,0.6235 -1.67233,1.39229 -1.78353,1.79389 -0.10703,0.3865 -0.86631,3.6666 -1.68728,7.289 -3.0508,13.4611 -5.63737,20.3027 -10.59742,28.0309 -1.08166,1.6853 -2.5517,4.0011 -3.26677,5.1464 -2.96326,4.7459 -7.83035,8.4607 -12.42333,9.482 -1.98288,0.441 -5.70664,0.3269 -7.80225,-0.239 z"
     id="path2873" />
</svg>
