<?xml version="1.0" encoding="utf-8"?>
<!--Designed by Vexels.com - 2017 All Rights Reserved - https://vexels.com/terms-and-conditions/-->
<svg version="1.1" id="Layer_1" xmlns="http://www.w3.org/2000/svg" xmlns:xlink="http://www.w3.org/1999/xlink" x="0px" y="0px"
	 viewBox="0 0 1200 1200" enable-background="new 0 0 1200 1200" xml:space="preserve">
<g>
	<g>
		<g>
			<path fill="#FFBF38" d="M1086.467,541.655c0,134.334-54.45,255.951-142.483,343.984S734.334,1028.121,600,1028.121
				s-255.951-54.45-343.984-142.483s-142.483-209.65-142.483-343.984c0-134.334,54.45-255.951,142.483-343.984
				S465.666,55.188,600,55.188s255.951,54.45,343.984,142.483S1086.467,407.321,1086.467,541.655z"/>
			<path fill="#FFAE34" d="M190.644,804.573c43.275,67.239,102.662,123.126,172.706,162.203
				c70.044,39.077,150.745,61.345,236.649,61.345c114.755,0,220.223-39.738,303.402-106.203s144.07-159.656,169.672-266.564
				c-146.515,22.26-292.83,44.179-439.662,68.226C486.578,747.628,339.228,773.803,190.644,804.573z"/>
		</g>
		<g>
			<path fill="#A61212" d="M606.091,1141.396c-0.142-2.513,0.75-4.847,2.305-6.588c1.555-1.741,3.774-2.89,6.285-3.032l0,0l0,0
				c2.515-0.142,4.849,0.748,6.589,2.303c1.741,1.555,2.889,3.773,3.031,6.286l0,0l0,0c0.142,2.513-0.748,4.847-2.302,6.588
				s-3.773,2.89-6.287,3.032l0,0l0,0c-2.511,0.142-4.845-0.749-6.587-2.303C607.383,1146.127,606.233,1143.909,606.091,1141.396z
				 M568.617,1140.231L568.617,1140.231L568.617,1140.231L568.617,1140.231L568.617,1140.231c-2.258-1.116-3.83-3.055-4.559-5.27
				c-0.728-2.215-0.613-4.706,0.507-6.925l0,0l0,0c1.15-2.258,3.086-3.847,5.3-4.584c2.214-0.737,4.706-0.622,6.965,0.529l0,0l0,0
				c2.254,1.114,3.825,3.053,4.554,5.277c0.729,2.224,0.616,4.733-0.498,6.989l0,0l0,0c-0.757,1.504-1.895,2.701-3.236,3.545
				s-2.885,1.333-4.454,1.422l0,0l0,0c-0.765,0.043-1.535-0.005-2.301-0.163C570.13,1140.893,569.367,1140.626,568.617,1140.231z
				 M648.843,1132.324c-1.401-2.112-1.798-4.591-1.326-6.883c0.472-2.292,1.814-4.396,3.892-5.757l0,0l0,0
				c2.115-1.397,4.577-1.81,6.859-1.346c2.282,0.464,4.385,1.806,5.782,3.92l0,0l0,0c1.401,2.113,1.798,4.594,1.326,6.886
				c-0.472,2.292-1.814,4.396-3.892,5.755l0,0l0,0c0,0,0,0-0.01,0c-0.01,0.001-0.029,0.002-0.068,0.004l0,0l0,0
				c-0.667,0.439-1.397,0.791-2.151,1.044c-0.754,0.253-1.532,0.406-2.297,0.45l0,0l0,0c-1.565,0.089-3.135-0.224-4.543-0.911
				S649.762,1133.735,648.843,1132.324z M532.676,1108.284c-1.397-2.112-1.791-4.574-1.318-6.857
				c0.474-2.283,1.816-4.388,3.892-5.784l0,0l0,0c2.115-1.399,4.578-1.794,6.861-1.319c2.283,0.474,4.385,1.817,5.78,3.893l0,0l0,0
				c1.4,2.113,1.797,4.575,1.324,6.858c-0.473,2.283-1.815,4.386-3.891,5.783l0,0l0,0c-0.704,0.479-1.453,0.832-2.217,1.076
				c-0.764,0.244-1.543,0.379-2.308,0.422l0,0l0,0c-1.565,0.089-3.135-0.224-4.544-0.911S533.598,1109.695,532.676,1108.284z
				 M681.23,1103.016c-2.254-1.114-3.825-3.053-4.554-5.277c-0.729-2.224-0.616-4.733,0.498-6.989l0,0l0,0
				c1.155-2.221,3.095-3.792,5.309-4.52c2.215-0.729,4.705-0.614,6.961,0.535l0,0l0,0c2.258,1.116,3.83,3.055,4.559,5.27
				c0.728,2.215,0.612,4.706-0.507,6.924l0,0l0,0c-0.787,1.543-1.922,2.758-3.253,3.61c-1.331,0.851-2.857,1.339-4.426,1.428l0,0
				l0,0c-0.765,0.043-1.534-0.004-2.302-0.161C682.749,1103.68,681.984,1103.412,681.23,1103.016z M517.523,1062.597
				L517.523,1062.597L517.523,1062.597L517.523,1062.597L517.523,1062.597c-0.142-2.515,0.749-4.849,2.305-6.59
				s3.774-2.889,6.285-3.031l0,0l0,0c2.512-0.18,4.845,0.693,6.586,2.238s2.888,3.764,3.031,6.277l0,0l0,0
				c0.142,2.513-0.748,4.847-2.293,6.597c-1.545,1.75-3.745,2.917-6.221,3.094l0,0l0,0c-2.546,0.144-4.898-0.746-6.649-2.3
				C518.815,1067.328,517.665,1065.11,517.523,1062.597z M685.043,1052.89c-0.002-0.036-0.003-0.053-0.004-0.072
				c-0.001-0.018-0.002-0.037-0.004-0.074l0,0l0,0c-0.002-0.036-0.003-0.053-0.004-0.072c-0.001-0.018-0.002-0.037-0.004-0.074l0,0
				l0,0c-0.142-2.513,0.73-4.846,2.275-6.595c1.545-1.75,3.762-2.916,6.311-3.096l0,0l0,0c2.479-0.14,4.813,0.751,6.563,2.305
				s2.916,3.772,3.058,6.285l0,0l0,0c0.002,0.035,0.004,0.072,0.006,0.099s0.003,0.046,0.003,0.046l0,0l0,0
				c0.002,0.036,0.004,0.072,0.006,0.108c0.002,0.036,0.004,0.073,0.006,0.109l0,0l0,0c0.142,2.513-0.748,4.847-2.302,6.588
				c-1.554,1.741-3.773,2.89-6.287,3.033l0,0l0,0c-2.511,0.142-4.845-0.749-6.587-2.304
				C686.335,1057.622,685.185,1055.403,685.043,1052.89z M685.026,1052.599L685.026,1052.599L685.026,1052.599L685.026,1052.599
				L685.026,1052.599L685.026,1052.599L685.026,1052.599L685.026,1052.599L685.026,1052.599z M531.26,1027.691
				c-2.258-1.114-3.828-3.052-4.556-5.277s-0.613-4.734,0.501-6.989l0,0l0,0c1.15-2.256,3.087-3.827,5.302-4.555
				c2.215-0.728,4.706-0.614,6.964,0.5l0,0l0,0c2.256,1.151,3.827,3.091,4.555,5.306c0.728,2.215,0.614,4.706-0.5,6.96l0,0l0,0
				c-0.757,1.506-1.876,2.721-3.206,3.582s-2.871,1.369-4.472,1.459l0,0l0,0c-0.765,0.043-1.536-0.023-2.303-0.19
				C532.776,1028.319,532.012,1028.051,531.26,1027.691z M672.793,1015.877c-1.398-2.076-1.813-4.537-1.348-6.828
				c0.464-2.292,1.807-4.414,3.922-5.813l0,0l0,0c2.112-1.397,4.573-1.792,6.855-1.318c2.283,0.474,4.387,1.816,5.786,3.892l0,0l0,0
				c1.397,2.113,1.809,4.574,1.345,6.857c-0.465,2.282-1.807,4.386-3.918,5.785l0,0l0,0c-0.704,0.479-1.434,0.83-2.187,1.074
				c-0.753,0.243-1.531,0.378-2.331,0.424l0,0l0,0c-1.568,0.089-3.14-0.224-4.549-0.911
				C674.957,1018.35,673.711,1017.288,672.793,1015.877z M556.578,992.132c-1.401-2.113-1.798-4.593-1.326-6.884
				s1.814-4.395,3.892-5.756l0,0l0,0c2.115-1.399,4.595-1.813,6.886-1.349c2.291,0.464,4.394,1.807,5.755,3.923l0,0l0,0
				c1.401,2.113,1.815,4.574,1.351,6.856s-1.806,4.386-3.918,5.785l0,0l0,0c-0.706,0.441-1.436,0.793-2.19,1.046
				c-0.754,0.253-1.532,0.406-2.336,0.452l0,0l0,0c-1.565,0.089-3.136-0.243-4.544-0.939
				C558.741,994.568,557.494,993.506,556.578,992.132z M643.785,990.192L643.785,990.192L643.785,990.192
				c-2.254-1.114-3.824-3.035-4.552-5.241c-0.728-2.206-0.614-4.698,0.5-6.954l0,0l0,0c1.153-2.256,3.092-3.846,5.306-4.583
				c2.214-0.738,4.704-0.624,6.96,0.528l0,0l0,0c2.258,1.116,3.829,3.036,4.557,5.242c0.728,2.206,0.612,4.697-0.505,6.953l0,0l0,0
				c-0.751,1.541-1.869,2.755-3.191,3.606c-1.322,0.851-2.848,1.339-4.417,1.428l0,0l0,0c-0.765,0.043-1.552-0.003-2.337-0.159
				C645.322,990.854,644.539,990.588,643.785,990.192z M596.317,973.954c-0.18-2.548,0.693-4.9,2.239-6.65s3.764-2.899,6.275-3.041
				l0,0l0,0c2.515-0.142,4.849,0.749,6.599,2.303s2.916,3.772,3.093,6.283l0,0l0,0c0.142,2.513-0.748,4.847-2.302,6.588
				c-1.554,1.741-3.773,2.89-6.287,3.032l0,0l0,0c-2.511,0.142-4.844-0.73-6.585-2.266
				C597.608,978.667,596.459,976.467,596.317,973.954z"/>
		</g>
		<g>
			<path fill="#A61212" d="M850.97,241.809c-0.123-2.174,0.649-4.194,1.994-5.701c1.346-1.507,3.266-2.501,5.438-2.624l0,0l0,0
				c2.176-0.123,4.196,0.648,5.702,1.993c1.506,1.345,2.5,3.265,2.623,5.44l0,0l0,0c0.123,2.174-0.647,4.194-1.992,5.701
				s-3.265,2.501-5.441,2.624l0,0l0,0c-2.173,0.123-4.193-0.648-5.7-1.993S851.093,243.983,850.97,241.809z M818.543,240.801
				L818.543,240.801L818.543,240.801L818.543,240.801L818.543,240.801c-1.954-0.965-3.314-2.644-3.945-4.56
				c-0.63-1.917-0.53-4.072,0.439-5.992l0,0l0,0c0.995-1.954,2.671-3.329,4.586-3.967c1.916-0.638,4.072-0.538,6.027,0.458l0,0l0,0
				c1.95,0.964,3.31,2.642,3.94,4.566s0.533,4.096-0.431,6.048l0,0l0,0c-0.655,1.301-1.64,2.337-2.8,3.067
				c-1.161,0.73-2.497,1.154-3.854,1.231l0,0l0,0c-0.662,0.037-1.328-0.004-1.991-0.141
				C819.852,241.374,819.192,241.143,818.543,240.801z M887.964,233.959c-1.212-1.827-1.556-3.973-1.147-5.956
				c0.409-1.983,1.57-3.804,3.368-4.982l0,0l0,0c1.83-1.209,3.961-1.567,5.935-1.165c1.975,0.402,3.794,1.563,5.003,3.392l0,0l0,0
				c1.212,1.829,1.556,3.975,1.147,5.958c-0.409,1.983-1.57,3.804-3.368,4.98l0,0l0,0c0,0,0,0-0.008,0s-0.025,0.001-0.059,0.003l0,0
				l0,0c-0.577,0.38-1.209,0.684-1.861,0.903c-0.652,0.219-1.326,0.352-1.987,0.389l0,0l0,0c-1.354,0.077-2.712-0.194-3.931-0.789
				S888.759,235.18,887.964,233.959z M787.442,213.157c-1.209-1.827-1.55-3.958-1.14-5.933c0.41-1.976,1.571-3.797,3.368-5.005l0,0
				l0,0c1.83-1.21,3.961-1.552,5.937-1.142c1.975,0.41,3.795,1.572,5.002,3.369l0,0l0,0c1.212,1.829,1.555,3.959,1.146,5.934
				c-0.409,1.975-1.57,3.796-3.367,5.004l0,0l0,0c-0.609,0.414-1.258,0.719-1.919,0.931c-0.661,0.211-1.335,0.328-1.997,0.365l0,0
				l0,0c-1.354,0.077-2.712-0.194-3.932-0.788C789.32,215.296,788.24,214.377,787.442,213.157z M915.99,208.598
				c-1.95-0.964-3.31-2.642-3.94-4.566c-0.631-1.924-0.533-4.096,0.431-6.048l0,0l0,0c1-1.921,2.678-3.281,4.594-3.911
				s4.071-0.532,6.023,0.463l0,0l0,0c1.954,0.965,3.314,2.644,3.945,4.561c0.63,1.917,0.53,4.072-0.439,5.992l0,0l0,0
				c-0.681,1.335-1.663,2.387-2.815,3.123c-1.152,0.737-2.472,1.159-3.83,1.236l0,0l0,0c-0.662,0.037-1.328-0.004-1.992-0.14
				C917.304,209.172,916.642,208.941,915.99,208.598z M774.329,173.622L774.329,173.622L774.329,173.622L774.329,173.622
				L774.329,173.622c-0.123-2.176,0.649-4.196,1.994-5.702c1.346-1.507,3.266-2.5,5.439-2.623l0,0l0,0
				c2.174-0.156,4.193,0.599,5.699,1.937c1.506,1.337,2.499,3.257,2.622,5.432l0,0l0,0c0.123,2.174-0.647,4.194-1.984,5.708
				c-1.337,1.514-3.24,2.524-5.384,2.678l0,0l0,0c-2.204,0.125-4.239-0.645-5.754-1.99
				C775.447,177.716,774.453,175.797,774.329,173.622z M919.289,165.223c-0.002-0.031-0.003-0.046-0.003-0.062
				c-0.001-0.016-0.002-0.032-0.004-0.064l0,0l0,0c-0.002-0.031-0.003-0.046-0.004-0.062s-0.002-0.032-0.004-0.064l0,0l0,0
				c-0.123-2.174,0.632-4.193,1.969-5.707s3.256-2.523,5.461-2.679l0,0l0,0c2.145-0.122,4.165,0.649,5.679,1.994
				c1.514,1.345,2.523,3.264,2.646,5.438l0,0l0,0c0.002,0.031,0.003,0.062,0.005,0.086c0.001,0.024,0.002,0.04,0.002,0.04l0,0l0,0
				c0.002,0.031,0.004,0.062,0.005,0.094c0.002,0.032,0.004,0.063,0.005,0.094l0,0l0,0c0.123,2.174-0.647,4.194-1.992,5.701
				c-1.345,1.507-3.265,2.501-5.441,2.624l0,0l0,0c-2.173,0.123-4.193-0.648-5.7-1.993
				C920.407,169.317,919.412,167.397,919.289,165.223z M919.275,164.97L919.275,164.97L919.275,164.97L919.275,164.97
				L919.275,164.97L919.275,164.97L919.275,164.97L919.275,164.97L919.275,164.97z M786.217,143.417
				c-1.953-0.964-3.313-2.641-3.943-4.566s-0.531-4.096,0.433-6.048l0,0l0,0c0.995-1.952,2.672-3.311,4.588-3.942
				c1.916-0.63,4.072-0.532,6.026,0.432l0,0l0,0c1.952,0.996,3.312,2.675,3.942,4.592c0.63,1.917,0.532,4.072-0.432,6.022l0,0l0,0
				c-0.655,1.303-1.623,2.354-2.775,3.1c-1.151,0.745-2.485,1.184-3.87,1.263l0,0l0,0c-0.662,0.037-1.329-0.02-1.993-0.164
				C787.529,143.961,786.867,143.729,786.217,143.417z M908.688,133.194c-1.21-1.796-1.568-3.926-1.167-5.909
				c0.402-1.983,1.564-3.819,3.394-5.03l0,0l0,0c1.827-1.209,3.957-1.55,5.932-1.14s3.796,1.571,5.006,3.368l0,0l0,0
				c1.209,1.829,1.566,3.958,1.163,5.933s-1.563,3.795-3.391,5.005l0,0l0,0c-0.609,0.414-1.241,0.719-1.892,0.929
				c-0.652,0.211-1.325,0.327-2.017,0.366l0,0l0,0c-1.357,0.077-2.717-0.193-3.937-0.788
				C910.562,135.334,909.483,134.415,908.688,133.194z M808.125,112.647c-1.212-1.829-1.556-3.974-1.147-5.957
				c0.409-1.983,1.57-3.803,3.368-4.981l0,0l0,0c1.83-1.21,3.976-1.569,5.958-1.167c1.983,0.402,3.802,1.564,4.98,3.394l0,0l0,0
				c1.212,1.829,1.57,3.958,1.169,5.933s-1.563,3.795-3.39,5.005l0,0l0,0c-0.611,0.382-1.243,0.686-1.895,0.905
				c-0.652,0.219-1.325,0.352-2.021,0.391l0,0l0,0c-1.354,0.077-2.713-0.21-3.932-0.813S808.918,113.836,808.125,112.647z
				 M883.588,110.968L883.588,110.968L883.588,110.968c-1.95-0.964-3.309-2.626-3.939-4.535s-0.531-4.065,0.433-6.017l0,0l0,0
				c0.998-1.952,2.675-3.328,4.591-3.966c1.916-0.638,4.07-0.54,6.023,0.457l0,0l0,0c1.953,0.965,3.313,2.627,3.943,4.536
				s0.53,4.064-0.437,6.016l0,0l0,0c-0.65,1.334-1.617,2.384-2.761,3.12c-1.144,0.736-2.465,1.158-3.822,1.235l0,0l0,0
				c-0.662,0.038-1.343-0.002-2.023-0.138C884.917,111.541,884.24,111.311,883.588,110.968z M842.512,96.917
				c-0.156-2.205,0.6-4.24,1.937-5.754s3.257-2.509,5.43-2.632l0,0l0,0c2.176-0.123,4.195,0.648,5.71,1.993
				c1.514,1.345,2.523,3.264,2.677,5.436l0,0l0,0c0.123,2.174-0.647,4.194-1.992,5.701c-1.345,1.507-3.265,2.501-5.441,2.624l0,0
				l0,0c-2.173,0.123-4.192-0.632-5.698-1.961C843.629,100.995,842.636,99.092,842.512,96.917z"/>
		</g>
		<g>
			<path fill="#FFFFFF" d="M520.239,148.518c0,8.907-3.61,16.971-9.448,22.808c-5.837,5.837-13.901,9.448-22.809,9.448
				s-16.971-3.61-22.808-9.448s-9.448-13.901-9.448-22.808c0-8.907,3.61-16.971,9.448-22.808c5.837-5.837,13.901-9.448,22.808-9.448
				s16.971,3.61,22.809,9.448C516.629,131.547,520.239,139.611,520.239,148.518z"/>
			<path fill="#FFFFFF" d="M760.192,408.837c0-12.559-3.155-24.38-8.714-34.715c-5.559-10.335-13.524-19.186-23.142-25.806
				c3.261-6.361,5.818-13.143,7.559-20.245c1.741-7.102,2.667-14.523,2.667-22.163c0-16.648-4.372-32.271-12.03-45.789
				c-7.657-13.518-18.6-24.932-31.74-33.162c3.856-3.741,6.987-8.226,9.153-13.225c2.166-4.999,3.369-10.511,3.369-16.308
				c0-11.369-4.608-21.662-12.058-29.112c-7.45-7.45-17.743-12.059-29.112-12.059c-3.805,0-7.483,0.525-10.974,1.501
				c-3.491,0.975-6.796,2.4-9.854,4.2c-2.755-5.201-6.097-10.042-9.938-14.436c-3.841-4.394-8.18-8.341-12.93-11.755
				c6.464-4.136,11.843-9.817,15.607-16.524s5.912-14.441,5.912-22.684c0-12.856-5.211-24.495-13.636-32.92S610.268,50,597.412,50
				c-12.856,0-24.495,5.211-32.919,13.636c-8.425,8.425-13.636,20.064-13.636,32.92c0,5.093,0.827,9.987,2.348,14.567
				c1.521,4.579,3.735,8.844,6.51,12.676c-16.491,4.129-30.845,13.65-41.076,26.582c-10.231,12.932-16.339,29.274-16.339,47.045
				c0,4.141,0.336,8.203,0.979,12.162s1.592,7.816,2.819,11.547c-11.792,2.843-22.074,9.56-29.408,18.732
				c-7.334,9.172-11.72,20.8-11.72,33.465c0,7.095,1.385,13.859,3.892,20.05c2.508,6.191,6.138,11.81,10.629,16.613
				c-11.79,6.796-21.656,16.554-28.575,28.261c-6.919,11.706-10.89,25.361-10.89,39.946c0,17.786,5.902,34.19,15.854,47.365
				s23.953,23.122,40.152,27.992c-2.559,6.626-4.548,13.536-5.897,20.672c-1.349,7.136-2.058,14.497-2.058,22.026
				c0,32.745,13.272,62.389,34.731,83.848c21.459,21.459,51.103,34.731,83.848,34.731c32.745,0,62.389-13.272,83.848-34.731
				s34.731-51.103,34.731-83.848c0-4.024-0.203-8-0.596-11.92c-0.394-3.92-0.978-7.783-1.742-11.582
				c11.131-6.307,20.455-15.432,26.996-26.408C756.434,435.37,760.192,422.544,760.192,408.837z"/>
			
				<text transform="matrix(1 0 0 1 470.0438 484.5605)" fill="#FFBF38" stroke="#FFBF38" stroke-width="3" stroke-linecap="round" stroke-linejoin="round" stroke-miterlimit="10" font-family="'Quicksand-Regular'" font-size="390.5287px">$</text>
			<path fill="#FFFFFF" d="M715.819,99.271c0,6.19-2.509,11.794-6.565,15.85c-4.056,4.056-9.66,6.565-15.85,6.565
				c-6.19,0-11.794-2.509-15.85-6.565c-4.056-4.056-6.565-9.66-6.565-15.85s2.509-11.794,6.565-15.85s9.66-6.565,15.85-6.565
				c6.19,0,11.794,2.509,15.85,6.565C713.31,87.477,715.819,93.081,715.819,99.271z"/>
		</g>
		<path fill="#290003" d="M631.859,1084.446c0,10.755-2.709,20.492-7.089,27.541c-4.38,7.048-10.431,11.408-17.114,11.408
			s-12.734-4.359-17.114-11.408c-4.38-7.048-7.089-16.785-7.089-27.541c0-10.755,2.709-20.493,7.089-27.541
			s10.431-11.408,17.114-11.408s12.734,4.359,17.114,11.408C629.15,1063.954,631.859,1073.691,631.859,1084.446z"/>
		<path fill="#290003" d="M518.685,547.974c-3.248,0-6.33,0.938-8.902,2.593c-2.572,1.654-4.635,4.025-5.845,6.889
			c-24.175,57.247-44.194,132.949-58.169,201.827s-21.907,130.93-21.907,160.879c0,48.234,20.572,91.902,53.832,123.511
			c33.26,31.609,79.208,51.16,129.962,51.16c50.753,0,96.702-19.551,129.962-51.16c33.26-31.609,53.832-75.277,53.832-123.511
			c0-29.948-7.932-92.001-21.907-160.879s-33.994-144.58-58.169-201.827c-1.21-2.865-3.273-5.235-5.845-6.889
			c-2.572-1.654-5.654-2.593-8.902-2.593h-88.97H518.685z"/>
		<g>
			<g>
				<path fill="#290003" d="M554.861,607.922h-35.685H483.49c-19.733,0-39.033-7.207-53.401-18.859s-23.802-27.748-23.802-45.528
					V482.76v-60.775c0-3.358,1.897-5.658,4.925-6.676c3.028-1.018,7.187-0.755,11.713,1.013l61.563,24.049l61.563,24.049
					c2.459,0.961,4.662,2.783,6.25,4.96c1.588,2.176,2.561,4.706,2.561,7.081v65.731V607.922z"/>
			</g>
			<g>
				<path fill="#290003" d="M660.45,607.922h35.685h35.685c19.733,0,39.034-7.207,53.401-18.859s23.802-27.748,23.802-45.528V482.76
					v-60.775c0-3.358-1.897-5.658-4.924-6.676c-3.028-1.018-7.187-0.755-11.713,1.013l-61.563,24.049l-61.563,24.049
					c-2.459,0.961-4.662,2.783-6.25,4.96s-2.561,4.706-2.561,7.081v65.731V607.922z"/>
			</g>
		</g>
		<g>
			<path fill="#FFFFFF" d="M938.651,293.986c-0.187,0-0.375-0.008-0.563-0.024c-0.189-0.016-0.378-0.04-0.568-0.073
				c-1.861-0.31-3.42-1.345-4.436-2.767c-1.016-1.422-1.489-3.232-1.178-5.091c2.087-12.528,3.981-25.166,5.802-38.046
				c1.821-12.88,3.57-26.002,5.368-39.498c1.603-12.033,3.232-24.27,4.958-36.624c1.726-12.354,3.547-24.826,5.533-37.329
				c0.294-1.864,1.315-3.436,2.728-4.466c1.414-1.03,3.22-1.517,5.086-1.21c1.864,0.295,3.431,1.318,4.458,2.732
				s1.514,3.22,1.217,5.083c-1.971,12.421-3.782,24.83-5.5,37.132c-1.718,12.302-3.342,24.496-4.94,36.487
				c-1.805,13.553-3.56,26.73-5.391,39.678s-3.737,25.668-5.845,38.306c-0.278,1.672-1.14,3.099-2.342,4.109
				S940.291,293.986,938.651,293.986z"/>
			<path fill="#FFFFFF" d="M895.599,596.933c-0.16,0-0.322-0.005-0.484-0.016c-0.162-0.011-0.325-0.028-0.488-0.051
				c-1.868-0.267-3.451-1.265-4.5-2.663c-1.049-1.398-1.565-3.196-1.299-5.063c1.846-12.945,3.596-25.877,5.32-38.991
				s3.425-26.411,5.173-40.086c3.475-27.197,7.01-54.857,11.03-83.235c4.02-28.378,8.525-57.475,13.94-87.545
				c0.333-1.855,1.395-3.397,2.833-4.394c1.439-0.996,3.255-1.446,5.098-1.117c1.857,0.333,3.402,1.388,4.399,2.823
				c0.997,1.435,1.447,3.252,1.112,5.108c-5.383,29.9-9.867,58.867-13.871,87.137c-4.004,28.27-7.529,55.842-10.994,82.953
				c-1.751,13.701-3.453,27.023-5.181,40.168s-3.482,26.112-5.336,39.106c-0.244,1.704-1.096,3.17-2.306,4.211
				C898.838,596.318,897.271,596.933,895.599,596.933z"/>
			<path fill="#FFFFFF" d="M885.538,665.311c-0.178,0-0.356-0.007-0.535-0.02c-0.179-0.014-0.359-0.034-0.54-0.062
				c-1.864-0.295-3.431-1.318-4.459-2.732c-1.028-1.414-1.516-3.22-1.222-5.083c1.065-6.73,2.126-13.596,3.199-20.699
				s2.158-14.441,3.27-22.115c0.272-1.867,1.277-3.444,2.679-4.488c1.402-1.044,3.201-1.556,5.059-1.293
				c1.867,0.27,3.447,1.271,4.494,2.671c1.046,1.4,1.558,3.2,1.288,5.066c-1.115,7.706-2.203,15.074-3.28,22.206
				c-1.077,7.132-2.143,14.026-3.212,20.785c-0.267,1.683-1.127,3.124-2.332,4.144C888.74,664.711,887.189,665.311,885.538,665.311z
				"/>
			<path fill="#FFFFFF" d="M839.307,696.721c-0.203,0-0.407-0.01-0.612-0.028c-0.205-0.019-0.411-0.047-0.616-0.083
				c-1.855-0.336-3.399-1.393-4.395-2.83c-0.996-1.437-1.444-3.254-1.107-5.11c0.743-4.092,1.319-8.209,1.817-12.398
				s0.919-8.452,1.352-12.837c0.388-3.916,0.781-7.899,1.243-11.915c0.462-4.015,0.992-8.063,1.653-12.107
				c0.305-1.861,1.338-3.415,2.758-4.432c1.42-1.017,3.229-1.496,5.085-1.208c1.861,0.304,3.423,1.334,4.444,2.754
				c1.021,1.42,1.5,3.229,1.196,5.09c-0.627,3.831-1.135,7.716-1.581,11.596c-0.445,3.88-0.828,7.755-1.204,11.565
				c-0.427,4.327-0.862,8.728-1.388,13.138c-0.526,4.41-1.143,8.829-1.935,13.193c-0.3,1.65-1.168,3.053-2.367,4.044
				C842.454,696.142,840.926,696.721,839.307,696.721z"/>
			<path fill="#FFFFFF" d="M825.879,807.651c-0.138,0-0.277-0.004-0.416-0.012c-0.14-0.008-0.28-0.021-0.421-0.038
				c-1.873-0.229-3.475-1.196-4.552-2.573c-1.077-1.377-1.629-3.165-1.399-5.036c0.618-5.051,1.157-10.169,1.651-15.277
				c0.495-5.108,0.946-10.207,1.389-15.222c0.895-10.117,1.805-20.407,3.065-30.866c1.261-10.458,2.872-21.085,5.169-31.875
				c0.392-1.845,1.497-3.356,2.965-4.308c1.467-0.952,3.297-1.344,5.137-0.95c1.845,0.392,3.356,1.495,4.308,2.962
				c0.952,1.466,1.344,3.296,0.95,5.141c-2.211,10.385-3.769,20.703-4.994,30.903c-1.225,10.2-2.117,20.283-2.994,30.198
				c-0.448,5.069-0.904,10.225-1.406,15.405c-0.502,5.18-1.05,10.383-1.681,15.546c-0.211,1.732-1.054,3.232-2.269,4.3
				C829.167,807.016,827.58,807.651,825.879,807.651z"/>
			<path fill="#FFFFFF" d="M821.702,839.581c-0.176,0-0.354-0.007-0.532-0.02c-0.178-0.014-0.358-0.034-0.537-0.062
				c-1.864-0.294-3.432-1.315-4.461-2.728s-1.519-3.218-1.227-5.081c0.426-2.707,0.837-5.464,1.239-8.312
				c0.402-2.848,0.795-5.787,1.184-8.859c0.239-1.871,1.221-3.466,2.607-4.535c1.386-1.069,3.176-1.612,5.031-1.382
				c1.871,0.238,3.469,1.212,4.539,2.594c1.07,1.382,1.614,3.173,1.377,5.044c-0.4,3.139-0.802,6.145-1.214,9.06
				c-0.412,2.915-0.833,5.738-1.269,8.511c-0.264,1.683-1.123,3.126-2.328,4.147S823.354,839.581,821.702,839.581z"/>
			<path fill="#A61212" d="M961.31,437.912c-0.182,0-0.366-0.007-0.55-0.021c-0.184-0.014-0.369-0.036-0.555-0.067
				c-1.862-0.303-3.425-1.332-4.447-2.75c-1.022-1.419-1.502-3.227-1.199-5.088l2.641-16.244l2.641-16.244
				c0.301-1.861,1.334-3.428,2.756-4.452c1.421-1.024,3.23-1.505,5.082-1.194c1.861,0.303,3.424,1.331,4.446,2.749
				c1.022,1.418,1.503,3.226,1.2,5.089l-2.641,16.244l-2.641,16.244c-0.273,1.676-1.134,3.11-2.338,4.124
				C964.502,437.317,962.955,437.912,961.31,437.912z"/>
			<path fill="#A61212" d="M921.751,685.76c-0.182,0-0.366-0.007-0.55-0.021s-0.371-0.036-0.557-0.067
				c-1.861-0.304-3.423-1.333-4.444-2.752c-1.021-1.419-1.502-3.227-1.199-5.089c1.983-12.175,3.926-24.477,5.878-37.024
				c1.951-12.547,3.911-25.34,5.926-38.498c3.129-20.436,6.311-41.22,9.646-62.237s6.822-42.27,10.56-63.643
				c0.325-1.858,1.377-3.41,2.81-4.415s3.246-1.464,5.093-1.137c1.858,0.325,3.409,1.372,4.414,2.802s1.464,3.244,1.138,5.1
				c-3.725,21.304-7.203,42.503-10.529,63.476c-3.327,20.973-6.503,41.72-9.626,62.119c-2.018,13.176-3.98,25.985-5.934,38.553
				c-1.954,12.568-3.901,24.894-5.89,37.101c-0.273,1.676-1.135,3.109-2.339,4.123C924.941,685.165,923.395,685.76,921.751,685.76z"
				/>
			<path fill="#A61212" d="M906.631,774.205c-0.21,0-0.422-0.01-0.634-0.03c-0.213-0.02-0.426-0.05-0.641-0.09
				c-1.854-0.35-3.39-1.417-4.376-2.861c-0.986-1.444-1.42-3.264-1.071-5.117c1.511-8.008,3.024-16.293,4.56-24.977
				c1.536-8.683,3.095-17.765,4.699-27.367c0.31-1.861,1.342-3.425,2.763-4.443c1.421-1.018,3.231-1.49,5.098-1.168
				c1.861,0.31,3.419,1.345,4.435,2.767c1.015,1.423,1.488,3.233,1.176,5.094c-1.611,9.65-3.178,18.779-4.722,27.509
				s-3.065,17.061-4.585,25.117c-0.31,1.639-1.182,3.031-2.378,4.013C909.76,773.633,908.239,774.205,906.631,774.205z"/>
			<path fill="#FFFFFF" d="M827.568,384.714c-0.115,0-0.229-0.003-0.344-0.008c-0.115-0.005-0.23-0.014-0.346-0.024
				c-1.877-0.189-3.5-1.121-4.607-2.475c-1.106-1.354-1.696-3.129-1.507-5.004l1.757-17.516l1.757-17.516
				c0.19-1.877,1.119-3.494,2.472-4.597c1.352-1.103,3.128-1.694,5.008-1.519c1.877,0.189,3.5,1.121,4.607,2.474
				s1.697,3.128,1.509,5.005l-1.758,17.516l-1.758,17.516c-0.178,1.761-1.009,3.298-2.229,4.395
				C830.908,384.057,829.3,384.714,827.568,384.714z"/>
			<path fill="#FFFFFF" d="M834.66,314.085c-0.115,0-0.23-0.003-0.346-0.009c-0.116-0.006-0.232-0.015-0.348-0.026
				c-1.876-0.188-3.498-1.119-4.604-2.473c-1.106-1.354-1.696-3.129-1.506-5.007l5.919-58.948l5.919-58.948
				c0.189-1.879,1.124-3.492,2.478-4.594c1.355-1.102,3.13-1.691,5.001-1.522c1.877,0.189,3.5,1.121,4.607,2.474
				c1.107,1.353,1.697,3.128,1.509,5.005l-5.922,58.951l-5.922,58.951c-0.176,1.76-1.007,3.296-2.226,4.393
				C838,313.429,836.392,314.085,834.66,314.085z"/>
			<path fill="#FFFFFF" d="M972.35,616.495c-0.2,0-0.4-0.009-0.602-0.027c-0.201-0.018-0.403-0.045-0.606-0.082
				c-1.857-0.331-3.403-1.383-4.403-2.817s-1.453-3.249-1.123-5.106l3.732-20.925l3.732-20.925c0.331-1.857,1.38-3.406,2.813-4.407
				c1.433-1.001,3.249-1.453,5.113-1.116c1.857,0.332,3.403,1.384,4.403,2.818s1.452,3.249,1.12,5.108l-3.732,20.922l-3.732,20.922
				c-0.295,1.654-1.163,3.063-2.362,4.058C975.504,615.913,973.973,616.495,972.35,616.495z"/>
			<path fill="#FFFFFF" d="M987.479,531.692c-0.2,0-0.4-0.009-0.602-0.027s-0.403-0.045-0.606-0.082
				c-1.857-0.331-3.403-1.383-4.403-2.817s-1.453-3.249-1.123-5.106l12.979-72.749l12.979-72.749
				c0.332-1.858,1.387-3.408,2.821-4.409s3.25-1.453,5.102-1.117c1.858,0.332,3.406,1.384,4.405,2.818s1.452,3.248,1.12,5.105
				l-12.979,72.749l-12.979,72.749c-0.295,1.654-1.163,3.063-2.362,4.058S989.102,531.692,987.479,531.692z"/>
			<path fill="#A61212" d="M861.361,503.846c-0.138,0-0.276-0.004-0.415-0.012s-0.278-0.021-0.419-0.038
				c-1.871-0.228-3.474-1.193-4.552-2.569s-1.631-3.164-1.403-5.037l8.378-68.782l8.378-68.782c0.229-1.871,1.197-3.479,2.575-4.559
				c1.377-1.08,3.164-1.633,5.031-1.395c1.873,0.228,3.475,1.193,4.553,2.569s1.63,3.164,1.402,5.037l-8.378,68.782l-8.378,68.782
				c-0.21,1.732-1.052,3.233-2.266,4.301C864.651,503.211,863.063,503.846,861.361,503.846z"/>
			<path fill="#A61212" d="M882.882,327.179c-0.138,0-0.277-0.004-0.416-0.012c-0.139-0.008-0.279-0.021-0.418-0.038
				c-1.873-0.228-3.475-1.193-4.553-2.569s-1.63-3.164-1.402-5.037l2.506-20.574l2.506-20.574c0.226-1.873,1.188-3.477,2.562-4.555
				c1.375-1.078,3.163-1.63,5.043-1.4c1.873,0.228,3.475,1.193,4.553,2.569s1.63,3.164,1.402,5.037l-2.506,20.574l-2.506,20.574
				c-0.212,1.732-1.053,3.233-2.268,4.301C886.172,326.543,884.585,327.179,882.882,327.179z"/>
		</g>
		<g>
			<path fill="#A61212" d="M274.594,311.415c-1.639,0-3.182-0.592-4.384-1.601c-1.202-1.009-2.064-2.436-2.344-4.107
				c-2.086-12.476-3.971-25.031-5.781-37.811c-1.81-12.78-3.545-25.784-5.329-39.16c-1.58-11.837-3.187-23.878-4.887-36.024
				c-1.699-12.146-3.491-24.398-5.442-36.658c-0.297-1.863,0.189-3.668,1.216-5.083c1.026-1.415,2.593-2.438,4.457-2.734
				c1.842-0.301,3.648,0.184,5.068,1.211c1.42,1.027,2.453,2.596,2.75,4.461c1.965,12.344,3.768,24.659,5.475,36.858
				c1.707,12.199,3.319,24.282,4.904,36.162c1.777,13.318,3.505,26.267,5.305,38.977c1.8,12.711,3.672,25.183,5.737,37.55
				c0.311,1.86-0.161,3.67-1.176,5.093c-1.015,1.423-2.574,2.458-4.435,2.768c-0.189,0.032-0.38,0.057-0.569,0.073
				C274.969,311.407,274.78,311.415,274.594,311.415z"/>
			<path fill="#A61212" d="M317.214,610.825c-1.672,0-3.238-0.614-4.448-1.654c-1.21-1.04-2.062-2.506-2.306-4.21
				c-1.835-12.845-3.571-25.663-5.282-38.655c-1.711-12.992-3.396-26.158-5.13-39.699c-3.43-26.804-6.918-54.062-10.882-82.007
				c-3.964-27.945-8.405-56.576-13.742-86.123c-0.335-1.855,0.114-3.671,1.11-5.108s2.541-2.492,4.398-2.827
				c1.851-0.333,3.667,0.116,5.104,1.113c1.437,0.997,2.496,2.54,2.83,4.396c5.367,29.719,9.83,58.481,13.81,86.535
				c3.981,28.054,7.48,55.4,10.922,82.289c1.73,13.515,3.412,26.656,5.119,39.617c1.706,12.961,3.438,25.742,5.266,38.537
				c0.266,1.867-0.25,3.666-1.298,5.064c-1.049,1.399-2.631,2.398-4.498,2.665c-0.165,0.024-0.328,0.04-0.49,0.051
				C317.537,610.82,317.375,610.825,317.214,610.825z"/>
			<path fill="#A61212" d="M327.187,678.474c-1.65,0-3.201-0.599-4.406-1.619c-1.205-1.02-2.064-2.46-2.33-4.142
				c-1.05-6.619-2.102-13.406-3.17-20.462c-1.068-7.056-2.153-14.38-3.269-22.073c-0.27-1.867,0.241-3.667,1.286-5.068
				c1.045-1.401,2.625-2.403,4.492-2.673c1.865-0.264,3.666,0.247,5.067,1.291s2.404,2.621,2.674,4.488
				c1.112,7.663,2.192,14.958,3.256,21.985c1.063,7.027,2.11,13.785,3.154,20.374c0.297,1.862-0.191,3.668-1.218,5.083
				c-1.027,1.414-2.595,2.436-4.457,2.732c-0.181,0.029-0.361,0.051-0.541,0.065C327.544,678.468,327.365,678.474,327.187,678.474z"
				/>
			<path fill="#A61212" d="M373.162,709.555c-1.619,0-3.146-0.578-4.345-1.568s-2.067-2.393-2.368-4.043
				c-0.786-4.323-1.398-8.701-1.921-13.069c-0.522-4.369-0.954-8.728-1.379-13.014c-0.372-3.766-0.751-7.597-1.192-11.432
				c-0.441-3.836-0.944-7.676-1.564-11.461c-0.304-1.862,0.175-3.671,1.195-5.091s2.581-2.45,4.443-2.756
				c1.854-0.294,3.663,0.184,5.084,1.202c1.422,1.017,2.457,2.573,2.762,4.436c0.655,4.001,1.18,8.004,1.637,11.976
				c0.457,3.971,0.846,7.91,1.23,11.782c0.43,4.342,0.848,8.563,1.343,12.711c0.495,4.148,1.066,8.223,1.803,12.274
				c0.336,1.855-0.11,3.672-1.105,5.11c-0.995,1.438-2.538,2.496-4.394,2.834c-0.206,0.037-0.412,0.065-0.618,0.083
				C373.57,709.546,373.365,709.555,373.162,709.555z"/>
			<path fill="#A61212" d="M386.485,819.369c-1.701,0-3.287-0.634-4.502-1.701c-1.214-1.067-2.057-2.566-2.27-4.298
				c-1.84-15.012-4.613-37.946-6.925-57.126c-2.312-19.181-4.165-34.609-4.165-34.609l6.783-0.814l6.783-0.814
				c0,0,1.851,15.422,4.162,34.596c2.311,19.174,5.082,42.099,6.922,57.104c0.229,1.873-0.322,3.661-1.398,5.039
				c-1.076,1.377-2.678,2.344-4.551,2.573c-0.141,0.018-0.282,0.03-0.422,0.038C386.762,819.366,386.623,819.369,386.485,819.369z"
				/>
			<path fill="#A61212" d="M390.63,856.452c-1.651,0-3.203-0.6-4.408-1.621c-1.206-1.021-2.065-2.463-2.331-4.146
				c-0.433-2.744-0.851-5.539-1.26-8.426c-0.409-2.887-0.808-5.865-1.205-8.974c-0.238-1.871,0.306-3.662,1.376-5.044
				c1.07-1.383,2.668-2.357,4.538-2.597c1.879-0.231,3.669,0.312,5.05,1.38c1.381,1.068,2.352,2.662,2.591,4.533
				c0.386,3.043,0.776,5.955,1.175,8.775s0.807,5.548,1.231,8.226c0.294,1.862-0.195,3.668-1.224,5.082
				c-1.029,1.414-2.597,2.435-4.461,2.729c-0.179,0.028-0.358,0.049-0.537,0.062C390.986,856.445,390.808,856.452,390.63,856.452z"
				/>
			<path fill="#FFFFFF" d="M251.974,453.603c-1.645,0-3.192-0.596-4.396-1.61c-1.204-1.015-2.064-2.448-2.338-4.124l-2.613-16.052
				l-2.613-16.052c-0.303-1.862,0.178-3.671,1.199-5.09c1.021-1.419,2.583-2.448,4.444-2.75c1.873-0.308,3.681,0.172,5.097,1.195
				c1.416,1.023,2.44,2.588,2.744,4.449l2.613,16.055l2.613,16.055c0.303,1.861-0.178,3.669-1.199,5.088
				c-1.022,1.419-2.584,2.447-4.447,2.75c-0.185,0.031-0.37,0.053-0.555,0.067S252.156,453.603,251.974,453.603z"/>
			<path fill="#FFFFFF" d="M291.151,698.706c-1.644,0-3.19-0.595-4.394-1.609c-1.204-1.014-2.066-2.447-2.339-4.123
				c-1.965-12.053-3.89-24.223-5.822-36.63c-1.932-12.408-3.871-25.054-5.864-38.06c-3.098-20.201-6.248-40.745-9.547-61.511
				c-3.299-20.766-6.747-41.753-10.441-62.842c-0.326-1.858,0.132-3.672,1.137-5.103c1.004-1.431,2.555-2.478,4.413-2.803
				c1.857-0.323,3.67,0.136,5.101,1.14c1.431,1.004,2.479,2.553,2.805,4.409c3.707,21.159,7.165,42.201,10.471,63.012
				c3.306,20.811,6.461,41.391,9.564,61.626c1.992,12.99,3.928,25.62,5.857,38.008c1.929,12.388,3.85,24.534,5.811,36.556
				c0.304,1.861-0.176,3.669-1.197,5.088c-1.021,1.419-2.584,2.449-4.447,2.753c-0.185,0.029-0.37,0.051-0.555,0.066
				C291.519,698.699,291.334,698.706,291.151,698.706z"/>
			<path fill="#FFFFFF" d="M306.145,786.253c-1.608,0-3.129-0.571-4.326-1.553c-1.196-0.981-2.068-2.372-2.378-4.011
				c-1.501-7.946-3.007-16.179-4.538-24.821c-1.531-8.642-3.088-17.693-4.692-27.276c-0.311-1.861,0.161-3.671,1.176-5.094
				c1.015-1.423,2.573-2.458,4.432-2.77c1.855-0.316,3.666,0.156,5.09,1.172c1.424,1.016,2.463,2.576,2.774,4.436
				c1.597,9.534,3.146,18.539,4.669,27.135s3.021,16.782,4.514,24.68c0.35,1.854-0.084,3.674-1.069,5.118
				c-0.985,1.444-2.521,2.513-4.374,2.864c-0.214,0.04-0.428,0.07-0.641,0.09S306.356,786.253,306.145,786.253z"/>
			<path fill="#A61212" d="M384.948,401.032c-1.732,0-3.34-0.657-4.56-1.753s-2.05-2.633-2.226-4.393l-1.742-17.303l-1.742-17.303
				c-0.189-1.876,0.4-3.652,1.505-5.005c1.106-1.354,2.728-2.286,4.605-2.474c1.857-0.191,3.632,0.398,4.99,1.504
				c1.358,1.106,2.3,2.729,2.489,4.606l1.742,17.303l1.742,17.303c0.189,1.877-0.4,3.653-1.506,5.007s-2.728,2.285-4.604,2.473
				c-0.116,0.012-0.232,0.021-0.348,0.026C385.178,401.03,385.063,401.032,384.948,401.032z"/>
			<path fill="#A61212" d="M377.924,331.265c-1.732,0-3.34-0.656-4.56-1.752s-2.05-2.633-2.226-4.394l-5.861-58.202l-5.861-58.202
				c-0.189-1.877,0.4-3.653,1.505-5.007s2.728-2.285,4.605-2.473c1.864-0.192,3.64,0.397,4.997,1.503s2.295,2.73,2.483,4.607
				l5.861,58.202l5.861,58.202c0.189,1.876-0.4,3.652-1.505,5.005c-1.106,1.354-2.728,2.286-4.605,2.474
				c-0.116,0.012-0.232,0.021-0.348,0.026C378.154,331.262,378.039,331.265,377.924,331.265z"/>
			<path fill="#A61212" d="M240.869,630.176c-1.623,0-3.154-0.581-4.354-1.575c-1.199-0.994-2.067-2.402-2.362-4.056l-3.697-20.696
				l-3.697-20.696c-0.332-1.857,0.12-3.672,1.12-5.106c1-1.434,2.546-2.487,4.403-2.819c1.846-0.335,3.662,0.117,5.099,1.117
				c1.437,1,2.495,2.548,2.827,4.406l3.697,20.696l3.697,20.696c0.332,1.858-0.12,3.674-1.12,5.108s-2.546,2.486-4.403,2.818
				c-0.204,0.037-0.407,0.064-0.608,0.082S241.069,630.176,240.869,630.176z"/>
			<path fill="#A61212" d="M225.887,546.307c-1.623,0-3.154-0.581-4.354-1.575c-1.199-0.994-2.067-2.402-2.362-4.056l-12.845-71.906
				l-12.845-71.906c-0.332-1.857,0.12-3.672,1.12-5.106c1-1.434,2.546-2.488,4.403-2.819c1.852-0.338,3.668,0.115,5.103,1.116
				c1.435,1.001,2.491,2.551,2.823,4.407l12.845,71.906l12.845,71.906c0.332,1.858-0.12,3.674-1.12,5.108
				c-1,1.434-2.546,2.486-4.403,2.818c-0.204,0.037-0.407,0.064-0.608,0.082S226.087,546.307,225.887,546.307z"/>
			<path fill="#FFFFFF" d="M351.309,518.775c-1.701,0-3.288-0.635-4.503-1.702c-1.215-1.067-2.057-2.568-2.269-4.3l-8.299-67.975
				l-8.299-67.975c-0.229-1.873,0.322-3.66,1.399-5.037s2.68-2.342,4.552-2.572c1.883-0.234,3.671,0.318,5.045,1.396
				c1.374,1.078,2.335,2.683,2.564,4.556l8.299,67.975l8.299,67.975c0.229,1.873-0.323,3.661-1.401,5.038
				c-1.077,1.377-2.68,2.343-4.551,2.57c-0.141,0.018-0.281,0.03-0.421,0.038C351.586,518.772,351.447,518.775,351.309,518.775z"/>
			<path fill="#FFFFFF" d="M329.996,344.197c-1.701,0-3.288-0.635-4.503-1.702c-1.215-1.067-2.057-2.568-2.269-4.3l-2.479-20.319
				l-2.479-20.319c-0.229-1.873,0.323-3.661,1.401-5.038s2.68-2.343,4.551-2.57c1.868-0.238,3.656,0.314,5.034,1.393
				s2.346,2.686,2.575,4.559l2.479,20.319l2.479,20.319c0.229,1.873-0.323,3.661-1.401,5.038c-1.077,1.377-2.68,2.343-4.551,2.57
				c-0.141,0.018-0.281,0.03-0.421,0.038C330.273,344.193,330.134,344.197,329.996,344.197z"/>
		</g>
		<g>
			<path fill="#FFBF38" d="M606.899,1035.769c-13.229-0.06-25.223-5.632-33.93-14.53c-8.706-8.898-14.124-21.121-14.199-34.483
				c-0.003-5.88,0.963-11.492,2.748-16.688c1.785-5.195,4.388-9.973,7.661-14.185c1.334-1.606,3.17-2.542,5.09-2.777
				c1.92-0.235,3.925,0.232,5.597,1.434c1.672,1.335,2.642,3.239,2.893,5.193c0.252,1.954-0.216,3.959-1.419,5.497
				c-2.403,2.941-4.238,6.248-5.472,9.857c-1.234,3.608-1.867,7.517-1.867,11.659c0.003,4.609,0.942,9.051,2.615,13.125
				c1.673,4.074,4.08,7.781,7.021,10.92c3.074,3.005,6.616,5.442,10.525,7.127c3.909,1.685,8.186,2.618,12.73,2.615
				c4.542-0.002,8.884-0.939,12.824-2.627c3.941-1.689,7.481-4.129,10.419-7.137c2.938-3.142,5.341-6.852,7.01-10.928
				c1.669-4.076,2.602-8.52,2.599-13.129c-0.002-4.142-0.638-8.016-1.876-11.606c-1.238-3.59-3.077-6.896-5.483-9.901
				c-1.137-1.536-1.572-3.541-1.323-5.495c0.249-1.955,1.183-3.86,2.786-5.198c1.669-1.203,3.706-1.672,5.644-1.438
				c1.938,0.233,3.776,1.168,5.047,2.772c3.274,4.207,5.882,8.982,7.672,14.175c1.79,5.194,2.763,10.805,2.766,16.685
				c0.006,13.362-5.366,25.591-14.063,34.498C632.218,1030.111,620.195,1035.695,606.899,1035.769z"/>
			<path fill="#FFBF38" d="M643.826,866.725c1.936-0.668,3.94-0.469,5.627,0.381s3.057,2.352,3.727,4.29
				c0.068,0.267,0.167,0.668,0.251,1.17c0.083,0.501,0.15,1.103,0.152,1.771c0,0,0,0,0,0.016c0,0.017,0,0.049,0,0.116
				c0,0.668-0.067,1.504-0.284,2.406c-0.217,0.902-0.583,1.871-1.182,2.805c-0.535,0.87-1.235,1.672-2.036,2.391
				c-0.801,0.719-1.702,1.354-2.638,1.889c-1.937,0.937-4.108,1.64-6.713,2.109s-5.644,0.704-9.318,0.705
				c-1.271,0.068-2.34,0.235-3.275,0.503c-0.935,0.268-1.737,0.636-2.471,1.104c-0.734,0.401-1.436,1.002-2.087,1.704
				c-0.651,0.702-1.252,1.504-1.785,2.306c-0.936,1.404-1.67,2.974-2.204,4.344c-0.534,1.369-0.867,2.538-1.001,3.139l0.004,7.885
				l0.004,7.885l14.498-0.007l14.498-0.007c2.003-0.001,3.841,0.833,5.178,2.185c1.337,1.352,2.173,3.223,2.173,5.294
				c0.001,2.071-0.832,3.908-2.167,5.227c-1.335,1.319-3.171,2.121-5.174,2.123l-39.418,0.021l-39.418,0.021
				c-2.071,0.002-3.909-0.799-5.23-2.118c-1.32-1.319-2.123-3.155-2.123-5.226c0,0,0,0,0-0.017s0-0.051,0-0.118l-0.006-11.892
				l-0.006-11.892c-0.005-7.951,3.198-15.101,8.39-20.265c5.192-5.164,12.372-8.341,20.323-8.345
				c4.409-0.002,8.552,0.999,12.26,2.801c3.708,1.802,6.983,4.405,9.658,7.61c0.668-0.868,1.403-1.703,2.221-2.489
				c0.818-0.785,1.719-1.521,2.721-2.191c1.937-1.335,4.141-2.438,6.563-3.208c2.421-0.77,5.06-1.206,7.867-1.207
				c2.005,0.066,3.642-0.002,4.944-0.12c1.302-0.118,2.27-0.286,2.937-0.421c0.335-1.068,0.902-2.037,1.669-2.839
				S642.689,867.126,643.826,866.725z M590.119,885.459c-3.875,0.003-7.348,1.542-9.852,4.032c-2.504,2.49-4.039,5.932-4.038,9.74
				l0.005,8.218l0.005,8.218l13.763-0.007l13.763-0.007l-0.005-8.218l-0.004-8.218c-0.001-3.809-1.539-7.249-4.012-9.736
				C597.27,886.992,593.862,885.457,590.119,885.459z"/>
			<path fill="#FFBF38" d="M568.721,844.187c-2.071,0.001-3.909-0.799-5.229-2.118c-1.32-1.319-2.124-3.155-2.127-5.227
				c0-2.005,0.801-3.876,2.12-5.247c1.319-1.37,3.156-2.24,5.227-2.242l39.418-0.02l39.418-0.02c2.07-0.001,3.906,0.867,5.226,2.236
				c1.32,1.37,2.123,3.241,2.124,5.246c0.002,2.071-0.799,3.908-2.117,5.227c-1.318,1.319-3.154,2.121-5.224,2.123l-39.418,0.021
				L568.721,844.187z"/>
			<path fill="#FFBF38" d="M631.635,807.281c-1.47-1.202-2.306-2.905-2.474-4.675c-0.168-1.77,0.332-3.608,1.534-5.078
				c2.403-2.941,5.007-6.951,6.992-11.412s3.353-9.373,3.284-14.117c-0.003-3.34-0.505-6.513-1.375-9.351s-2.106-5.343-3.578-7.346
				c-1.472-2.004-3.043-3.439-4.663-4.374c-1.62-0.935-3.291-1.368-4.961-1.366c-0.87,0-1.604,0.1-2.288,0.3
				c-0.684,0.2-1.318,0.502-1.986,0.904c-0.668,0.401-1.336,0.903-2.003,1.554c-0.668,0.652-1.335,1.454-2.003,2.456
				c-1.268,1.939-2.468,4.545-3.536,7.652c-1.068,3.107-2.002,6.714-2.736,10.655v0.134v0.134c-0.599,3.142-1.298,6.182-2.148,9.072
				c-0.85,2.89-1.85,5.629-3.052,8.169s-2.637,4.912-4.356,7.017s-3.723,3.943-6.061,5.415c-1.604,1.003-3.341,1.772-5.178,2.291
				c-1.837,0.519-3.775,0.787-5.78,0.788c-4.007,0.001-7.748-1.133-11.056-3.035c-3.308-1.902-6.182-4.573-8.456-7.644
				c-2.274-3.14-4.046-6.747-5.25-10.655c-1.204-3.908-1.84-8.116-1.842-12.459c-0.004-6.413,1.563-11.992,3.682-16.821
				s4.789-8.905,6.991-12.313c1.068-1.538,2.671-2.541,4.392-2.893c1.72-0.352,3.558-0.052,5.094,1.016
				c1.604,1.002,2.641,2.571,3.01,4.291c0.369,1.72,0.069,3.591-1,5.195c-2.271,3.409-4.406,6.751-5.974,10.259
				c-1.568,3.508-2.567,7.182-2.566,11.257c0.001,3.007,0.471,5.847,1.274,8.386s1.94,4.778,3.277,6.582
				c1.337,1.802,2.741,3.071,4.161,3.888c1.42,0.817,2.857,1.184,4.258,1.182c0.802,0,1.47-0.067,2.072-0.217
				c0.602-0.151,1.136-0.385,1.671-0.72c0.535-0.335,1.102-0.803,1.687-1.404c0.584-0.601,1.185-1.336,1.786-2.204
				c1.202-1.739,2.336-4.112,3.337-6.952c1.001-2.84,1.867-6.147,2.533-9.755v-0.134v-0.134c0.667-3.409,1.434-6.683,2.351-9.773
				c0.917-3.09,1.984-5.996,3.252-8.669c1.335-2.741,2.871-5.314,4.69-7.586c1.82-2.272,3.923-4.243,6.394-5.781
				c1.604-1.005,3.408-1.808,5.328-2.36c1.921-0.552,3.958-0.853,6.029-0.853c4.276-0.003,8.251,1.198,11.759,3.234
				c3.508,2.036,6.55,4.908,8.957,8.247c2.406,3.272,4.311,7.08,5.615,11.255s2.008,8.717,2.011,13.46
				c-0.062,7.216-1.895,13.865-4.464,19.662c-2.569,5.797-5.874,10.742-8.879,14.55c-1.201,1.472-2.904,2.308-4.674,2.493
				C634.944,808.883,633.106,808.416,631.635,807.281z"/>
			<path fill="#FFBF38" d="M568.65,714.32c-2.071,0.002-3.908-0.799-5.228-2.118c-1.32-1.319-2.122-3.155-2.122-5.227
				c-0.002-2.005,0.799-3.876,2.118-5.247c1.319-1.37,3.155-2.24,5.227-2.242l39.418-0.02l39.418-0.02
				c2.071-0.002,3.909,0.867,5.228,2.236c1.32,1.37,2.122,3.241,2.122,5.246c0.002,2.071-0.799,3.908-2.118,5.227
				c-1.319,1.319-3.155,2.121-5.227,2.123l-39.418,0.021L568.65,714.32z"/>
			<path fill="#FFBF38" d="M631.567,677.411c-1.47-1.201-2.306-2.905-2.474-4.675c-0.168-1.77,0.332-3.608,1.534-5.078
				c2.405-2.941,5.008-6.951,6.993-11.411c1.985-4.461,3.351-9.373,3.28-14.117c0-3.34-0.502-6.513-1.372-9.352
				s-2.107-5.343-3.578-7.346c-1.47-2.003-3.041-3.439-4.662-4.374c-1.621-0.935-3.291-1.368-4.959-1.366
				c-0.87,0-1.605,0.1-2.291,0.3c-0.685,0.201-1.32,0.502-1.986,0.904c-0.668,0.401-1.337,0.903-2.005,1.554
				c-0.668,0.652-1.336,1.454-2.003,2.456c-1.269,1.939-2.471,4.545-3.538,7.652c-1.067,3.107-2,6.714-2.732,10.655v0.134v0.134
				c-0.601,3.142-1.301,6.182-2.152,9.072c-0.851,2.89-1.852,5.629-3.053,8.169c-1.2,2.54-2.635,4.912-4.354,7.017
				c-1.719,2.105-3.723,3.943-6.06,5.415c-1.603,1.003-3.34,1.772-5.177,2.291c-1.837,0.518-3.774,0.787-5.778,0.788
				c-4.009,0.001-7.75-1.132-11.058-3.035s-6.182-4.573-8.454-7.644c-2.274-3.14-4.047-6.747-5.252-10.655
				c-1.205-3.908-1.843-8.116-1.845-12.459c-0.003-6.413,1.564-11.992,3.683-16.821c2.119-4.828,4.789-8.905,6.993-12.313
				c1.069-1.538,2.672-2.541,4.392-2.893c1.72-0.352,3.558-0.052,5.097,1.016c1.602,1.002,2.638,2.571,3.006,4.291
				c0.368,1.72,0.068,3.591-0.999,5.195c-2.269,3.409-4.406,6.751-5.974,10.259c-1.568,3.508-2.569,7.182-2.566,11.257
				c0.002,3.007,0.471,5.847,1.274,8.386c0.803,2.539,1.94,4.778,3.277,6.581c1.338,1.802,2.742,3.071,4.162,3.888
				s2.857,1.184,4.261,1.182c0.802,0,1.47-0.067,2.071-0.217c0.601-0.151,1.134-0.385,1.666-0.72
				c0.535-0.335,1.103-0.803,1.688-1.404s1.186-1.336,1.787-2.204c1.201-1.739,2.336-4.112,3.337-6.952
				c1.001-2.84,1.867-6.147,2.532-9.755v-0.134v-0.134c0.667-3.409,1.433-6.683,2.35-9.773s1.984-5.996,3.253-8.67
				c1.335-2.741,2.87-5.314,4.689-7.586c1.819-2.272,3.923-4.243,6.395-5.781c1.602-1.005,3.406-1.808,5.327-2.36
				c1.921-0.552,3.959-0.853,6.03-0.853c4.276-0.003,8.251,1.198,11.76,3.234c3.508,2.036,6.549,4.908,8.957,8.246
				c2.406,3.273,4.312,7.08,5.617,11.255c1.305,4.175,2.008,8.717,2.01,13.46c-0.063,7.217-1.896,13.865-4.465,19.662
				c-2.568,5.797-5.872,10.742-8.876,14.551c-1.201,1.472-2.905,2.308-4.676,2.493C634.876,679.014,633.037,678.547,631.567,677.411
				z"/>
		</g>
	</g>
	<g>
		<path fill="#FFFFFF" d="M537.101,1055.634c-1,0-2.003-0.182-2.953-0.549c-0.95-0.366-1.847-0.917-2.638-1.655l-1.52-1.419
			l-1.52-1.419c-1.654-1.545-2.526-3.614-2.598-5.71c-0.072-2.096,0.655-4.22,2.198-5.876c1.545-1.651,3.613-2.524,5.709-2.597
			c2.096-0.073,4.22,0.652,5.877,2.197l1.52,1.419l1.52,1.419c1.654,1.545,2.526,3.614,2.598,5.711
			c0.072,2.096-0.655,4.22-2.198,5.876c-0.808,0.864-1.758,1.514-2.781,1.949C539.293,1055.415,538.198,1055.634,537.101,1055.634z"
			/>
		<path fill="#FFFFFF" d="M511.002,1031.956c-1.053,0-2.106-0.202-3.097-0.605c-0.99-0.404-1.918-1.009-2.72-1.815
			c-12.471-12.554-23.169-26.8-31.854-42.306c-8.685-15.506-15.356-32.272-19.773-49.867c-0.551-2.194-0.16-4.405,0.917-6.205
			c1.077-1.8,2.841-3.188,5.037-3.739c2.197-0.543,4.408-0.153,6.207,0.923s3.186,2.836,3.737,5.032
			c4.058,16.166,10.182,31.564,18.149,45.798c7.967,14.234,17.779,27.304,29.212,38.814c1.594,1.605,2.387,3.706,2.38,5.804
			c-0.007,2.098-0.814,4.193-2.421,5.788c-0.799,0.793-1.721,1.388-2.704,1.785S512.046,1031.956,511.002,1031.956z"/>
		<path fill="#FFFFFF" d="M455.441,905.373c-2.131,0-4.097-0.825-5.567-2.189c-1.471-1.365-2.447-3.269-2.599-5.428
			c-0.46-6.488-0.666-12.397-0.617-17.923c0.049-5.526,0.353-10.668,0.914-15.623c0.254-2.249,1.397-4.185,3.038-5.495
			c1.641-1.309,3.779-1.992,6.025-1.732c2.25,0.256,4.184,1.398,5.492,3.038c1.308,1.64,1.989,3.779,1.735,6.028
			c-0.504,4.446-0.774,9.096-0.813,14.128c-0.039,5.032,0.155,10.446,0.578,16.421c0.16,2.258-0.61,4.366-1.985,5.95
			c-1.375,1.584-3.354,2.644-5.612,2.804c-0.098,0.007-0.197,0.012-0.295,0.016S455.538,905.373,455.441,905.373z"/>
	</g>
</g>
</svg>
