<?xml version="1.0" encoding="UTF-8"?>
<svg version="1.1" viewBox="0 0 744.09 1052.4" xmlns="http://www.w3.org/2000/svg">
 <g transform="matrix(.83713 0 0 .83713 5.854 11.283)">
  <path d="m628.31 884.68s-86.873-18.183-96.975-10.102c-10.102 8.0812-159.6-14.142-191.93-4.0406-32.325 10.102 2.0203 22.223 24.244 24.244 22.223 2.0203 113.14-8.0812 145.46 4.0406s94.954 6.0609 119.2 8.0812c24.244 2.0203 76.772-6.0609 86.873 2.0203s129.3 32.325 129.3 16.162-74.751-20.203-74.751-20.203-54.548-18.183-44.447-24.244c10.102-6.0609 113.14 6.0609 121.22 0 8.0813-6.0609 18.183-24.244-14.142-24.244s-113.14-2.0203-113.14-2.0203l-30.305 16.162-16.162 26.264-26.264-2.0203z" fill="#f2f2f2"/>
  <path d="m393.34 221.87c-3.8276 10.492-10.602 26.226-22.428 49.685 1.5017 1.259 3.3128 2.6189 5.508 4.0743 3.204 1.3968 5.0041 2.438 5.3894 3.1418 0.3128-0.17127 0.3821-0.40829 0.2109-0.72112 3.0293-1.1502 4.8697-1.1266 5.5119 0.0464l0.5544 2.119c1.6695 3.05 8.2937 4.7069 19.835 4.9952 0.8601-0.47083 1.6116-1.2804 2.2857-2.4626 1.2514-0.68503 2.0591-0.72906 2.4016-0.10345 5.3959-2.9539 9.9791-4.2327 13.744-3.8543 1.8767-1.0274 3.3979-0.43085 4.5966 1.7588l1.4254-0.78031c0.3129-0.17128 0.4219-1.063 0.3626-2.6567-0.9641-2.318-0.8857-4.7857 0.2132-7.42l-0.5102-0.93199c-7.1456-1.1701-10.939-2.151-11.367-2.9331l-0.932 0.5102 0.5102 0.93199-1.398 0.76533c-0.4281-0.78201-1.6703-1.5313-3.6921-2.254l-0.2551-0.466c-0.2996-0.54739-0.161-1.0214 0.4218-1.4422l1.2145-0.0592-3.0594-4.4173-8.9886-16.419c-0.9831-0.68143-1.7091-0.91688-2.1783-0.66006-0.1712-0.31277-0.5358-1.7059-1.1088-4.2382l-0.2702-0.4934c-2.5915-1.0206-3.9444-1.6736-4.1157-1.9864-0.05-4.5465-0.9366-8.3487-2.6061-11.399l-1.2755-2.33zm61.055 13.781c-0.043 0.56008-0.097 1.1252-0.162 1.6562 0.3424 0.62574 0.8439 0.74935 1.4696 0.4068 1.6267 2.9717 1.578 5.857-0.154 8.6346l-1.4254 0.78032-2.6442-0.40498c-0.2346 0.12842-1.2612 2.3188-3.0976 6.5765-0.1712-0.31279-0.4083-0.38209-0.721-0.21091l-0.4934 0.27011c0.5171 3.1726-0.6187 6.2548-3.46 9.2332 0.081 2.1915-0.4856 4.1302-1.6996 5.8112 0.9828 0.68162 1.6941 0.88951 2.1632 0.6327l0.8246 2.6124 0.9762 0.67691c4.6922-2.5687 9.1563-7.0391 13.387-13.421 0.1642-4.1554 0.3953-6.3441 0.7083-6.5155-0.078-3.7533 0.694-7.6928 2.244-11.845l-7.9161-4.8936zm-92.181 52.815c-5.5366 10.543-11.938 22.357-19.289 35.569 0.3272 0.0834 0.619 0.0887 0.8379-0.0312l0.8245 2.6125 0.9762 0.67686c4.6921-2.5686 9.1564-7.0391 13.387-13.421 0.1644-4.1555 0.3955-6.3442 0.7083-6.5155-0.1-4.8239 1.1437-9.956 3.7325-15.439-0.5971-1.0906-0.985-2.2396-1.1775-3.4524zm72.204-11.668-0.6893 1.0186 0.9762 0.67686 0.7043-0.99118-0.9912-0.70432z" fill="#f00"/>
  <path d="m615.32 86.568 0.065 0.5273c0.087 0.70808 0.4798 1.0433 1.1877 0.95627l0.5273-0.0647 0.99-0.65664c-0.076-0.61928-0.4691-0.95444-1.1878-0.95627l-1.5819 0.19401zm102.98-12.63 0.065 0.5273c0.087 0.70807 0.5108 1.0395 1.2188 0.95246l0.5273-0.0647 0.9899-0.65665c-0.076-0.61927-0.469-0.95443-1.1877-0.95626l-1.6129 0.19782zm-297.8 37.06c-0.354 0.0436-1.0681 1.3943-2.18 4.0455l0.7837 6.3896c1.5443 1.6071 2.5173 2.3676 2.9598 2.3132l1.0857-0.13316c0.7078-0.0867 1.0119-0.47591 0.9252-1.1839l11.123 7.2624c5.6565 2.1806 8.5138 3.4452 8.5574 3.799l-1.3232 2.3032 0.1332 1.0856c1.6762 1.9502 3.1485 3.9125 4.4709 5.9059 3.2039 1.2239 5.3891 2.7468 6.5129 4.585l0.1294 1.0546c-0.6196 0.0761-1.4711 0.56391-2.5346 1.4128 2.6815 7.2162 4.38 10.766 5.0879 10.679l0.9901-0.6567c0.1951 1.593 1.4187 2.7061 3.6513 3.3303 2.3907-1.0117 3.44-2.7554 3.1362-5.2332 1.3273-0.16271 2.2152-0.0957 2.7012 0.20393l0.3979-1.1193-2.5413-20.72c-1.4126-1.2638-2.5594-3.4419-3.4809-6.5626 0.7979-0.81631 1.6184-1.3003 2.5033-1.409l-1.6282-13.276-3.9499-1.6564-0.3271-2.6675c-0.3541 0.0436-0.9263-0.0622-1.6776-0.32947l-1.9114 1.8716-0.5273 0.0647c-0.1303-1.0617-0.5756-1.5664-1.2834-1.4798l-1.0545 0.12934c-0.6196 0.0761-0.9237 0.46532-0.9254 1.184l0.1332 1.0856c0.087 0.70807 0.6496 0.99084 1.7113 0.8606l0.065 0.5273c-2.0837 2.0521-3.5647 3.145-4.4495 3.2534l-0.5273 0.0647c-0.2388-1.9466-9.1606-4.2898-26.737-6.9846zm192.74-23.64c-3.4511 0.42343-8.0929 2.0799-13.938 4.9524l0.6566 0.98992c-3.8051 0.46683-7.5164 2.537-11.108 6.2109-6.9405 7.8574-10.227 13.137-9.9012 15.792l0.194 1.5819c0.354-0.0433 0.8953 0.0663 1.6466 0.33328l-0.3981 1.1193c-0.7078 0.0869-1.1183-0.39055-1.2485-1.4526l-1.0547 0.12935c-0.5309 0.0652-1.1026 1.3985-1.6836 3.9846 0.526 2.0913 1.1735 3.0676 1.97 2.9698l0.1331 1.0856-0.5273 0.0647 0.194 1.5819-1.3194 2.3342 0.065 0.52729 1.2485 1.4526 0.1294 1.0546c0.3907 3.1858-0.6585 4.9294-3.1363 5.2332l0.7837 6.3896c3.1682 2.396 4.8236 4.1598 4.9647 5.3101l-2.4426 1.9053c0.304 2.4778 1.4546 4.6869 3.485 6.5935-0.5819-1.8148-0.8867-2.8646-0.9192-3.1301l-0.065-0.52731c2.2123-0.27123 4.2144 1.4501 6.0193 5.1808l0.1331 1.0856-0.5272 0.0647-0.1979-1.6129-0.5273 0.0647-2.5719 0.85069c0.1302 1.062 1.0188 2.5679 2.6951 4.518 0.708-0.0868 1.012-0.47595 0.9253-1.184-0.043-0.35388 0.1087-0.54848 0.4626-0.59197 1.4375 3e-3 3.245 1.5727 5.4272 4.7181l-0.2001 2.7322c0.065 0.53101 1.2425 1.2663 3.5182 2.2446l1.0546-0.12934-0.1294-1.0546 3.1948-0.39184c4.3728 2.6973 6.8834 4.0044 7.5028 3.9283l0.1294 1.0546-0.5584 0.0685-1.7112-0.86057-1.0546 0.12934 0.3272 2.6675c0.3539-0.0433 0.8952 0.0662 1.6465 0.33328 0.6194-0.0759 1.4746-0.53269 2.5382-1.3817l1.0546-0.12934-0.8606 1.7112c0.1194 0.97345 5.5658 3.0076 16.362 6.0846 0.7078-0.0868 0.9444-1.027 0.7274-2.7969l0.5583-0.0685 2.7012 0.20394c0.1193 0.97344-0.096 2.087-0.6628 3.3242 5.1291 0.80811 7.7705 1.7472 7.9007 2.8091 9.4568 3.8702 14.502 8.6243 15.196 14.288l0.1331 1.0856c1.0201 8.3181-3.7759 14.455-14.423 18.456 2.062 7.2921 4.6309 10.766 7.7281 10.386 0.6194-0.076 1.4708-0.56377 2.5344-1.4128l0.068 0.55832c4.6465-0.92918 10.748-3.8518 18.323-8.7331-0.1253-3.2182 0.7506-4.9406 2.6089-5.1686l1.7113 0.86058 0.5273-0.0647c3.6129-3.497 5.8003-6.26 6.535-8.3262l-0.719-5.8623 0.5273-0.0647c2.0468-5.281 3.6831-7.9764 4.922-8.1284 0.087 0.70797 0.507 1.0083 1.215 0.92145l0.5273-0.0647-0.1293-1.0546-0.6567-0.98992c1.0618-0.1302 1.687-2.2052 1.9175-6.1857-0.531 0.0652-1.5253-0.86856-3.0245-2.8404l-0.1979-1.6129c-0.1086-0.88485 0.2163-2.5397 0.9961-4.9707-0.1521-1.2388-1.6347-4.4629-4.4312-9.6889l0.5273-0.0647-0.8545-2.6028-0.3234-2.6365c-0.065-0.53086 0.5916-1.1707 1.9424-1.8754l-1.4736-3.0306-1.0546 0.12935 0.3233 2.6365-0.5273 0.0647c-0.4425 0.0543-1.2422-0.72731-2.4325-2.3778l-0.1332-1.0856 2.1092-0.2587c-0.1195-0.9733-0.615-2.1442-1.5073-3.5617l-0.5273 0.0647c-0.531 0.0652-0.997 0.82614-1.3542 2.307-2.6406-1.0234-4.0066-2.1189-4.1476-3.2694l0.3979-1.1193 2.7012 0.20394-0.1294-1.0546c-0.6612-0.99667-1.245-1.4529-1.7759-1.3879l-0.9899 0.65665c-0.054-0.44237-0.825-0.73122-2.2734-0.82313l0.398-1.1193-0.1293-1.0546c-4.635-4.1021-10.213-7.2074-16.754-9.2794-0.708 0.0869-1.7115 0.76933-2.997 2.0048-0.354 0.0435-0.5486-0.10857-0.592-0.46263-4.6215-0.33128-8.2817-0.96952-11-1.8937-5.7937-0.36717-8.888-2.1305-9.2787-5.3162-1.7139-0.0592-3.2418-0.78298-4.5766-2.1463l-2.4735 1.9091-1.2486-1.4526 0.8606-1.7112-0.1332-1.0856c-6.5708-3.7748-10.144-8.0057-10.719-12.696l-0.1293-1.0546c-0.2171-1.7697-0.098-3.9271 0.3057-6.4918-0.1086-0.88477-0.9005-1.347-2.3381-1.3504l0.204-2.7012c3.0879-1.187 4.4838-2.9732 4.1908-5.3626l2.1402-0.2625 0.065 0.5273-0.8916 1.7151 0.6877 0.98611c4.4278-1.9801 6.5847-3.3003 6.4979-4.0083l-0.065-0.5273c-0.076-0.61928-1.0103-1.064-2.8344-1.2896-0.8749-4.204-1.8582-6.2262-2.9201-6.0961-0.043-0.35382 0.066-0.89509 0.3333-1.6466l-0.069-0.55831-0.5273 0.0647zm13.803-1.6929c-0.6195 0.0761-0.9198 0.49636-0.9215 1.215l0.2587 2.1092 0.5273-0.0647 1.9152-1.8406c1.1269 0.40085 1.7418 0.85329 1.8069 1.3841l0.065 0.52731c-0.8991 1.4577-1.1449 4.0141-0.6999 7.642 0.087 0.70806 0.507 1.0084 1.215 0.92144l1.5819-0.19402 3.6574-0.98381c0.043 0.3541 0.238 0.50616 0.592 0.46263l0.2625 2.1402c10.125 6.393 15.311 10.602 15.56 12.637l2.6028-0.85447c1.127 0.40083 1.7108 0.85707 1.776 1.3879l0.1293 1.0546c0.087 0.70804-0.3907 1.1185-1.4525 1.2486l0.1331 1.0856 1.0546-0.12935 0.1294 1.0546c0.4916 2.5446 1.228 4.2452 2.2324 5.11 0.5209 4.2476 3.1628 6.6258 7.8946 7.1232l0.1294 1.0546-2.1403 0.2625-1.7112-0.86058-0.5273 0.0647 0.065 0.5273c1.0585 1.3074 2.5612 1.8269 4.5081 1.588l0.5273-0.0647c0.9733-0.11928 2.0018-0.59733 3.0655-1.4464-0.076-0.61931-0.4966-0.91952-1.215-0.92144 0.4348-1.5802 1.4841-3.3239 3.1362-5.2332l-3.4504-28.133-1.8444-1.9462-0.065-0.5273 1.3232-2.3032-0.3272-2.6675c-0.5645-4.6013-2.9557-6.6268-7.2032-6.106l-0.5273 0.0647c-3.6381 4.7578-5.6946 7.1528-6.137 7.207-1.8584 0.22807-3.4919 0.0765-4.9061-0.46873l-0.9899 0.65664c-0.1303-1.0617-2.4037-1.87-6.7814-2.4111l-0.5273 0.0647 0.065 0.5273 1.8754 1.9424 0.065 0.5273c-0.3541 0.0436-0.8838 0.28449-1.5483 0.72512-0.6195 0.0761-1.5499-0.33759-2.8305-1.2585l-2.6675 0.32717c-0.044-0.35381 0.062-0.9261 0.3295-1.6776-0.7915-2.0585-1.9591-2.971-3.5519-2.7758-0.6194 0.0761-0.9546 0.46912-0.9562 1.1878l-2.3071-1.3542-3.1948 0.39183zm89.206-10.941c-3.4511 0.42343-8.093 2.0799-13.938 4.9524l0.6567 0.98992c-3.8051 0.46683-7.5165 2.537-11.108 6.2109-6.9405 7.8574-10.227 13.137-9.9012 15.792l0.194 1.5819c0.354-0.0433 0.8953 0.0663 1.6466 0.33328l-0.398 1.1193c-0.7079 0.087-1.1183-0.39055-1.2486-1.4526l-1.0856 0.13315c-0.5309 0.0652-1.0717 1.3947-1.6527 3.9808 0.526 2.0913 1.1736 3.0676 1.97 2.9698l0.1331 1.0856-0.5273 0.0647 0.194 1.5819-1.3194 2.3342 0.065 0.5273 1.2486 1.4526 0.1294 1.0546c0.3907 3.1857-0.6585 4.9294-3.1363 5.2332l0.7837 6.3896c3.1682 2.396 4.8236 4.1598 4.9646 5.3101l-2.4424 1.9053c0.3039 2.4778 1.4546 4.6869 3.4848 6.5936-0.5819-1.8148-0.8865-2.8646-0.9191-3.1301l-0.065-0.5273c2.2122-0.27124 4.2143 1.4501 6.0192 5.1808l0.1331 1.0856-0.5273 0.0647-0.1978-1.6129-0.5273 0.0647-2.6028 0.85447c0.1302 1.062 1.0497 2.5642 2.7261 4.5142 0.7079-0.0867 1.012-0.47595 0.9252-1.1839-0.043-0.35389 0.1087-0.54849 0.4626-0.59198 1.4376 3e-3 3.2451 1.5727 5.4273 4.7181l-0.2002 2.7322c0.065 0.53101 1.2425 1.2663 3.5182 2.2446l1.0546-0.12935-0.1293-1.0546 3.1948-0.39184c4.3727 2.6973 6.8523 4.0082 7.4717 3.9322l0.1294 1.0546-0.5273 0.0647-1.7112-0.86058-1.0546 0.12935 0.3271 2.6675c0.354-0.0434 0.8952 0.0662 1.6466 0.33328 0.6194-0.0759 1.4746-0.53269 2.5382-1.3818l1.0546-0.12934-0.8606 1.7112c0.1194 0.97345 5.5657 3.0076 16.362 6.0846 0.7079-0.0868 0.9445-1.027 0.7274-2.7968l0.5273-0.0647 2.7322 0.20013c0.1194 0.97344-0.096 2.087-0.6627 3.3242 5.129 0.80811 7.7394 1.751 7.8697 2.8129 9.4567 3.8702 14.532 8.6205 15.227 14.284l0.1332 1.0856c1.0201 8.3181-3.776 14.455-14.423 18.456 2.062 7.2921 4.631 10.766 7.7282 10.386 0.6193-0.076 1.4707-0.56377 2.5343-1.4128l0.069 0.55832c4.6465-0.92918 10.748-3.8518 18.323-8.7331-0.1254-3.2182 0.7505-4.9406 2.6089-5.1685l1.7112 0.86057 0.5273-0.0647c3.613-3.497 5.8003-6.26 6.535-8.3262l-0.719-5.8623 0.5273-0.0647c2.0469-5.281 3.6831-7.9764 4.9221-8.1284 0.087 0.70797 0.476 1.0121 1.1839 0.92526l0.5273-0.0647-0.1293-1.0546-0.6567-0.98992c1.0618-0.1302 1.7181-2.209 1.9485-6.1895-0.531 0.0652-1.5563-0.86476-3.0555-2.8366l-0.1978-1.6129c-0.1087-0.88484 0.2472-2.5435 1.027-4.9745-0.152-1.2388-1.6346-4.4629-4.4312-9.6889l0.5273-0.0647-0.8545-2.6028-0.3233-2.6365c-0.065-0.53087 0.5605-1.1669 1.9114-1.8716l-1.4427-3.0344-1.0546 0.12935 0.3234 2.6365-0.5273 0.0647c-0.4425 0.0543-1.2732-0.72351-2.4636-2.374l-0.1331-1.0856 2.1402-0.26249c-0.1195-0.9733-0.615-2.1442-1.5073-3.5618l-0.5584 0.0685c-0.531 0.0652-0.966 0.82234-1.3232 2.3032-2.6406-1.0234-4.0376-2.1151-4.1786-3.2656l0.398-1.1193 2.7322 0.20013-0.1294-1.0546c-0.6613-0.99667-1.2451-1.4529-1.7759-1.3879l-1.021 0.66044c-0.054-0.44236-0.794-0.73501-2.2423-0.82692l0.398-1.1193-0.1294-1.0546c-4.635-4.1021-10.213-7.2073-16.754-9.2794-0.7079 0.0869-1.7114 0.76932-2.9969 2.0048-0.3541 0.0435-0.5487-0.10857-0.592-0.46263-4.6216-0.33128-8.3128-0.96572-11.031-1.8899-5.7936-0.36717-8.857-2.1343-9.2477-5.32-1.7139-0.0591-3.2417-0.78298-4.5765-2.1463l-2.4735 1.9091-1.2487-1.4526 0.8606-1.7112-0.1331-1.0856c-6.5709-3.7748-10.144-8.0057-10.719-12.696l-0.1293-1.0546c-0.2171-1.7697-0.1293-3.9233 0.2747-6.4879-0.1085-0.88477-0.8695-1.3508-2.307-1.3542l0.2039-2.7012c3.088-1.187 4.4839-2.9732 4.1909-5.3626l2.1092-0.25869 0.065 0.5273-0.8606 1.7112 0.6566 0.98993c4.4278-1.9801 6.6157-3.3041 6.5289-4.0122l-0.065-0.5273c-0.076-0.61929-1.0413-1.0602-2.8653-1.2857-0.8749-4.204-1.8272-6.23-2.8891-6.0999-0.043-0.35381 0.066-0.89508 0.3333-1.6466l-0.069-0.55832-0.5273 0.0647zm13.803-1.6929c-0.6195 0.0761-0.9198 0.49636-0.9214 1.215l0.2587 2.1092 0.5273-0.0647 1.9151-1.8406c1.127 0.40085 1.7418 0.85329 1.807 1.3841l0.065 0.52731c-0.8991 1.4577-1.1449 4.0141-0.6999 7.642 0.087 0.70806 0.476 1.0122 1.1839 0.92525l1.613-0.19783 3.6574-0.98381c0.043 0.3541 0.238 0.50617 0.592 0.46263l0.2625 2.1402c10.125 6.393 15.311 10.602 15.56 12.637l2.5718-0.85066c1.1269 0.40082 1.7417 0.85326 1.8069 1.3841l0.1294 1.0546c0.087 0.70804-0.4218 1.1223-1.4836 1.2524l0.1331 1.0856 1.0857-0.13315 0.1293 1.0546c0.4917 2.5446 1.2281 4.2452 2.2324 5.11 0.5209 4.2476 3.1629 6.6258 7.8947 7.1232l0.1293 1.0546-2.1402 0.2625-1.7112-0.86058-0.5273 0.0647 0.065 0.5273c1.0584 1.3074 2.5612 1.8269 4.5081 1.588l0.5273-0.0647c0.9733-0.11928 1.9708-0.59352 3.0344-1.4426-0.076-0.61932-0.4653-0.92346-1.1839-0.92525 0.4348-1.5802 1.484-3.3239 3.1362-5.2332l-3.4505-28.133-1.8444-1.9462-0.065-0.5273 1.3232-2.3032-0.3272-2.6675c-0.5644-4.6013-2.9557-6.6268-7.2031-6.106l-0.5583 0.0685c-3.6382 4.7578-5.6637 7.149-6.106 7.2032-1.8584 0.22807-3.492 0.0765-4.9061-0.46873l-0.9899 0.65664c-0.1303-1.0617-2.4038-1.87-6.7815-2.4111l-0.5273 0.0647 0.065 0.5273 1.8444 1.9462 0.065 0.5273c-0.354 0.0436-0.8528 0.28068-1.5172 0.72132-0.6195 0.0761-1.581-0.33378-2.8616-1.2547l-2.6364 0.32336c-0.043-0.35381 0.062-0.9261 0.3294-1.6776-0.7914-2.0585-1.99-2.9672-3.5828-2.772-0.6195 0.0761-0.9236 0.46532-0.9253 1.184l-2.307-1.3542-3.1948 0.39184zm-120.65 15.9c0.075-0.0261 0.1597-0.0196 0.2482-0.0304l0.5273-0.0647c0.7079-0.0867 1.1281 0.21367 1.2149 0.92145l0.1294 1.0546c0.087 0.70807-0.2484 1.1011-0.9563 1.1878l-1.0546 0.12935c-0.043-0.35381-0.2805-0.85257-0.7213-1.5172-0.114-0.92901 0.085-1.4981 0.6124-1.6808zm103.01-12.634c0.075-0.0261 0.1596-0.0196 0.2481-0.0304l0.5273-0.0647c0.7079-0.0867 1.0971 0.21748 1.184 0.92525l0.1293 1.0546c0.087 0.70807-0.2173 1.0973-0.9252 1.1839l-1.0546 0.12935c-0.043-0.35381-0.2806-0.85257-0.7214-1.5172-0.1139-0.92901 0.085-1.4981 0.6125-1.6808zm-252.82 32.614c0.098 0.79656 0.01 1.5111-0.2685 2.1738l1.123 0.42898 0.9862-0.68765-0.786-2.0446-1.0547 0.12938zm7.703 1.1961c0.2279 1.8584-0.3438 3.1917-1.6836 3.9846 0.3472 2.8318 1.4188 4.1395 3.1886 3.9223 3.8936-0.47744 7.3395 4.1524 10.325 13.846-0.7864 5.3062-1.6868 8.2633-2.6835 8.9243l0.8544 2.6028c-1.0618 0.13035-1.5393 0.5408-1.4525 1.2486l0.1978 1.6129c0.1411 1.1504 0.4207 1.9959 0.8507 2.5718l-0.1355 3.2595 3.4505 28.133 1.8443 1.9462 0.065 0.52731-0.8605 1.7112c0.065 0.53099 0.8223 0.96596 2.3032 1.3232 0.2171 1.7698-0.4545 3.4672-2.0506 5.1001l4.8847 39.827c1.7699-0.21707 2.679 0.0233 2.7659 0.73123l0.7837 6.3896c0.1301 1.0619-0.4994 1.667-1.9152 1.8406l-6.3311 5.625 0.065 0.52731c1.0519 4.1824 3.2524 6.0868 6.615 5.6744l1.0857-0.13318-0.1294-1.0546-1.0856 0.13313c0.7564-1.8892 1.3706-2.8757 1.813-2.93 3.1856-0.39075 4.9294 0.65848 5.2333 3.1362l5.8314-0.71524c1.7329-3.4461 3.6799-5.2999 5.8036-5.5604 0.7079-0.0868 2.3208 1.3304 4.8353 4.2555l22.302-2.7353c0.7079-0.0868 1.0121-0.47601 0.9254-1.184l-1.3696-11.166c-0.076-0.61945-0.4656-0.92339-1.1841-0.92525l0.8607-1.7113-1.5636-12.748c-0.076-0.61939-0.469-0.95461-1.1878-0.95628l0.8607-1.7113-0.5859-4.7767c-0.6612-0.99672-1.2761-1.4491-1.8069-1.3841-0.1412-1.1503 0.2573-2.4623 1.1564-3.9199l-0.4565-3.7221-3.1949 0.39186-1.5111-3.5928c-0.2389-1.9467 0.6796-3.3224 2.7382-4.1139-1.0335-2.5678-1.6063-4.1126-1.6714-4.6436 0.531-0.0651 1.2128-0.50059 2.0109-1.3171l-1.9362-2.4387c0.9965-0.66107 1.4801-1.2797 1.4151-1.8108l-1.4305-11.663-0.6604-1.021-2.0071 1.3481-0.6604-1.021-0.194-1.5819c2.1237-0.26041 3.1522-0.73842 3.0655-1.4464l-2.1494-17.525-3.1949 0.39186c-0.076-0.61934 0.1606-1.5596 0.7274-2.7969-0.076-0.61933-0.4655-0.92329-1.1839-0.92525-0.5645-4.6014 0.2264-7.0172 2.3503-7.2777l-1.5636-12.748-2.6029 0.85448c-0.3472-2.8316-1.13-4.9099-2.3655-6.1956l-0.7153-5.8313 0.3981-1.1193 3.0592 2.8677c0.049 2.5989-0.2853 4.4309-0.9624 5.5018l0.065 0.52726c1.0585 1.3075 1.8679 1.912 2.399 1.8467l0.5273-0.0647-1.9516-15.912c-1.5304-2.9559-2.9699-4.3944-4.3079-4.3202-1.5045 0.18467-2.8797 0.70523-4.1202 1.5758-1.102-1.6611-1.9054-2.4738-2.4363-2.4088l-9.5845 1.1755c0.2605 2.1239-2.2393 3.5177-7.5487 4.1687-1.4592-0.18014-2.7248-0.20086-3.7868-0.0708-0.748-1.7045-1.3782-2.5384-1.909-2.4735l-4.8077 0.58968c-1.0235 2.6406-1.7376 3.9914-2.18 4.0454l-0.5274 0.0647c-2.3189-1.3322-3.5176-2.2409-3.5827-2.772l-2.6029 0.85445-0.5273 0.0647-1.715-0.89163-1.5819 0.19403zm60.515-7.4222c-0.6194 0.0761-0.9197 0.49664-0.9214 1.215l1.2363 10.081c0.098 0.79656 3.5845 1.456 10.473 1.9584l4.5788-2.1988c2.9836 0.89172 4.5326 1.7889 4.6412 2.6736 0.087 0.70805-0.3907 1.1185-1.4525 1.2486l0.065 0.52727c3.8417 2.7625 7.2408 5.5756 10.198 8.4464 4.7801 8.2163 7.8696 13.066 9.3039 14.507l0.5273-0.0647c0.3539-0.0433 0.537-0.24172 0.4936-0.59578 4.4713-1.6262 6.6455-2.804 6.5588-3.5121l-1.0424-8.4988c-0.087-0.7078-0.8228-0.96943-2.2385-0.79591l-0.065-0.5273c1.4157-0.17352 2.0666-0.60524 1.9799-1.3133l-0.1979-1.6129-2.3678-1.8505-0.065-0.5273 1.8467-2.3989-2.5375-20.689c-0.076-0.61928-0.4691-0.95442-1.1877-0.95627l-4.2494 0.52118-3.9223 3.1887-3.5219-2.2757-28.133 3.4505zm77.288 10.482c1.127 0.40083 1.7108 0.85707 1.7759 1.3879l0.3919 3.1948-1.0546 0.12935-1.5421-3.589 0.4289-1.1231zm102.98-12.63c1.1269 0.40082 1.7418 0.85326 1.8069 1.3841l0.3918 3.1948-1.0856 0.13315-1.5111-3.5928 0.398-1.1193zm-190.35 29.801 0.5273-0.0647 0.3917 3.1949c-0.5309 0.0652-1.1397-0.5954-1.8443-1.9462-0.076-0.61931 0.2282-1.0085 0.9253-1.1839zm52.01-2.0658 0.5584-0.0685 0.1293 1.0546-1.6129 0.19782c-0.076-0.6193 0.2281-1.0085 0.9252-1.1839zm-18.792 13.639c-4.0707 0.49938-6.1479 4.1601-6.2079 10.994 1.6454 0.96595 2.717 2.2736 3.1888 3.9222-1.0637 0.8491-2.0922 1.3271-3.0655 1.4464l-0.1941-1.5819-1.5818 0.19401c0.1627 1.3274-1.0386 3.2658-3.599 5.8252-0.1836 2.8969-0.7031 4.3996-1.588 4.5081l-1.0855 0.13312-0.1978-1.6129c-1.7699 0.21715-2.5902 0.70114-2.5034 1.409l0.3233 2.6365c0.9158 0.87578 1.8506 2.7595 2.8282 5.6036l0.1293 1.0546-0.8604 1.7112c4.9486 2.2674 7.4495 3.7516 7.5363 4.4595 2.8752 7e-3 4.3604 0.38383 4.4473 1.0917l0.065 0.52731c-0.354 0.0435-0.8528 0.28056-1.5172 0.72132l5.8129 12.227 1.582-0.19402 2.6027-0.85445 1.3738 2.5095c2.8316-0.34725 3.9228-3.1833 3.2716-8.4927l-0.5859-4.7767-1.2485-1.4526 0.8605-1.7112-3.713-30.273-0.5272 0.0647c-0.6196 0.0761-0.9237 0.46528-0.9254 1.184-0.7514-0.26703-1.3236-0.37281-1.6775-0.32948-0.4776-3.8934-1.7554-5.7036-3.8789-5.4433l-0.065-0.52731c1.3272-0.16267 2.7869-1.4288 4.3848-3.7807-0.1086-0.88476-1.2434-1.2734-3.3888-1.19zm43.6 25.885 1.0546-0.12935 0.2625 2.1402-1.0546 0.12934-0.2625-2.1402zm103.01-12.634 1.0546-0.12934 0.2625 2.1402-1.0546 0.12935-0.2625-2.1402zm-109.36 31.201c-0.7078 0.0868-0.987 0.68043-0.8567 1.7422-1.8583 0.22798-3.6532 1.8872-5.3412 4.9684 0.098 0.79646 0.3871 1.4647 0.8171 2.0407-0.2781 0.66294-0.3937 1.4124-0.296 2.2087l1.887 15.385 0.6878 0.98608c0.7078-0.0868 1.0119-0.47596 0.9251-1.1839l-0.1293-1.0546-0.6604-1.021c0.3539-0.0434 0.4847-0.41132 0.3979-1.1193l0.5274-0.0647c0.7079-0.0868 1.0971 0.2174 1.184 0.92526l0.913 7.4442-2.9324 2.5321 1.107 9.0261c0.738 6.0173 2.9026 8.8059 6.4421 8.3718l1.0547-0.12937c0.7079-0.0868 3.1072-2.5554 7.1878-7.3673-0.087-0.70788-0.6804-0.98698-1.7423-0.85674l-0.1293-1.0546c0.4006-1.127 0.8841-1.7456 1.4151-1.8108l4.2494-0.5212c1.369 0.90998 3.0489 1.4392 5.0392 1.5544l-0.235 2.705c0.2822 2.3008 6.7668 3.6797 19.394 4.107 1.0618-0.13023 1.5393-0.54069 1.4525-1.2486-1.9543-1.2872-2.9622-2.0749-2.9947-2.3403l-0.1293-1.0546c1.7697-0.21706 2.6249-0.67384 2.5382-1.3818l-0.5897-4.8077-0.6567-0.98992c-4.1123-0.57347-8.2352-1.8587-12.344-3.8698l-2.3741 2.4636c-3.3358-1.5669-5.7832-3.793-7.3025-6.6606 0.5759-0.42987 1.4523-0.71331 2.6028-0.85446l-0.1294-1.0546-1.6128 0.19779c-4.3236-0.0984-6.6336-1.4616-6.9484-4.0278l1.9462-1.8444c-1.8483-4.0847-3.1783-6.0644-3.9746-5.9668-0.708 0.0869-0.9909 0.64943-0.8606 1.7112l-0.5583 0.0685-0.9838-3.6574 1.0856-0.13315c-3.2091-8.5885-5.3431-12.82-6.4049-12.69l-2.6676 0.32719zm103.01-12.634c-0.708 0.0869-0.9871 0.68043-0.8568 1.7423-1.8583 0.22797-3.6532 1.8872-5.3412 4.9684 0.098 0.79645 0.3561 1.4685 0.786 2.0445-0.2779 0.66289-0.3624 1.4085-0.2648 2.2049l1.887 15.385 0.6566 0.98993c0.7079-0.0868 1.0431-0.47981 0.9563-1.1878l-0.1294-1.0546-0.6914-1.0171c0.3539-0.0434 0.5158-0.41513 0.4289-1.1231l0.5273-0.0647c0.708-0.0868 1.0972 0.21736 1.184 0.92525l0.913 7.4442-2.9323 2.5321 1.1071 9.0261c0.738 6.0173 2.8714 8.8097 6.411 8.3756l1.0856-0.13315c0.7079-0.0868 3.0763-2.5516 7.1568-7.3635-0.087-0.70792-0.6493-0.99082-1.7112-0.86057l-0.1294-1.0546c0.4007-1.127 0.8532-1.7418 1.3841-1.8069l4.2494-0.52119c1.3691 0.90995 3.049 1.4392 5.0392 1.5544l-0.2039 2.7012c0.2822 2.3007 6.7358 3.6835 19.363 4.1108 1.0618-0.13024 1.5704-0.54451 1.4836-1.2524-1.9544-1.2872-2.9622-2.0749-2.9947-2.3403l-0.1293-1.0546c1.7697-0.21707 2.6249-0.67385 2.5382-1.3816l-0.5896-4.8077-0.6567-0.98993c-4.1123-0.57346-8.2352-1.8587-12.344-3.8698l-2.4051 2.4674c-3.3359-1.5669-5.7522-3.7968-7.2716-6.6643 0.576-0.42991 1.4524-0.71338 2.6028-0.85447l-0.1293-1.0546-1.6129 0.19783c-4.3235-0.0985-6.6336-1.4616-6.9483-4.0278l1.9152-1.8406c-1.8483-4.0847-3.1473-6.0682-3.9437-5.9706-0.7079 0.0869-1.0218 0.6532-0.8916 1.715l-0.5273 0.0647-0.9838-3.6574 1.0546-0.12935c-3.2091-8.5885-5.3431-12.82-6.4049-12.69l-2.6365 0.32336zm-206.95 30.766 1.0546-0.12936 0.2624 2.1402-0.5273 0.0647c-0.043-0.35393-0.2805-0.85267-0.7212-1.5173l-0.069-0.5583zm92.17-8.597c-2.3007 0.2822-3.87 2.0897-4.718 5.4272l1.8443 1.9462 0.065 0.52731-1.5818 0.19401c-0.531 0.0651-1.8207 2.7181-3.8675 7.9991l0.8544 2.6028 0.1294 1.0546c-2.1238 0.26051-3.0847 1.2896-2.8675 3.0593-1.7699 0.2171-3.3817 1.6779-4.8475 4.3726l1.8716 1.9114 0.065 0.52726c-0.3541 0.0435-0.8839 0.28439-1.5483 0.72514-1.062 0.13026-2.3277 0.10958-3.7867-0.0708-1.6832 0.92507-2.4823 1.5824-2.4388 1.9363-5.5565 2.2983-8.6743 4.6476-9.3656 7.0677l-0.5582 0.0685c-0.531 0.0651-1.1398-0.59546-1.8444-1.9462-0.6195 0.076-0.9198 0.49624-0.9215 1.215l1.1071 9.0261c0.087 0.70795 0.4764 1.0118 1.1839 0.92526l6.3586-0.77988 3.1301-0.91913c0.6628 0.27798 1.5818 0.34122 2.7323 0.20012l9.026-1.107 2.3741-2.4636 1.0855-0.13312 2.3718 1.8815 13.803-1.6929c0.7078-0.0868 1.012-0.476 0.9253-1.1839l-0.7191-5.8623c-0.1411-1.1504-0.4207-1.9958-0.8506-2.5718l0.1354-3.2594-2.1494-17.525c-2.1239 0.26053-3.2702-0.4786-3.4871-2.2485-0.1304-1.0618 0.1488-1.6554 0.8567-1.7422l1.6527-3.9808c-0.5244-2.81-1.2182-4.1639-2.1031-4.0554-0.7964 0.0977-1.4958 0.39092-2.0717 0.82079l-0.5273 0.0647c-0.044-0.3539 0.062-0.92619 0.3294-1.6776l-0.065-0.52731-1.582 0.19402zm-109.3 13.941c-0.9785 2.2758-2.2648 3.5207-3.8575 3.716-1.2412 5.2608-2.733 9.6398-4.461 13.172l5.545 7.4743c0.8487-0.93678 1.7282-1.8704 2.7118-2.7884-0.4884-3.982 1.2209-7.7736 5.0887-11.392 0.043 0.35403 0.2382 0.50591 0.592 0.46261l1.5819-0.19403-0.1271-5.3997c-0.4342-3.5396-2.7827-5.2185-7.0738-5.0514zm-2.809 7.9007 1.0545-0.12935 0.3233 2.6365c-0.4007 1.127-0.8532 1.7418-1.384 1.8069-1.1271-0.40068-1.7147-0.88793-1.7797-1.4189 0.7562-1.8891 1.3433-2.8409 1.7859-2.8952zm120.73-13.202c1.1271 0.40072 1.7146 0.888 1.7798 1.4189 0.087 0.70796-0.2174 1.0972-0.9253 1.1839l-0.5274 0.0647-0.3271-2.6675zm103.01-12.634c1.127 0.40074 1.7146 0.88799 1.7797 1.4189 0.087 0.70795-0.2173 1.0971-0.9253 1.1839l-0.5273 0.0647-0.3271-2.6675zm-224.21 30.742 0.5274-0.0647-0.204 2.7012-1.0545 0.1293-0.194-1.5819c-0.076-0.61937 0.228-1.0086 0.9251-1.1839zm217.34-20.738c-0.531 0.0652-0.9932 0.85712-1.3504 2.338l0.065 0.52729 1.0856-0.13315c-0.065-0.5309 0.1926-1.2978 0.7921-2.2696l-0.065-0.5273-0.5273 0.0647zm103.01-12.634c-0.5311 0.0652-0.9933 0.85712-1.3505 2.338l0.065 0.52731 1.0546-0.12935c-0.065-0.53091 0.2237-1.3016 0.8232-2.2734l-0.065-0.5273-0.5273 0.0647zm-304.47 52.991c-0.6193 0.076-0.9235 0.46518-0.9252 1.184 0.3541-0.0435 0.8953 0.0661 1.6466 0.33325l0.5273-0.0647-0.065-0.52731c-0.076-0.6194-0.4656-0.92337-1.1841-0.92524zm101.65-6.013c0.3539-0.0434 0.8952 0.0661 1.6466 0.33328-0.4007 1.127-0.8569 1.7108-1.3879 1.7759l-1.5818 0.19401-0.194-1.5819c0.3538-0.0434 0.8525-0.28048 1.5171-0.72127z" fill="#f00"/>
  <path d="m48.762 399.69 0.3787 0.37255c0.5087 0.50018 1.0249 0.51803 1.5249 9e-3l0.3724-0.37873 0.3883-1.1524c-0.4448-0.43749-0.983-0.43299-1.5468 0.0129l-1.1175 1.1362zm174.03-176.95c-5.0011 5.0852-6.8492 8.2541-5.578 9.5043l-2.2632 1.5436-0.3663 1.13c0.2543 0.2502 0.7503 0.49308 1.5088 0.73877 1.017 1.0004 1.17 1.8856 0.4198 2.6483l-1.1176 1.1363-2.6705 0.39784-0.3725 0.37873c0.01 1.0088-0.5932 2.9104-1.831 5.6944-0.375 0.38155 0.2603 2.5198 1.9317 6.4144-1.3815 0.64201-2.2449 0.77271-2.6263 0.3975-0.6876 0.6993-1.1764 3.9804-1.4429 9.8456l2.2885 1.5058c1.2714 1.2504 1.5287 2.4831 0.7826 3.7501-0.2541-0.24997-0.8924-0.0991-1.897 0.41357-0.8126 0.82641-0.5203 3.6071 0.8428 8.3238l1.13 0.36622c0.2542 0.25025 0.1339 0.62167-0.3663 1.1301 1.3311 8.4368 5.1933 16.732 11.565 24.874l1.8689-1.1425 1.8938 1.8626c-1.8128 1.8434 0.1162 5.7439 5.7764 11.686l0.3787 0.37254c0.2502-0.25422 0.5149-0.77249 0.7607-1.5311 0.2501-0.25417 0.742-0.50523 1.4964-0.7638 0.6991 0.68779 1.2236 1.6934 1.5499 3.0145l-1.897 0.41353-0.3724 0.37873 0.7575 0.74503c6.6741 6.564 12.278 11.052 16.774 13.473 2.8605 2.8132 6.5193 4.1632 10.994 4.0628 0.3876 1.1316 0.3938 1.8726 0.019 2.2539 2.1528 1.1169 5.0467 2.2484 8.7123 3.3527 3.4708 0.41248 5.4949 0.8896 6.0669 1.4522 0.2501-0.25422 0.248-0.50118-0.01-0.7513 2.5683-1.9756 4.3371-2.4843 5.2906-1.5466l1.1425 1.8688c2.479 2.4381 9.2776 2.1345 20.411-0.92114 0.6876-0.69914 1.1952-1.7134 1.4995-3.0399 1.0002-1.017 1.7609-1.2924 2.2695-0.79233 4.3134-4.3858 8.3323-6.9332 12.046-7.6576 1.5003-1.5255 3.1289-1.3934 4.9087 0.35694l1.1394-1.1586c0.25-0.25423 0.097-1.1395-0.4198-2.6482-1.5922-1.9411-2.2295-4.3263-1.938-7.1657l-0.7575-0.74503c-7.179 0.94233-11.094 1.0984-11.73 0.47317l-0.7451 0.75756 0.7575 0.74504-1.1394 1.1586c-0.6357-0.6251-2.0194-1.0061-4.1637-1.1144l-0.3788-0.3725c-0.4449-0.4376-0.4494-0.93132-0.012-1.5026l1.1237-0.38493-4.1824-3.3683-13.346-13.126c-1.1378-0.36873-1.901-0.38446-2.2761-3e-3 -0.2542-0.24999-1.0053-1.4787-2.285-3.7377l-0.401-0.39442c-2.7759-0.22891-4.2597-0.46363-4.5139-0.71375-1.36-4.3386-3.3068-7.723-5.7858-10.161l-5.3473-5.259c-1.0805-1.0627-2.3215-1.7933-3.7751-2.2226 0.5002-0.50845 0.1003-1.3917-1.1711-2.642l-0.7575-0.74503c-2.7037 0.84209-4.2277 1.1017-4.5455 0.7891l-1.5151-1.49c0.5427-2.9674 0.279-4.9854-0.8017-6.0481l-0.7797-0.76695-1.1176 1.1363-1.1363-1.1175 1.1175-1.1363-0.7575-0.74503c-2.6444 0.40032-4.6465-0.0991-6.0449-1.4745l0.3725-0.37881 1.8751-0.39124 0.7449-0.75749-4.1886-4.1196c-3.5895 0.47128-5.6094 0.48811-6.0544 0.0504-0.9534-0.93757-1.4603-2.4593-1.5404-4.5394 0.5002-0.50837 0.9941-0.51252 1.5025-0.0125 0.5002-0.50842 0.4961-1.0024-0.012-1.5026l-2.6736-2.6295c-1.6526-1.6253-3.1735-3.6548-4.5804-6.0388l-1.5057 2.2887-1.1237 0.38493c-0.9587-1.568-1.2138-2.5538-0.7764-2.9988l1.1176-1.1363 1.1363 1.1175 0.7669-0.77982-1.1363-1.1175-3.0492 0.0253-0.3788-0.37249c-0.4449-0.43745-0.4493-0.9312-0.013-1.5025l0.7669-0.77982 1.8752-0.39131 0.3661-1.13c-2.1048-2.9454-2.8604-4.7122-2.2979-5.2844 1.1316-0.38754 1.8725-0.39368 2.2538-0.0187 1.7505-1.7797 2.3806-2.9184 1.872-3.4186l-1.9161-1.8845c-0.5084-0.50004-1.2692-0.22461-2.2695 0.79226-2.2798-1.2417-4.1595-1.8657-5.6724-1.8533l-0.3788-0.37249 1.4901-1.5151 2.2632-1.5435-1.1363-1.1175c-0.4449-0.4375-0.961-0.45533-1.5248-0.01l-0.7669 0.77982zm80.287-81.634c-5.001 5.0852-6.871 8.2764-5.5998 9.5266l-2.2414 1.5213-0.3882 1.1524c0.2544 0.25015 0.7503 0.49303 1.5089 0.73872 1.0171 1.0003 1.17 1.8857 0.4198 2.6482l-1.1176 1.1364-2.6705 0.39784-0.3726 0.37881c0.01 1.0088-0.5931 2.9103-1.8308 5.6943-0.3751 0.38155 0.2602 2.5198 1.9315 6.4145-1.3815 0.64204-2.2448 0.77267-2.6263 0.39751-0.6875 0.69929-1.1763 3.9804-1.4428 9.8455l2.2886 1.5057c1.2714 1.2504 1.5286 2.4832 0.7825 3.7501-0.2542-0.24997-0.8925-0.099-1.8969 0.41353-0.8126 0.8264-0.5205 3.6071 0.8425 8.3239l1.1301 0.36622c0.2544 0.25013 0.134 0.62162-0.3662 1.13 1.3311 8.4367 5.1932 16.732 11.565 24.874l1.8688-1.1425 1.8938 1.8626c-1.8128 1.8434 0.1162 5.744 5.7764 11.686l0.3788 0.3725c0.25-0.25417 0.5148-0.77242 0.7607-1.5311 0.25-0.25417 0.7419-0.50523 1.4962-0.76374 0.6993 0.68772 1.2237 1.6934 1.5499 3.0145l-1.8751 0.39131-0.3943 0.40095 0.7575 0.74503c6.6742 6.564 12.278 11.052 16.774 13.473 2.8604 2.8131 6.5191 4.1632 10.994 4.063 0.3878 1.1315 0.3939 1.8724 0.019 2.2538 0.6716 0.34854 1.4436 0.69466 2.2625 1.042 4.5505-25.875 6.4942-42.894 7.1301-54.044l-3.4534-3.3964c-1.0806-1.0626-2.3216-1.7932-3.7752-2.2225 0.5001-0.5084 0.1003-1.3917-1.171-2.642l-0.7575-0.74504c-2.7039 0.84217-4.2059 1.0795-4.5238 0.7669l-1.515-1.4901c0.5427-2.9674 0.2571-4.963-0.8235-6.0259l-0.7798-0.76695-1.1176 1.1363-1.1363-1.1175 1.1176-1.1364-0.7575-0.74504c-2.6445 0.4004-4.6466-0.099-6.0451-1.4744l0.3726-0.37881 1.875-0.39119 0.7451-0.75762-4.1887-4.1195c-3.5895 0.4713-5.6094 0.48806-6.0544 0.0504-0.9534-0.93763-1.4603-2.4593-1.5404-4.5394 0.5001-0.50834 0.9941-0.51252 1.5025-0.0124 0.5002-0.50843 0.4961-1.0024-0.012-1.5026l-2.6737-2.6295c-1.6526-1.6252-3.1735-3.6547-4.5803-6.0388l-1.5057 2.2886-1.1237 0.385c-0.9587-1.5679-1.2139-2.5537-0.7764-2.9988l1.1394-1.1586 1.1363 1.1175 0.7452-0.75761-1.1363-1.1175-3.0494 0.0254-0.3787-0.37254c-0.4448-0.43751-0.4274-0.95352 0.01-1.5248l0.7451-0.75762 1.8749-0.39119 0.3663-1.13c-2.1048-2.9454-2.8604-4.7122-2.2979-5.2844 1.1316-0.38754 1.8725-0.39368 2.2539-0.0188 1.7503-1.7796 2.3804-2.9183 1.8719-3.4186l-1.9161-1.8845c-0.5084-0.49996-1.2472-0.24687-2.2476 0.77005-2.2798-1.2417-4.1813-1.8434-5.6943-1.831l-0.3788-0.37249 1.49-1.515 2.2633-1.5436-1.1363-1.1175c-0.4449-0.43742-0.9611-0.45528-1.5248-9e-3l-0.7451 0.75754zm-255.45 260.49c-2.4379 2.4791-5.0406 6.6643-7.8285 12.55l1.13 0.3663c-2.6881 2.7333-4.283 6.6411-4.8081 11.752-0.5432 10.47 0.1479 16.67 2.0547 18.545l1.1363 1.1175c0.2502-0.25418 0.7639-0.52745 1.5183-0.78606l0.363 1.1461c-0.5 0.50857-1.1185 0.39026-1.8813-0.36006l-0.7451 0.75762c-0.3749 0.3814 0.029 1.7585 1.1836 4.1446 1.7132 1.3097 2.8276 1.6709 3.3901 1.0988l0.7799 0.76691-0.3725 0.37873 1.1363 1.1175 0.3978 2.6705 0.3788 0.3725 1.9032 0.33777 0.7575 0.74504c2.2883 2.2506 2.5521 4.2685 0.8017 6.0481l4.5896 4.514c3.971-0.096 6.3645 0.25457 7.1908 1.0671l-0.7483 3.0337c1.7798 1.7505 4.0773 2.7413 6.853 2.9703-1.5849-1.0584-2.4766-1.6906-2.6674-1.8782l-0.3787-0.37254c1.5628-1.589 4.2012-1.4874 7.9356 0.30972l0.7798 0.7669-0.3724 0.37874-1.1586-1.1394-0.3725 0.37873-1.5058 2.2887c0.7628 0.75025 2.3955 1.3762 4.9212 1.8595 0.5002-0.50848 0.518-1.0247 0.01-1.5249-0.2542-0.25002-0.2562-0.49703-0.01-0.75123 1.1274-0.89198 3.5188-0.78838 7.1845 0.31584l1.5436 2.2632c0.3813 0.37515 1.7387 0.24037 4.1289-0.41001l0.7669-0.77982-0.7575-0.74504 2.235-2.2725c5.1014-0.60978 7.88-1.149 8.3176-1.594l0.7576 0.74499-0.3725 0.37873-1.897 0.41357-0.7451 0.75757 1.9161 1.8845c0.2501-0.25418 0.7639-0.52757 1.5182-0.78606 0.4377-0.4449 0.8009-1.3124 1.1051-2.6389l0.745-0.7575 0.3912 1.8751c0.6994 0.68766 6.2504-1.1316 16.617-5.4417 0.5001-0.5084 0.1002-1.3916-1.1711-2.642l0.3726-0.37881 2.2632-1.5436c0.6992 0.68769 1.2016 1.7157 1.5279 3.0368 4.5178-2.5592 7.1699-3.4678 7.9326-2.7177 9.811-2.8555 16.74-2.2956 20.808 1.7052l0.7798 0.76695c5.9749 5.8764 6.0178 13.687 0.173 23.444 6.1519 4.4249 10.347 5.5235 12.535 3.2988 0.4375-0.44487 0.7785-1.3343 1.0826-2.6607l0.4011 0.39442c3.059-3.6189 6.0163-9.7036 8.9084-18.239-2.1007-2.4412-2.487-4.3345-1.1741-5.6694l1.875-0.39126 0.3944-0.401c0.652-4.9858 0.6229-8.4875-0.088-10.562l-4.2109-4.1415 0.3724-0.37874c-1.6841-5.4076-2.0586-8.5581-1.1834-9.4481 0.5084 0.50021 1.0024 0.49606 1.5025-0.0125l0.3725-0.37873-0.7575-0.74503-1.13-0.3663c0.7501-0.76261-0.052-2.776-2.3484-6.0352-0.3751 0.38146-1.7345 0.26928-4.1351-0.34129l-1.1586-1.1394c-0.6356-0.62507-1.4111-2.1226-2.3136-4.5108-0.8899-0.87506-4.0349-2.4985-9.4761-4.849l0.3725-0.37881-2.2886-1.5057-1.8938-1.8626c-0.3814-0.37504-0.2874-1.2623 0.3314-2.6545l-3.0175-1.4776-0.745 0.75757 1.8937 1.8626-0.3943 0.40095c-0.3126 0.31796-1.425 0.20374-3.3838-0.34753l-0.7799-0.76691 1.4901-1.5151c-0.6992-0.68752-1.8157-1.2957-3.3965-1.85l-0.3724 0.37873c-0.3751 0.38149-0.2444 1.2448 0.3974 2.6264-2.7038 0.84214-4.4767 0.85685-5.3031 0.0441l-0.3849-1.1238 2.2632-1.5436-0.7575-0.74503c-1.1379-0.3687-1.9007-0.34023-2.2758 0.041l-0.3662 1.13c-0.3179-0.31242-1.079-0.0812-2.2699 0.74813l-0.385-1.1238-0.7575-0.74504c-6.181-0.32665-12.501 0.73596-18.911 3.1848-0.5001 0.50862-0.839 1.6449-1.0765 3.412-0.2501 0.25439-0.5189 0.27871-0.7732 0.0285-3.8239 2.6167-7.0861 4.3948-9.7889 5.3628-4.7637 3.318-8.2832 3.8633-10.572 1.6127-1.3784 1.0203-3.0248 1.4044-4.9181 1.1679l-0.7263 3.0113-1.9033-0.33771-0.3692-1.8974-0.7799-0.7669c-7.4926 1.1341-12.922 0.0458-16.291-3.2675l-0.7575-0.74503c-1.2712-1.2502-2.5426-2.9906-3.8224-5.2496-0.6356-0.62499-1.5431-0.49394-2.6705 0.39792l-1.4994-2.2636c1.6786-2.8508 1.6597-5.1177-0.057-6.8057l1.49-1.515 0.3788 0.37249 0.3913 1.8751 1.13 0.3663c2.2339-4.3054 3.1226-6.7034 2.614-7.2036l-0.3788-0.3725c-0.4449-0.4375-1.4749-0.18189-3.0431 0.77665-3.301-2.7463-5.3291-3.7173-6.0794-2.9547-0.2541-0.24996-0.4833-0.76413-0.7414-1.5189l-0.4011-0.39442-0.3945 0.40114zm9.7731-9.937c-0.4376 0.44514-0.4331 0.98327 0.013 1.5468l1.515 1.4901 0.3725-0.37873 0.3757-2.6549c1.1316-0.38754 1.8725-0.39372 2.2538-0.0187l0.3787 0.37254c0.2034 1.7006 1.6237 3.8323 4.2298 6.3953 0.5085 0.50025 1.0024 0.49615 1.5025-0.0125l1.1176-1.1364 2.2507-3.0461c0.2543 0.25022 0.5012 0.24818 0.7513-6e-3l1.5373 1.512c11.904-1.2967 18.583-1.2288 20.044 0.20892l1.5058-2.2887c1.1315-0.38748 1.8724-0.39362 2.2537-0.0187l0.7575 0.74503c0.5085 0.50028 0.3903 1.1187-0.3599 1.8813l0.7798 0.76696 0.7449-0.75747 0.7576 0.74504c1.9684 1.6859 3.625 2.5366 4.9493 2.5885 3.0511 3.0007 6.5772 3.2405 10.591 0.68525l0.7575 0.74503-1.49 1.515-1.8971 0.41357-0.3725 0.37876 0.3788 0.37254c1.6421 0.36474 3.1417-0.16381 4.5171-1.5624l0.3725-0.37874c0.6877-0.69907 1.1953-1.7133 1.4994-3.0399-0.4449-0.43746-0.9389-0.43332-1.5026 0.0126-0.6429-1.5076-0.9067-3.5254-0.8016-6.0482l-20.208-19.875-2.6767-0.35343-0.3788-0.3725-0.3756-2.6486-1.9161-1.8845c-3.3052-3.2506-6.4594-3.3257-9.4601-0.27496l-0.3725 0.3788c0.1129 5.9883-0.01 9.1429-0.3191 9.4605-1.3128 1.335-2.6858 2.233-4.1321 2.6862l-0.3662 1.13c-0.7628-0.74999-3.0234 0.01-6.787 2.3104l-0.3725 0.37881 0.3788 0.37249 2.6549 0.37564 0.3787 0.37254c-0.25 0.25438-0.4928 0.75037-0.7388 1.5088-0.4375 0.44502-1.4452 0.72249-3.0207 0.79845l-1.8626 1.8938c-0.2542-0.24988-0.5275-0.76372-0.7856-1.5184-1.9006-1.1188-3.4043-1.0842-4.5297 0.0599-0.4375 0.44508-0.4334 0.93902 0.013 1.5025l-2.6706 0.39791-2.235 2.2725zm175.15-178.08c-0.25 0.25439 0.032 1.756 0.8111 4.5232l4.5897 4.514c2.209 0.29702 3.4438 0.28674 3.7563-0.0312l0.767-0.77983c0.5001-0.50832 0.496-1.0023-0.013-1.5025l13.226-1.237c5.7849-1.8132 8.8084-2.6014 9.0627-2.3515l0.3756 2.6486 0.7798 0.76691c2.5257 0.48351 4.9212 1.0811 7.1969 1.8185 3.2697-1.0358 5.9279-1.2034 7.9513-0.46389l0.7576 0.74504c-0.4377 0.4451-0.8005 1.3567-1.1047 2.683 6.5896 3.9801 10.128 5.7016 10.628 5.193l0.3662-1.13c1.1442 1.1254 2.7947 1.2351 4.9307 0.33461 1.2418-2.2797 0.978-4.2975-0.8017-6.0481 0.9377-0.95324 1.6744-1.4533 2.2413-1.5213l-0.3851-1.1237-14.883-14.638c-1.8922-0.11023-4.1454-1.1015-6.8087-2.9708 0.1166-1.1356 0.4575-2.0249 1.0827-2.6607l-9.536-9.3785-4.1444 1.1835-1.9162-1.8844c-0.25 0.25438-0.7418 0.50549-1.4963 0.76371l-0.3314 2.6545-0.3945 0.40106c-0.7626-0.75003-1.4034-0.89028-1.9035-0.38195l-0.7451 0.75753c-0.4376 0.44515-0.4334 0.93902 0.013 1.5025l0.7797 0.76695c0.5085 0.5003 1.125 0.37166 1.8751-0.39124l0.3787 0.37255c-0.354 2.903-0.8332 4.6801-1.4584 5.3155l-0.3725 0.37881c-1.3983-1.3752-9.8403 2.3426-25.276 11.171zm-186.92 191.62c0.043-0.0674 0.1128-0.11465 0.1753-0.17827l0.3726-0.3788c0.5001-0.50832 0.994-0.51242 1.5025-0.0124l0.7575 0.74504c0.5086 0.50023 0.5124 0.99432 0.012 1.5025l-0.745 0.75756c-0.2542-0.24996-0.7721-0.47051-1.5307-0.71653-0.6674-0.65624-0.8441-1.2476-0.5447-1.7191zm55.692-55.111c-0.5 0.50859-0.2469 1.2475 0.7701 2.2475l-1.897 0.41352-0.7451 0.75762 1.9161 1.8845-3.3744 3.4311c-0.2543-0.24989-0.5276-0.76372-0.7857-1.5184-0.7626-0.75006-1.3811-0.86838-1.8813-0.36003l-0.3725 0.37881c-2.0003 2.034-1.8569 4.4234 0.4354 7.1781l2.2886 1.5058 0.745-0.7575c-0.572-0.56252-1.2147-0.94979-1.9099-1.1332l-0.3849-1.1238c6.2214-2.3842 10.01-2.9097 11.345-1.597l0.3726-0.37881 0.344-1.152c0.2543 0.25014 0.7725 0.51495 1.531 0.76071l0.8048 3.7721 4.1887 4.1195 0.3725-0.37876 0.36-1.8813c0.4377-0.44484 1.4496-0.22843 3.0333 0.704 0.2543 0.25013 0.5276 0.76394 0.7856 1.5184l2.2663 1.4838c1.659 2.3819 1.9207 4.1528 0.7954 5.2968 2.2925 2.7549 4.0822 4.7601 5.3534 6.0103l0.7575 0.74503c1.0171 1.0003 2.158 1.8773 3.425 2.6232 0.7038 1.1919 1.5993 2.3182 2.6798 3.3808l10.293 10.124c1.2714 1.2503 3.0327 2.4927 5.3125 3.7345l0.4136 1.897 22.882 22.504c6.5387 5.4303 11.244 8.5448 14.088 9.3407l0.3379-1.9033 0.7449-0.75741 0.7798 0.7669 0.3851 1.1238-1.1238 0.385-0.3726 0.37881 0.7575 0.74503c4.4254 1.4762 10.61 1.5482 18.542 0.22141 3.2633-1.7923 5.1323-2.4474 5.6409-1.9474 6.1619-1.9425 13.443-6.2681 21.835-13.02-0.445-0.43755-0.2066-1.4717 0.7259-3.0555l3.0211-0.75432 3.769-3.8322c0.5001-0.50852 0.496-1.0025-0.012-1.5026l-3.0524-3.002c-1.7798-1.7503-3.4389-2.8921-4.9561-3.3838 0.3126-0.31779 0.059-1.0566-0.7699-2.2477l-1.1239 0.38512-3.7689 3.8322-1.1586-1.1394c-5.2379-0.64987-9.0213-2.1224-11.373-4.4355l-0.3726 0.37881-0.3599 1.8812-0.7451 0.75762-3.068-2.2285-0.7575-0.74503 0.3944-0.40099-1.1836-4.1446c-0.445-0.43755-1.7082-1.1901-3.7974-2.2445l-0.3975-2.6263-8.3996-8.261-3.772 0.80476-2.2949-2.257 0.3944-0.40099 2.2413-1.5213-4.5674-4.4921-3.3999 0.38185-2.6513-2.6076c-0.4449-0.43752-0.4716-0.9532-0.035-1.5245 0.7627 0.75031 1.4034 0.89055 1.9034 0.38203l0.3726-0.37881-25.176-24.761-0.745 0.75749c0.7627 0.75034 1.5342 1.7539 2.3011 3.0082-0.5626 0.57222-2.611-0.17381-6.0955-2.2253-1.7161-1.6878-2.1065-4.0751-1.1866-7.172l-10.293-10.124c-0.4449-0.43745-0.9388-0.43337-1.5026 0.0125-1.3589-4.2124-1.4041-6.9951-0.091-8.3301-0.4586-2.0764-0.3244-3.4581 0.3632-4.1575l-0.7576-0.74499c-6.9384-0.44648-10.731-0.41493-11.358 0.0945l-9.3784 9.5358-1.4839 2.2664c-0.2542-0.24996-0.768 0.0234-1.5182 0.78606l-1.8626 1.8938c-0.5625 0.57219-0.9497 1.215-1.1331 1.9098 0.144 2.1424-0.09 3.6705-0.7134 4.5581l-1.8974 0.36939-2.257 2.2948c-0.3687 1.1379-0.3403 1.9008 0.041 2.2757l-1.49 1.515c-2.5299-0.98751-3.9355-1.3463-4.1857-1.0921l-4.1195 4.1886zm58.879-59.867c-0.25 0.25443-0.2479 0.50134 0.01 0.75123-0.1052 2.5228-0.9592 6.4245-2.5542 11.733l0.7798 0.76696c1.7047 0.30118 4.2145-0.21367 7.5445-1.5655l2.2284-3.068 4.1731-0.41035c0.5085 0.50029 0.3682 1.141-0.3819 1.9036-0.2501 0.25442-0.1012 0.64572 0.4073 1.1457 3.7166-0.34594 5.8611-0.24036 6.4331 0.32215 4.2294 0.65843 6.6249 1.256 7.1969 1.8184l2.6736 2.6295-1.1174 1.1362-1.1458 0.40733 0.385 1.1238 1.5151 1.49 1.5057-2.2885c0.5002-0.50842 1.0162-0.49053 1.5249 9e-3l1.1363 1.1175 1.5212 2.2414-0.3725 0.3788-2.2633 1.5435 12.967 12.753 3.428 0.34719v3.0273l9.5359 9.3786c4.4835 0.90853 7.1502 1.7729 7.9767 2.5854l0.3787 0.37254c1.7161 1.6881 2.229 3.9508 1.5592 6.7932l8.3996 8.261c3.4959 3.4385 6.0611 6.9412 7.6671 10.521l1.1237-0.38493 1.5058-2.2887 1.13 0.3663c0.1438 2.1424 0.2769 3.2969 0.4042 3.4218l-3.0212 0.75439c0.9628 2.0725 1.2204 3.3495 0.7828 3.7944l2.2886 1.5057c2.5094 6.0943 2.4226 10.506-0.2655 13.239-0.4377 0.44502-0.9538 0.42718-1.5248-9e-3 -1.6869 1.8424-2.2947 3.003-1.8497 3.4406-2.5006 2.5426-2.751 4.7896-0.7169 6.79l-0.3725 0.37873-0.7575-0.74503-0.7451 0.75754 5.3473 5.259c0.5083 0.50024 1.2472 0.24706 2.2475-0.77l1.1363 1.1175 0.4072 1.1458 1.1176-1.1363c0.5-0.5084 0.4956-1.0466-0.013-1.5468l-0.3788-0.37249-1.1301-0.36623 1.487-4.5425c1.5671-1.0847 2.4263-1.7093 2.6138-1.9 0.2501-0.25423 0.5148-0.77247 0.7607-1.531 0.2543 0.25004 0.7502 0.49292 1.5088 0.73872l1.7806-11.749-1.8937-1.8626c0.5625-0.57198 1.1768-0.94754 1.8687-1.1425 0.5001-0.50844 0.496-1.0024-0.013-1.5026l-0.3788-0.37249-1.1522-0.38822c1.8129-1.8432 1.5566-5.6121-0.8234-11.329-0.763-0.74997-1.7731-0.76372-3.0274 3e-3l-0.3788-0.37249c2.0003-2.0339 1.7126-4.2764-0.8298-6.7772l-0.3788-0.37249-0.745 0.75756-0.7799-0.76691 0.3726-0.3788c1.0001-1.0169-1.3964-4.3975-7.2441-10.149-0.7629-0.75-2.1705-1.3558-4.1919-1.8434-0.5085-0.49997-0.3683-1.1407 0.382-1.9036l-8.3996-8.261c-1.5004 1.5256-2.6306 1.9276-3.3934 1.1774l-1.1585-1.1394 0.3725-0.37873 2.2633-1.5437-10.672-10.496c-2.0682 1.4673-4.0903 1.2372-6.0606-0.70092l-0.3913-1.875 2.6483-0.41984 0.3724-0.37875-6.8622-6.7491-2.6768-0.35343-0.3755-2.6486-10.672-10.496c-4.6402-4.5633-7.0997-10.211-7.345-16.954 1.8991-6.6351 1.988-10.8 0.2718-12.488-2.034-2.0002-4.6704-1.8548-7.9295 0.44162l-1.4901 1.5151-0.3881 1.1523c0.2543 0.25023 0.7503 0.49305 1.5088 0.73877 0.7628 0.75034 0.9136 1.3887 0.4135 1.897l-0.3724 0.37868c-0.3126 0.31801-2.0856 0.33279-5.3031 0.0441l-5.2372 5.325c1.0922 2.4497 1.2293 4.0982 0.4166 4.9244-0.2542-0.24988-0.8929-0.14321-1.8973 0.36932l-4.5233 0.81103-1.8845 1.9161zm101.66-102.61c0.572 0.56284 0.9476 1.1771 1.1424 1.8689l1.1462-0.36319 0.3439-1.1519-1.8876-1.1113-0.7449 0.75748zm-144.02 147.2c1.5671-1.0847 2.4263-1.7092 2.6138-1.9001 0.7087 1.8225 0.7413 3.0792 0.053 3.7783-0.2499 0.25436-0.7638 0.52774-1.5182 0.78607-0.4448-0.43751-0.823-1.3429-1.1491-2.6643zm-60.512 92.055c1.1316-0.38756 1.8724-0.39369 2.2538-0.0187l2.2948 2.257-0.7449 0.75747-3.4188-1.8719-0.3849-1.1238zm124.17-122.46 1.1586 1.1394 0.745-0.75754-1.1585-1.1394-0.7451 0.75754zm53.269-54.163 0.3725-0.37876 1.9161 1.8844-1.1238 0.38505c-0.1948-0.69176-0.5927-1.328-1.1648-1.8907zm80.266-81.612 0.3725-0.37873 1.9161 1.8845-1.1237 0.38493c-0.1949-0.69169-0.5927-1.328-1.1649-1.8907zm-231.97 307.56 0.7451-0.75754 1.5372 1.512-0.7449 0.75749-1.5374-1.5119zm6.5842 18.485c-0.5 0.50851-0.3492 1.1468 0.4136 1.8969-1.3128 1.3348-1.6634 3.7284-1.0672 7.1907 0.5721 0.56267 1.1926 0.92802 1.8876 1.1113 0.1948 0.69197 0.5927 1.3282 1.1647 1.8908l11.051 10.869 1.1301 0.36623c0.5001-0.50844 0.4959-1.0023-0.013-1.5025l-0.7576-0.74499-1.1523-0.38822c0.2501-0.25421 0.1235-0.62364-0.385-1.1238l0.3726-0.37881c0.5-0.50844 1.0158-0.53479 1.5243-0.0347l5.3473 5.259-0.7196 3.8068 6.4835 6.3766c4.3222 4.251 7.7299 5.1092 10.23 2.5667l0.7451-0.75761c0.5001-0.50847 0.842-3.9339 1.0417-10.24-0.5085-0.5001-1.1248-0.37151-1.875 0.39127l-0.7575-0.74504c-0.3877-1.1316-0.4161-1.8944-0.041-2.2758l3.002-3.0523c1.638-0.13974 3.2824-0.77092 4.9119-1.9193l1.5213 2.2414c1.6527 1.6253 7.5649-1.3083 17.715-8.8318 0.7501-0.7627 0.8686-1.3812 0.36-1.8813-2.3308 0.20855-3.5879 0.19691-3.7785 9e-3l-0.7576-0.74498c1.2502-1.2712 1.6135-2.1387 1.105-2.6388l-3.4534-3.3965-1.13-0.3663c-3.5759 2.1102-7.5812 3.6476-12.049 4.6303l-0.3472 3.4281c-3.5864 0.84938-6.8655 0.60758-9.8394-0.69158 0.1834-0.69494 0.6712-1.44 1.4839-2.2663l-0.7576-0.74503-1.1175 1.1363c-3.4456 2.6134-6.124 3.0062-7.9674 1.1933l0.3757-2.6549c-3.9887-2.0472-6.2618-2.7693-6.8244-2.1972-0.5 0.5085-0.3714 1.1249 0.3913 1.8751l-0.3725 0.37873-3.0462-2.2507 0.7451-0.75754c-7.8567-4.7258-12.16-6.7101-12.91-5.9474l-1.8845 1.9161zm240.92-232.75c0.6503 2.3903 0.418 4.1654-0.7071 5.3094 2.6312 5.589 4.2995 10.502 5.0281 14.72 0.5085 0.5002 1.0243 0.47385 1.5245-0.0348 2.4153 2.3756 3.2015 5.1522 2.3452 8.3114l-1.1395 1.1586-2.6486 0.37558c-0.1876 0.19073-0.5381 2.5842-1.0672 7.1907-0.2543-0.24999-0.5232-0.22562-0.7732 0.0285l-0.3724 0.37874c1.4108 2.8884 1.2133 6.167-0.6475 9.839 0.7107 2.0746 0.7275 4.0945 0.05 6.0543 0.6069 0.19677 1.0705 0.26983 1.4605 0.25306 3.2243-14.772 5.9429-27.93 8.2001-39.623-1.1961-2.4601-1.5174-5.5028-0.9818-9.1183 0.2542 0.25019 0.5011 0.24814 0.7512-6e-3l1.1176-1.1363-3.4597-4.1477c-2.5426-2.5005-5.4258-2.353-8.6807 0.44782zm2.7177 7.9326 0.7451-0.75754 1.8938 1.8626c0.3876 1.1316 0.416 1.8945 0.041 2.2757-1.1316 0.38778-1.8948 0.37204-2.2761-3e-3 -0.5836-1.9494-0.7164-3.0597-0.4038-3.3776zm-234.8 241.01c1.1316-0.3877 1.9167-0.39417 2.2981-0.0192 0.5085 0.50014 0.4904 1.0165-0.01 1.5248l-0.3725 0.3788-1.9161-1.8845zm237.48-236.88 0.3725-0.37881 1.5213 2.2414-0.7451 0.75754-1.1363-1.1175c-0.4449-0.43752-0.4494-0.93128-0.012-1.5026zm-163.86 174.99c-0.3751 0.38145-0.2221 1.2667 0.4198 2.6482l0.3788 0.3725 0.7451-0.75754c-0.3815-0.37501-0.6571-1.1357-0.7923-2.2695l-0.3788-0.37249-0.3726 0.37881zm51.495-41.663 1.1237-0.38493c0.5085 0.50013 0.5124 0.99422 0.013 1.5025l-1.1363-1.1175zm103.69-81.807-0.344 1.152 1.1301 0.36623 0.3882-1.1523-1.1743-0.3659z" fill="#f00"/>
  <path d="m686.9 460.99c-1.46 5.0158-1.7235 10.32-1.9238 15.517-0.01 4.584 0.3725 9.1546 0.6491 13.727 0.2218 3.4189 0.4298 6.8431 0.4145 10.27-0.07 3.226 0.2344 6.4803-0.2014 9.6879-0.6911 2.5386-2.0045 4.8537-2.9774 7.2988-1.2065 2.7256-1.9379 5.6047-3.1364 8.3312-0.9424 2.5823-2.7205 4.5193-4.4896 6.5495-1.9936 2.0042-4.3595 3.5521-6.4669 5.4336-2.3073 2.045-3.8059 4.76-5.8093 7.0618-1.8682 1.8099-3.183 4.1086-4.9951 5.9555 1.3393-0.9047 2.1046-0.452 0.3224-1.6937-3.2109-2.492-5.344-6.2444-7.6596-9.5414-4.1326-6.3199-8.4797-12.478-13.075-18.47-5.0382-6.2169-10.065-12.428-14.921-18.786-3.0083-4.0177-7.6709-5.8186-11.639-8.5568-1.4029-1.2071-2.27-3.1491-3.0562-4.8572 0.326-0.709-4.08-4.8378-3.8751-5.1337 0.1553-0.2244 0.6534 0.135 0.7133 0.4013 0.404 1.7946 0.4079 3.6562 0.6118 5.4843-0.1743 0.3924-0.7473 0.8112-0.5229 1.1773 0.1849 0.3017 0.6214-0.3406 0.9137-0.5398 0.6705-0.4567 1.3166-0.9485 1.9722-1.4262 2.9605-2.1574 5.5826-4.4627 8.2134-7.0143 5.9027-5.6555 10.749-12.231 15.24-19.026 3.1552-4.7504 5.3393-10.028 7.3349-15.343 2.295-5.8205 3.2797-12.004 4.3876-18.126 0.7459-4.5301 0.8001-9.1294 1.1135-13.701 0.299-0.91763-12.678-5.1464-12.978-4.2287-0.695 4.261-1.0021 8.5588-1.4769 12.845-0.9927 5.4806-1.7927 11.018-3.2982 16.386-1.5763 4.4294-3.1469 8.9179-6.033 12.705-4.2199 6.1028-8.7724 11.977-13.825 17.419-2.089 2.3354-4.1954 4.4605-6.5671 6.5078-0.3702 0.3196-3.9707 3.3907-4.1075 3.5439-0.9056 1.0132-1.6165 2.1849-2.4247 3.2774 0.055 2.3923-0.2163 4.8144 0.164 7.1768 0.3588 2.228 3.5375 4.3015 4.2663 6.5778 1.9591 3.0596 4.0262 6.0276 7.1319 8.0523 2.8863 1.9556 6.0632 3.5183 7.7886 6.719 4.4844 6.9147 9.757 13.193 14.997 19.541 4.5991 5.872 8.9144 11.938 13.233 18.017 3.5166 4.4157 7.1484 8.9422 12.35 11.443 4.3776 2.0962 8.9454 2.768 13.095-0.3508 2.1781-1.9758 3.9064-4.2314 5.7861-6.4824 1.8326-2.017 3.3509-4.1975 4.9963-6.3561 2.2892-2.2646 5.1718-3.8153 7.3732-6.1904 2.4929-2.8299 5.2253-5.4933 6.6953-9.0471 1.3542-2.8997 2.2391-5.8393 3.2899-8.8188 0.4636-1.1308 0.791-2.4102 1.313-3.5086 0.836-1.7591 2.0184-3.3687 2.5159-5.2886 1.1519-4.0027 1.4581-8.105 1.1605-12.261-0.057-3.6723-0.2177-7.3269-0.233-10.997-0.3488-4.1815-0.2578-8.3853-0.6595-12.567 0.054-4.5093 0.7546-8.9794 0.6342-13.498 0.3745-0.8717-11.953-6.1675-12.327-5.2958z" color="#000000" opacity=".98598"/>
  <path d="m677.4 406.53c3.9033 0.96029 8.0094 1.0032 11.698 2.7132 0.2995 0.23236 0.6194 0.44066 0.8986 0.69709 1.0878 0.99905 0.4871 0.69282 1.5481 1.8277 1.1416 1.2211 2.5419 2.0789 3.6902 3.2852 0.4051 0.32674 0.7893 0.68111 1.2152 0.98024 1.3878 0.97467 1.4785 0.79252 2.6481 1.7527 1.0564 0.86724 1.8902 1.904 2.9583 2.7811 2.0767 2.3968 4.8498 4.2676 6.6833 6.8542 2.098 2.4804 4.721 4.3497 7.4072 6.1254 2.4142 2.1025 5.1253 3.7018 8.0959 4.8854 1.4447 0.9174 4.382 2.4691 5.086 4.0256 1.8926 2.1306 4.0064 4.0227 5.9565 6.1044 1.2784 2.1897-0.019-0.1213-1.1089-1.2192-0.3472-0.3497 0.5123 0.842 0.7767 1.2579 0.5518 0.8679 0.9896 1.7638 1.4426 2.6877 1.0958 2.734 1.8615 5.5847 3.0373 8.2868 0.6932 1.3748 0.7475 1.6398 0.046 3.227-1.2596 2.633-3.078 4.9388-4.564 7.4439-1.7329 2.84-3.5002 5.6379-4.8665 8.6766-1.3437 2.6066-2.3346 5.3453-3.1558 8.1535-0.5484 1.1025-0.7607 2.7101-1.8442 3.3204-1.3683 0.073 0.7257-0.6864 0.2877-1.2938-0.2404-0.3334-0.6389-0.5172-0.9584-0.7758-2.3335-2.5869-4.4907-5.2217-7.094-7.557-3.463-3.1645-7.1112-6.1168-10.515-9.3467-3.2707-3.3467-7.1662-4.2073-11.274-5.8312-0.8245-0.7855-1.9986-1.0221-2.7651-1.8881-0.1399-0.158-0.134-0.4102-0.267-0.5739-1.2669-1.5602-0.6742-0.2322-1.1375-1.4681-0.5156-0.3883-1.0313-0.7766-1.5469-1.1649-0.8227-0.4669-7.4263 11.168-6.6036 11.635l0.087 0.3222c2.7752 2.803 5.8405 5.1395 9.6231 6.4378 2.7566 0.9692 4.9117 2.4638 6.8955 4.6649 3.458 3.1238 7.1149 6.0136 10.566 9.144 2.8582 2.8285 5.2888 6.1423 8.8291 8.2113 4.9515 2.9356 9.4561 3.2993 14.293-0.1039 2.4467-2.1491 4.3134-4.5956 5.4452-7.6758 1.1412-2.6 1.6525-5.4403 3.1381-7.9106 1.0043-2.6845 2.7741-4.9668 4.1783-7.4475 1.6093-2.9147 3.8485-5.4624 5.1618-8.5497 1.6741-3.8252 2.7382-7.9126 1.3235-12.014-1.0185-2.6909-2.0555-5.3675-2.9996-8.0978-1.5134-4.4976-3.8892-8.7814-7.2788-12.154-2.0074-1.8687-3.9448-3.8012-5.821-5.8025-2.7549-2.3771-5.6697-4.536-9.0995-5.8586-2.0858-1.1141-3.9182-2.6348-5.8457-3.9933-1.8541-1.5522-3.6799-3.0591-5.1054-5.0566-2.6041-2.6634-5.2387-5.3137-8.1173-7.6838-2.0214-1.8115-4.3795-3.1754-6.2416-5.1461-3.1928-2.9159-6.1157-6.1999-10.32-7.6972-4.6426-1.5905-9.4388-2.5763-14.364-2.6666-0.9529-9e-3 -1.0754 13.467-0.1225 13.476z" color="#000000" opacity=".98598"/>
  <path d="m746.86 479.93c4.7148 7.2528 11.758 12.152 18.677 17.088 3.9782 2.6684 8.3227 4.9515 11.882 8.1917 0.5488 0.9883 1.6695 1.4176 2.3545 2.2638 0.1626 0.2009 0.3731 0.9375 0.1948 0.7504-2.5298-2.6514-1.723-3.6172-1.5292-0.3816-0.5671 6.4013-0.6765 12.767-0.1981 19.174 1.0461 8.3091 2.8769 16.494 4.5478 24.694 2.0125 9.5148 4.8555 18.823 8.0857 27.988 3.0225 8.5462 5.3008 17.323 8.3112 25.873 1.1221 3.1006 2.388 6.1452 3.5836 9.2172 0.1519 0.9594 13.719-1.1901 13.567-2.1496-1.0563-2.8807-1.8603-5.8546-2.6985-8.8047-2.6569-8.7703-4.5126-17.781-7.7702-26.367-3.2558-8.536-5.9577-17.266-8.1494-26.137-1.6617-7.794-3.5295-15.55-4.9081-23.4-0.817-6.1791-0.9339-12.368-0.5503-18.59-0.063-1.5394-0.058-4.7406-0.6792-6.1989-1.8028-4.2309-4.3078-7.1927-7.7024-10.05-3.9977-3.2648-8.128-6.3584-12.308-9.3852-2.907-2.1719-5.8661-4.3062-8.6933-6.5819-0.8263-0.665-1.6248-1.3642-2.4217-2.0643-0.6276-0.5512-1.0549-1.4367-1.8512-1.6889-0.4707-0.1496 0.4522 0.8781 0.6782 1.3172-0.3706-0.8783-12.793 4.3635-12.422 5.2419z" color="#000000" opacity=".98598"/>
  <path d="m612.61 516.52c-5.7637-6.7178-11.528-13.45-17.286-20.181-8.1179-9.7627-16.698-19.125-25.097-28.645-9.9728-11.28-21.058-21.517-32.299-31.51-11.576-9.8027-22.651-20.138-33.38-30.854-7.0223-6.6305-13.67-13.68-20.807-20.189-3.4743-3.1685-7.1185-6.0559-10.761-9.0222-7.666-6.2108-16.357-10.845-25.039-15.422-2.5213-1.2378-4.5657-3.1244-6.9353-4.5793-0.8674-0.3849-6.3109 11.882-5.4435 12.267 2.3016 2.1932 4.9031 4.024 7.5396 5.7911 7.693 5.049 15.492 10.006 22.43 16.087 10.52 9.2123 20.465 19.036 30.444 28.827 10.905 10.997 22.056 21.734 33.883 31.748 10.85 9.5074 21.772 19.03 31.328 29.872 8.4202 9.4969 16.804 19.026 25.218 28.529 6.1847 6.702 12.296 13.722 19.7 19.104 0.8361 0.46 7.3417-11.364 6.5056-11.824z" color="#000000" opacity=".98598"/>
  <path d="m425.29 361.21c4.4078-3.8471 8.0692-8.4455 11.584-13.096 3.4519-4.8571 5.3923-10.528 7.0456-16.196 1.5881-4.9237 2.9352-9.8952 3.844-14.989 0.5751-3.6886 1.071-7.3939 1.2855-11.122 0.1324-3.9963-2.0286-7.1527-3.8044-10.506-1.5846-3.4572-4.0613-6.3395-6.458-9.2408-0.2823-0.34175-1.07-1.4082-0.7604-1.0909 0.4485 0.45968 0.7875 1.0148 1.1813 1.5222-2.7524-3.7447-5.0519-8.4834-9.8514-9.8697-1.0752-0.31054-2.2148-0.32318-3.3222-0.48471-5.4727 0.27947-9.6625 3.5359-13.786 6.7873-3.5555 2.6657-6.2613 6.2265-9.299 9.4276-3.1708 3.4066-6.5803 6.5787-9.6442 10.083-2.9513 3.7023-6.0616 7.2708-9.1114 10.892-2.7505 3.342-6.1593 6.0126-8.9878 9.2767-2.2606 2.5864-3.8128 5.6624-5.6712 8.5312-1.5906 2.8384-3.3911 5.5507-4.9354 8.4139-1.6738 2.8495-4.0747 7.5919-2.1622 10.861 1.1066 1.8914 2.9099 3.2771 4.365 4.9156 2.7427 1.2651 4.5938 3.5835 6.4701 5.8569 2.2767 3.1486 5.487 5.3795 8.2694 8.0308 1.1517 1.1687 2.1972 2.4352 3.2158 3.7195 0.3715 0.46838 1.5171 1.8452 1.1019 1.4151-0.4807-0.4979-0.7006-1.2721-1.2991-1.6195-0.5296-0.30731 0.7165 0.99286 1.0748 1.4893 1.2517 3.5391 4.6847 4.4201 6.8645 6.9249 0.8183 0.48472 7.6735-11.089 6.8552-11.574-0.8901-0.75722-4.8161-4.5731-1.0332-0.39151-3.0413-4.2079-5.9859-8.4759-9.9913-11.846-2.6661-2.362-5.1261-4.8914-7.4209-7.6204-2.5565-2.5299-5.2794-4.7929-8.4942-6.4468 0.9505 1.261 2.1983 2.3452 2.8514 3.7829 0.6689 1.4723-1.7958 4.3954 0.017 1.1377 0.2856-0.51343 0.5862-1.0183 0.8794-1.5275 1.2873-2.6063 3.0444-4.9474 4.3676-7.5368 1.5434-2.408 2.8614-4.9648 4.6859-7.1632 2.9234-3.2712 6.7165-5.7066 9.4026-9.2258 2.9676-3.5437 5.8794-7.1365 8.7837-10.732 3.0441-3.3403 6.3182-6.459 9.3227-9.8356 2.6965-2.8134 5.0013-6.0142 8.1152-8.3894 1.3553-1.0958 2.702-2.204 4.1249-3.2124 0.2877-0.20386 0.5879-0.38957 0.8783-0.58944 0.1185-0.0816 0.3291-0.11214 0.3485-0.25473 0.014-0.1031-0.203-0.0459-0.3045-0.0688-0.2291-0.0425-0.8061-0.21833-0.699-0.0113 0.1384 0.2675 0.721 0.9648 0.5498 0.71701-3.064-4.4347 0.2868 0.53544 0.8026 1.1778 4.7482 6.3955 1.5312 2.2215 4.3526 5.6846 0.2964 0.36376 1.0786 1.5255 0.8746 1.1029-0.3307-0.68482-0.8621-1.2538-1.2603-1.9018-0.5288-0.86054 2.2044 3.265 1.6692 2.529 0.6671 1.1885 1.702 3.6842 2.7028 4.5776 0.1035 0.0924 0.2774-9e-3 0.416-0.0132 0.1174 0.13679 0.2348 0.27359 0.3521 0.41039 0.6146 2.8208-1.0424 5.9812-1.169 8.8042-0.9851 4.7584-2.0285 9.5105-3.7041 14.084-1.0609 4.265-2.302 8.5574-4.8211 12.216-3.3863 4.4048-7.1604 8.4953-10.497 12.943-0.6535 0.69538 9.1807 9.9369 9.8342 9.2416z" color="#000000" opacity=".98598"/>
  <path d="m406.01 404.7c3.2713 3.6542 6.6362 7.2181 9.8076 10.962 4.2491 5.0018 8.9673 9.5558 13.269 14.519 6.3642 8.0664 13.607 15.351 21.448 21.97 5.4081 4.4845 10.416 9.4114 15.71 14.021 5.6908 5.6232 11.554 11.045 17.562 16.325 6.3032 5.6255 12.714 11.128 18.92 16.865 4.1742 4.0561 7.7874 8.5543 12.219 12.343 5.366 4.8585 11.316 9.0094 17.259 13.12 4.0078 2.8842 8.1581 5.6774 11.764 9.0676 2.6514 2.9323 5.183 5.9893 8.1058 8.6582 2.8998 2.787 5.7228 5.6616 8.4782 8.5936 3.3758 2.9798 6.1373 6.5652 9.392 9.654 2.4852 2.7148 5.7977 4.4223 8.4957 6.8782 2.3173 2.4294 4.2754 5.1727 6.2757 7.8613 2.4945 2.9599 5.689 5.1453 8.3416 7.9433 2.4528 2.7975 5.3656 5.201 8.4502 7.2731 2.4723 1.8333 4.5771 4.0445 7.1645 5.7134 2.1794 1.4323 4.7466 1.6591 7.1835 2.3099 0.7083 0.1889 1.3606 0.5473 2.0515 0.7923 3.0141 1.0324 6.1539 1.5892 9.2941 2.0696 3.1353 0.415 6.232 1.0161 9.3955 0.835 0.5323-0.064 1.0647-0.1289 1.5971-0.1934 0.9327-0.1746-1.5373-13.366-2.4701-13.191-0.2601 0.012-0.5202 0.024-0.7803 0.037-2.4316-0.3741-4.8871-0.5899-7.3115-1.0155-2.558-0.4489-5.0892-1.021-7.541-1.8927-1.951-0.5975-4.2058-0.7417-5.8501-2.0225-2.2188-2.1229-4.5864-4.0773-7.0999-5.8458-2.4645-2.0495-4.7683-4.2502-6.9752-6.5766-2.4377-2.2382-5.0399-4.3256-6.9213-7.0904-2.5929-3.29-5.264-6.5588-8.59-9.1466-2.5734-1.9552-5.1717-3.877-7.2655-6.3722-2.9522-3.397-6.0858-6.6188-9.354-9.7133-2.8952-2.9106-5.8414-5.77-8.7443-8.6729-2.7625-3.021-5.5614-6.0186-8.4921-8.8763-4.0855-3.6514-8.2521-7.2264-12.784-10.321-5.5299-4.0057-11.021-8.067-16.252-12.462-4.2262-3.7472-7.604-8.2601-11.539-12.298-6.1521-6.1231-12.794-11.697-19.268-17.472-5.9751-5.1618-11.849-10.44-17.718-15.722-5.1984-4.7798-10.213-9.7545-15.407-14.539-7.1712-6.848-13.761-14.232-20.536-21.464-4.4948-4.3796-9.4598-8.3258-13.268-13.352-3.4954-4.1159-7.1181-8.207-11.511-11.394-0.836-0.46002-7.3416 11.363-6.5055 11.824z" color="#000000" opacity=".98598"/>
  <path d="m568.43 559.58c-0.5564 5.8253 0.3036 11.653 1.3771 17.367 1.3843 5.4456 1.2487 10.969 0.8497 16.522-0.6066 8.85-1.8232 17.63-3.3034 26.37-1.5647 8.6347-3.501 17.193-4.4979 25.919-0.4321 5.479-0.2835 10.979 0.025 16.459 0.2121 4.3605 1.0217 8.6505 2.045 12.884 0.5924 3.2639 1.1824 6.5255 1.5551 9.8219 0.1237 3.9192 0.837 7.4754 2.2749 11.187 0.4689 1.2104 2.3341 4.2183 2.9926 5.3178 2.493 4.5625 5.5757 8.7728 8.0555 13.345 1.8977 3.4993 2.3564 4.833 3.9343 8.5457 3.6681 10.259 8.3541 20.119 13.091 29.918 3.3427 7.019 8.0448 13.262 11.494 20.218 0.6656 2.1257 2.1926 4.7396 2.2895 7.0043 0.023 0.5392-0.4899-2.0971-0.4292-1.5609 0.07 0.6167 0.3046 1.2033 0.4568 1.805 0.6192 2.5308 1.2085 5.047 2.0817 7.5197 0.254 0.719 2.6171 5.2785 2.9165 5.8943 3.087 6.3462 0.1305 0.7544 3.8951 7.6154 4.6305 7.944 9.3335 15.859 14.29 23.604 0.5736 0.7886 1.1473 1.5773 1.7209 2.3659 0.691 0.7218 10.898-9.0502 10.207-9.772-0.3816-0.7371-0.7632-1.474-1.1448-2.211-4.1501-8.2743-8.8541-16.231-13.948-23.961-1.383-2.3028-2.7881-4.5925-4.1486-6.9086-0.4541-0.7732-0.9185-1.5416-1.3303-2.3381-0.2606-0.5041-0.1649-1.7871-0.6846-1.5589-0.5306 0.2329 0.6506 2.2032 0.3633 1.6999-0.3189-0.5586-0.3083-1.249-0.4624-1.8736-1.3139-5.4485-2.6734-10.916-4.9697-16.05-3.2616-7.1258-7.2486-13.876-10.539-20.987-4.6129-9.8406-8.8478-19.837-13.067-29.85-3.9628-7.7722-8.6977-15.01-13.765-22.105-0.3968-0.6418-0.816-1.2703-1.1905-1.9254-0.252-0.441-0.5228-1.8402-0.6872-1.3598-0.2209 0.6452 0.5137 1.3102 0.4713 1.9908-0.014 0.2296-0.5062-0.1666-0.5712-0.3873-0.2605-0.8831 0.238-1.8789-0.1697-2.7572 0.04-3.869-0.6-7.6355-1.2441-11.44-0.529-3.8819-1.8238-7.6272-2.0802-11.56-0.3484-4.6977-0.263-9.38 0.1444-14.078 1.1909-8.4763 3.2183-16.798 4.7503-25.215 1.6412-9.1829 3.1066-18.423 3.3573-27.767 0.3843-6.568 0.3222-13.146-0.9721-19.624-0.9748-5.0518-1.558-10.151-2.1606-15.258 0.1999-0.9385-13.073-3.766-13.273-2.8274z" color="#000000" opacity=".98598"/>
  <path d="m640.48 590.19c-2.6889 5.519-4.6731 11.317-6.4921 17.167-1.0978 3.9811-2.1184 7.9825-3.0694 12.001-0.8462 3.0306-1.9112 6.0023-3.192 8.8758-1.9018 4.1592-3.2956 8.508-4.469 12.919-0.6875 3.3421-1.6103 6.6371-2.2479 9.9878-0.4431 3.6965 0.015 7.4013 0.273 11.09 0.4049 3.3594 0.7744 6.6591 0.7922 10.042 0.082 3.5399-0.073 7.0762-0.1901 10.613-0.166 3.1229-0.8953 6.1693-1.3499 9.2523-0.523 5.2724 1.0188 10.49 3.0366 15.31 1.4003 3.2481 2.1893 6.7011 3.4241 10.007 1.7196 5.2392 4.0822 10.202 5.7341 15.464 2.6915 8.2546 6.2467 16.185 9.4232 24.258 4.3206 10.779 8.7186 21.526 13.214 32.233 4.2141 10.395 10.017 20.002 15.61 29.684 0.6685 0.7968 11.937-8.6582 11.268-9.455-4.6824-9.9103-9.8189-19.609-13.981-29.761-4.6389-10.427-9.4512-20.783-13.798-31.336-3.1577-7.8628-6.7035-15.556-9.705-23.481-1.9909-5.1411-4.3383-10.131-6.2698-15.297-1.174-3.2627-2.3077-6.5386-3.5692-9.769-0.064-0.2424-0.8181-3.1754-0.8726-2.9637-0.1739 0.6767 0.4712 1.3367 0.5043 2.0346 0.016 0.3297-0.3416-0.5701-0.4496-0.882-0.1792-0.5178-0.3829-1.7763-0.4841-2.3471-0.1758-3.1333 1.2527-6.1714 1.4468-9.2984 0.4093-3.9107 0.5657-7.8725 0.4337-11.8-0.236-3.5349 0.268-7.0941-0.6856-10.569-0.2702-3.0076-0.4729-6.0272-0.8412-9.0111-0.2321-2.7634 1.5291-5.2574 1.6141-8.0294 1.2748-3.9075 2.4854-7.8129 3.9668-11.652 1.4244-3.419 2.3994-6.9454 3.7529-10.383 1.1204-3.6678 1.9424-7.4146 3.1723-11.054 2.1628-5.5742 4.3889-11.229 5.6553-17.072 0.4792-0.8243-11.176-7.6027-11.655-6.7783z" color="#000000" opacity=".98598"/>
  <path d="m692.48 397.37c3.7378 2.3902 8.1748 3.0209 12.253 4.5281 3.1513 1.2355 6.444 1.985 9.772 2.5458 2.8946 0.43542 5.803 0.77029 8.7068 1.1364 1.3315 1.3239 3.8923 0.86693 5.1447 2.1173-0.3244 1.9844-2.0124-1.489-2.4741-2.1119-0.027-0.0362 0.1055 8e-3 0.1262 0.0487 0.1672 0.32086 0.1458 0.8812 0.1639 1.1856-0.3565 3.3073-0.015 6.573 0.5302 9.8328 0.447 3.1499 0.9041 6.29 1.2654 9.4513 0.2489 0.85608 0.4979 1.7122 0.7468 2.5682 0.1686 0.95212 13.634-1.4327 13.465-2.3848-0.1838-0.21509-0.3676-0.43017-0.5514-0.64526-0.7102-1.3625-0.5072-2.8087-0.7083-4.3192-0.066-0.49936-0.1638-0.99415-0.2456-1.4912-0.089-0.37255-0.2152-0.73819-0.268-1.1176-0.081-0.58096-0.088-1.1698-0.1324-1.7548-0.3644-2.7148-1.2577-5.3354-0.7384-8.1022 0.1846-6.3849-1.5373-11.273-7.84-14.136-2.7865-1.0009-5.5652-2.114-8.4807-2.667-2.6764-0.33096-5.3606-0.62666-8.0142-1.1146-2.775-0.58985-5.4334-1.5265-8.0642-2.5848-3.6825-1.2139-7.3505-2.4526-10.957-3.8813-0.912-0.26159-4.6115 12.635-3.6996 12.897z" color="#000000" opacity=".98598"/>
  <path d="m744.2 424.24c4.0904 1.2276 8.4865 0.96066 12.576 2.0968 2.439 0.69943 4.6164 2.2191 6.5498 3.8398 1.951 1.8671 3.9702 3.6306 5.7378 5.6952 2.1315 2.9251 4.4127 5.6564 6.9308 8.2511 2.8836 2.0949 5.296 4.6513 7.5354 7.3998 2.544 2.8442 5.0851 5.7944 7.9218 8.3614 1.9779 2.5737 4.9745 3.9883 7.5449 5.8543 0.4956 0.288 0.9913 0.5761 1.4869 0.8642 0.8971 0.3354 5.6423-12.352 4.7452-12.687-0.3334-0.2203-0.6668-0.4406-1.0002-0.6608-2.1884-1.4013-3.9981-3.0332-5.6389-5.0623-2.398-2.6497-4.9326-5.172-7.1881-7.9485-2.4931-2.6645-5.249-5.0263-7.8481-7.574-2.4056-2.681-4.4766-5.6586-7.0819-8.1647-2.4226-2.3559-4.7903-4.7926-7.57-6.7383-3.3879-2.2257-6.8796-4.2903-10.897-5.1611-4.5022-0.94654-9.0839-1.6183-13.682-1.8416-0.9529-9e-3 -1.0754 13.467-0.1225 13.476z" color="#000000" opacity=".98598"/>
  <path d="m829.32 456.48c-4.3935-2.2977-9.7518-3.1122-14.537-1.4985-1.0004 0.3374-1.9172 0.8848-2.8758 1.3271-4.5983 2.9329-6.2003 7.5191-6.8348 12.654-0.5821 4.234 0.1887 8.2946 1.7308 12.228 1.796 3.5064 3.8005 6.9101 5.9405 10.218 3.0153 4.4857 6.2075 8.9266 10.461 12.312 4.2202 2.9363 9.4463 3.8613 13.757 0.3447 0.9276-0.7566 1.5826-1.7963 2.3738-2.6945 3.3533-6.1376 1.3961-12.382-0.9875-18.446-2.7548-6.0207-6.6729-11.378-10.467-16.767-0.2119-0.152-0.4238-0.3039-0.6357-0.456-0.1735-0.9464-13.559 1.5081-13.385 2.4546 0.193 0.8296 0.3859 1.6592 0.5789 2.4889 3.0048 5.3418 6.8036 10.155 10.039 15.353 0.3832 0.66 0.815 1.294 1.1495 1.9799 0.7703 1.5794 1.2098 4.2284 2.8394 5.2048 0.5066-0.047 0.9975-0.213 1.5042-0.2596 2.168-0.1995 1.039 0.1792-0.1448-1.17-0.656-0.7057-2.2053-3.0716-1.9363-2.1464 0.1831 0.6297 1.0707 0.9231 1.1877 1.5684 0.1157 0.6382-0.7904-1.0288-1.1834-1.5449-1.1777-1.5463-1.0974-1.4482-2.2425-2.9922-2.0007-2.7874-3.7276-5.7274-5.5491-8.6165-1.2889-1.8177-2.1165-3.6941-1.8159-5.9785 0.069-1.1504 0.4085-2.5184-0.129-3.5403 2.3819-1.2901 5.5975 0.5272 7.9153 1.0832 0.9266 0.2296 4.1734-12.876 3.2468-13.105z" color="#000000" opacity=".98598"/>
  <path d="m806.97 637.9c-0.6982-3.3301-1.6727-6.6418-1.7535-10.064 0.514-1.7882 2.5552-2.9641 4.0522-3.8864 1.2845-0.5214 3.5365-1.0236 4.6844 0 0.145 0.8544 5.0513 7.0147 2.0346 3.331 5.5934 7.1879 3.8249 4.6993 6.4732 8.4842 1.7194 2.4021 3.0507 5.0623 4.3297 7.7179 1.2341 2.8184 2.1508 5.7553 3.162 8.6564 0.8464 2.8962 0.2911 0.5105 2.1518-0.8904 0.7661-0.5769 1.7279-0.8326 2.5918-1.2489 0.2712-0.1541 0.8286-0.1509 0.8135-0.4625-0.014-0.2858-2.2162-2.0265-2.5428-2.2886-2.223-1.7845-4.511-3.4856-6.7479-5.2526-1.5201-1.5737-5.7606-4.3351-6.3587-6.5064-0.1283-0.4656 1.1311 1.5537 0.9212 1.1186-0.308-0.6387-0.8145-1.1611-1.2217-1.7416-2.1112-3.616-4.7016-6.7101-7.441-9.8742-0.8039-0.5248-8.2269 10.845-7.4229 11.37-4.7126-6.0043 1.3922 2.0941 1.7276 3.1859 3.6742 5.8854 8.0545 11.143 13.622 15.323 3.119 2.3469 8.2513 6.5 11.927 7.6952 1.0643 0.3461 2.1893 0.4661 3.2839 0.6992 1.4566-0.3725 3.0424-0.4116 4.3699-1.1175 4.1199-2.1905 4.7201-7.444 3.8527-11.458-0.9233-3.2485-2.0781-6.4393-3.2648-9.5981-1.2959-3.6094-3.1362-6.938-5.0042-10.28-1.6952-2.3642-3.3687-4.7228-5.1152-7.0554-0.3955-0.5282-0.6879-1.1675-1.2181-1.5601-0.4927-0.3648 1.4117 2.0017 1.1008 1.4733-0.362-0.6154-0.8367-1.157-1.2551-1.7354-3.7194-4.8024-7.2038-9.7663-13.359-11.467-4.7612-0.7501-9.3907-0.4467-13.672 2.0174-4.6099 3.0234-8.54 6.8309-9.8863 12.377-0.616 5.0082-0.012 10.046 1.8272 14.771 0.1224 0.9432 13.461-0.7876 13.339-1.7308z" color="#000000" opacity=".98598"/>
  <path d="m675.39 824.3c1.5248 4.9645 3.5751 9.6163 6.6698 13.793 0.445 1.4001 5.386 5.3733 5.1196 6.3537-0.035 0.1294-0.2504 0.095-0.3757 0.1431-1.368-5.8251-0.4995-0.4168-1.1457 1.8485-1.0483 2.9593-2.7132 5.6382-4.1167 8.432-1.0649 2.3401-1.5482 4.9166-3.1048 6.9904-2.4943 3.0653-4.7266 6.3241-6.8168 9.6746-2.1291 3.3499-3.9049 6.8608-5.2955 10.574-0.7439 2.7873-2.956 4.5485-4.868 6.5628-1.0822 1.2628-2.475 0.8449-4.0165 0.981-2.0037-0.037-4.0515-0.2466-5.8691-1.139-2.8877-1.0674-4.705-3.4335-6.8056-5.547-2.9032-3.0823-5.6126-6.3172-8.3146-9.5727-1.7871-2.5424-2.8909-5.4593-4.3707-8.1697-1.2107-3.4247-4.2431-5.8238-5.63-9.1134 0.1069-2.5036 1.2829 2.3754 0.6356 3.5549-0.2855 0.4489-0.5709 0.8979-0.8563 1.3468-0.283 0.2735-0.6329 0.4917-0.8491 0.8206-0.051 0.077 0.1793 0.042 0.2687 0.063 2.6476-0.6323 5.2992-0.6692 7.9933-0.4125 2.4643 0.6118 4.9554 1.1458 7.3279 2.076 2.1632 0.7895 3.5337 2.5793 5.2904 4.0266 1.5844 1.4785 3.6213 2.3595 5.3307 3.6523 0.557 0.4217 0.9824 0.9941 1.4955 1.4682 0.2312 0.5644 3.8876 2.423 2.2378 2.4769 0.627 0.7098 10.665-8.1564 10.038-8.8663-1.523-1.9146-3.1687-3.6114-5.1132-5.1054-2.2491-1.8571-4.7704-3.3271-6.9933-5.2186-2.7066-2.3051-5.4864-4.491-8.9457-5.561-3.3575-1.1491-6.8207-2.0637-10.33-2.5941-4.1678-0.2951-8.3244-0.2099-12.316 1.1902-8.0393 3.0869-9.341 8.3014-5.4693 16.12 1.8334 2.899 4.0128 5.5827 5.3672 8.7644 1.6284 3.4772 3.5352 6.8487 5.876 9.8989 2.8897 3.8019 6.0594 7.3729 9.5256 10.662 3.4373 3.0755 6.9752 5.965 11.496 7.2859 3.3966 0.923 6.8736 1.4791 10.408 1.3191 4.297-0.2576 8.3207-1.085 11.583-4.1388 2.9906-3.0766 6.4405-5.91 7.817-10.138 1.1914-3.1605 2.05-5.8756 4.1296-8.6618 1.9047-3.1161 3.8567-6.2084 6.0972-9.0985 2.0082-2.7832 3.6838-5.6356 4.5769-8.9842 1.0133-3.3373 3.8826-5.9929 4.7547-9.442 0.8851-2.6324 1.4206-5.0325 1.5059-7.8096 0.024-0.7642 0.2035-1.5385 0.076-2.2923-0.3039-1.7996-0.906-3.5359-1.359-5.3039-1.7516-3.2007-4.2877-5.7222-6.1474-8.855-2.1515-4.1224-3.472-8.652-6.0369-12.564-0.6017-0.7407-11.076 7.7684-10.474 8.509z" color="#000000" opacity=".98598"/>
  <path d="m669.88 814.52c-5.3751 0.4016-10.529 2.2389-15.64 3.8468-4.2091 1.1336-8.0817 2.9932-11.684 5.4131-0.2715 0.816-6.8584 3.9418-2.6408 2.4518-0.9359 0.056-0.1484 13.292 0.7875 13.237 1.0558-0.1834 2.137-0.2561 3.1674-0.5502 1.9761-0.564 3.4644-2.2421 5.1714-3.2688 2.9262-1.6341 5.8318-3.1664 9.1965-3.789 4.6574-1.339 9.2909-2.7593 13.942-4.1151 0.9352-0.1626-1.3641-13.388-2.2993-13.225z" color="#000000" opacity=".98598"/>
  <path d="m421.98 358.89c-3.5819 2.9155-6.8573 6.2661-10.016 9.6408-3.2192 3.0774-5.3526 6.7951-6.6411 11.02-0.7572 3.0348-0.9776 6.1645-1.2889 9.267-0.3853 2.4645-1.7925 4.5574-3.1902 6.5604-1.8238 2.8314-4.1442 5.2847-6.2031 7.9403-1.3726 1.7278-0.6718 0.80639-2.0901 2.7735-0.5962 0.75575 10.091 9.1872 10.688 8.4315 1.082-1.5385 0.4793-0.72651 1.8289-2.4206 2.1536-2.7956 4.654-5.3189 6.591-8.2815 2.5765-3.633 4.763-7.4336 5.5391-11.886 0.2606-2.5182 0.4557-5.0434 0.767-7.556 0.441-2.5118 1.8566-4.2754 3.7655-5.966 3.1621-3.167 6.4438-6.2172 9.3378-9.6429 0.6987-0.64255-8.3883-10.523-9.087-9.8803z" color="#000000" opacity=".98598"/>
  <path d="m654.01 569.67c-5.293 4.5271-10.212 9.4283-14.563 14.867-2.3463 3.079-4.7027 6.1609-7.2376 9.0881-0.6916 0.6769 8.8817 10.457 9.5732 9.7805 3.0226-2.8831 5.768-6.0461 8.4741-9.2257 4.4556-5.1593 9.5153-9.8102 13.588-15.269 0.6535-0.6954-9.1808-9.937-9.8342-9.2416z" color="#000000" opacity=".98598"/>
  <path d="m673.2 351.03c1.1422-0.8364 2.3677-1.5413 3.5966-2.2391 0.2511-0.11531 1.663-0.94719 1.7147-0.32177 0.139 0.71326 1.0367 0.99869 1.3521 1.607 0.089 0.1718-1.4198-1.4762 0.031 0.0882 0.5889 0.542 1.0465 1.1675 1.5144 1.8002 0.3659 0.54014 0.5962 1.0709 0.6921 1.7134 0.031 0.72997 0.1401 1.4877-5e-4 2.2105-0.1488 0.83976-0.4582 1.6213-0.7869 2.4024-0.4627 0.95378-1.0854 1.8158-1.6574 2.7047-0.4136 0.82059-0.8622 1.602-1.4323 2.319-0.5847 0.54157-1.1779 1.0668-1.793 1.5756-0.8375 0.84137-1.5564 1.7811-2.4501 2.5651-0.7904 0.60233-1.6985 1.0074-2.5783 1.4562-0.1451 0.0652-0.2901 0.1303-0.4352 0.19545-0.3007 0.15902 1.9482 4.4117 2.2489 4.2526 0.1954-0.0908 0.3909-0.18157 0.5863-0.27236 1.1891-0.60568 2.3946-1.1934 3.4298-2.0514 0.8706-0.78538 1.6398-1.6444 2.3733-2.5578 0.7665-0.69304 1.5388-1.3775 2.2645-2.1133 0.6711-0.81532 1.2773-1.6739 1.7572-2.6179 0.7033-1.0933 1.4568-2.1627 1.9937-3.3528 0.3921-0.97121 0.782-1.941 0.9746-2.9754 0.3209-1.1843 0.3885-2.3606 0.2804-3.585-0.1052-1.1611-0.2782-2.3779-0.9857-3.3438-0.4782-0.9323-1.0438-1.7988-1.7009-2.6179-1.4909-1.7095-2.9684-3.4877-5.2099-4.171-0.3306-0.0439-0.6585-0.12046-0.9919-0.1318-1.3176-0.0449-2.5814 0.49275-3.7387 1.0559-1.4458 0.77337-2.9409 1.5434-4.0786 2.752-0.2583 0.21424 2.7716 3.8672 3.0299 3.6529z" color="#000000" opacity=".98598"/>
  <path d="m676.27 374.09c-2.3872 1.3225-4.4467 3.1385-6.4427 4.9791-1.8243 1.4431-3.6777 2.8591-5.5423 4.2524-1.5298 1.2368-3.242 2.1082-5.0627 2.8199-1.9304 0.40565-3.8239 0.91337-5.6913 1.5489-1.535 0.3061-2.8261 1.1916-4.2357 1.7947-0.924 0.21269-1.8976 0.14222-2.8378 0.0993-1.5007 0.10707-2.9098-0.17709-4.3684-0.44712-1.2606-0.41741-2.396-1.0964-3.5986-1.6484-0.5874-0.20107-3.5405-3.0828-1.0477-0.73912-1.0853-1.2551-1.8846-2.7381-2.7842-4.1289-0.9316-1.5294-1.8602-3.0609-2.7728-4.6015-0.5534-1.0804-0.6505-2.3254-0.8918-3.5028-0.2556-1.2378-0.2893-2.5026-0.3058-3.7616 0-1.5434 0.045-3.084-0.04-4.6254-0.1397-1.0954-0.364-2.1757-0.6174-3.2493-0.059-0.47257-6.7419 0.35965-6.6831 0.83222 0.3919 0.67598 0.2478 1.5501 0.5337 2.278 0.4294 1.2196-0.083 2.6805 0.091 3.9496-1e-3 1.5967 0.01 3.2 0.2572 4.7817 0.2921 1.6809 0.5876 3.3691 1.0607 5.0065 0.7677 1.802 1.8878 3.4197 2.8018 5.1492 1.02 1.7855 2.231 3.4607 3.465 5.1035 1.6105 1.6159 3.1552 3.1524 5.2652 4.0991 1.6123 0.80163 3.2849 1.5039 5.0603 1.8507 1.8028 0.3439 3.6162 0.48741 5.4529 0.39948 1.7276-0.0796 3.4699-0.16567 5.0737-0.89113 1.1991-0.55736 2.3824-1.1381 3.6893-1.4139 2.0357-0.60284 4.1476-0.88914 6.1511-1.602 2.2239-0.92457 4.2753-2.1316 6.2109-3.5661 2.0998-1.4432 4.1542-2.9713 6.1064-4.6081 1.8338-1.6048 3.75-3.1065 5.6217-4.6654 0.3885-0.27706-3.5298-5.7704-3.9183-5.4933z" color="#000000" opacity=".98598"/>
  <path d="m636.32 317.54c-3.3968 1.6733-6.6557 3.5891-9.8059 5.6868-2.3812 1.5943-4.5022 3.5154-6.5112 5.5475-1.3819 1.478-2.8521 2.8752-4.1504 4.4278-1.2238 1.2373-2.3421 2.5007-3.2762 3.9756-1.0411 1.6958-1.3863 3.6104-1.5068 5.5629-0.039 1.6124-0.01 3.2271 0.1183 4.8346 0.2504 1.6972 0.8156 3.3451 1.5567 4.8888 1.0219 2.6502 1.9813 3.6935 3.9859 5.8168 1.6449 1.078 3.5382 1.7334 5.3841 2.3877 1.3726 0.78175 2.6934 1.6159 4.1712 2.1982 0.4452 0.37748 1.0864 0.43894 1.5055 0.85375 0.059 0.0585 0.1563 0.28402 0.091 0.23246-0.4263-0.33662-0.798-0.73718-1.197-1.1058 0.2058 0.42832 6.2632-2.4821 6.0574-2.9104-0.6592-0.68843-1.2737-1.4226-1.9775-2.0653-0.8213-0.75017-2.0326-1.0432-2.9581-1.6306-1.4796-0.79703-2.9034-1.7194-4.5044-2.2659-1.0704-0.42865-2.3352-0.71541-3.1334-1.5917 2.0128 2.3637-0.9085-0.70285-0.8971-1.5661-0.4952-1.0529-0.9873-2.1138-1.3143-3.2306-0.4169-1.173-0.033-2.5609-0.204-3.7841 0-0.971-0.019-1.963 0.4567-2.8424 0.7544-1.2578 1.7918-2.2274 2.8288-3.2632 1.197-1.4019 2.5436-2.6727 3.8212-4.0001 1.7731-1.6908 3.708-3.1827 5.8253-4.4254 3.1262-1.9192 6.3553-3.7302 9.2485-5.9888 0.406-0.25557-3.2082-5.9981-3.6143-5.7425z" color="#000000" opacity=".98598"/>
  <path d="m645.89 317.07c2.7433 0.67021 5.5965 0.47391 8.3665 0.0928 1.6152-0.25874 3.2397-0.65801 4.8848-0.68439 0.3151-5e-3 1.9609 0.14418 2.1973 0.16433 2.4321 0.28649 4.6922 1.1901 7.0153 1.8952 1.5626 0.47659 3.2604 0.60689 4.7737 1.2359 1.1146 0.82172 2.2106 1.6865 3.3828 2.4326 1.3646 0.89246 2.7861 1.704 4.2094 2.493 1.0481 0.97177 2.4328 1.4977 3.5241 2.3939 0.7735 1.0218 2.0071 1.5962 2.7773 2.6009 0.198 0.15388 0.7538 0.65498 0.5941 0.46164-0.9244-1.1188-2.4376-1.8948 0.7354 0.71939 0.5167 0.42566 1.2257 0.47584 1.5981 1.057-0.3123-0.4521 1.6375 1.461 1.2641 1.0579-0.317-0.34233-1.3639-1.2731-1.0362-0.94098 0.5553 0.56288 1.1413 1.0948 1.7198 1.6338 0.3411 0.31782-0.6717-0.64675-1.0075-0.97013 4.5535 4.5029 0.7928 0.78116 0.7047 0.70181-0.1195-0.10757 0.2125 0.2414 0.3142 0.36587 0.434 0.53106 0.8515 1.0732 1.297 1.5952 0.8555 0.96004 1.3222 1.9682 1.6223 3.1967 0.3041 1.3853 0.8764 2.6883 1.1822 4.0714 0.1167 1.2335 0.5391 2.4028 0.7504 3.617 0.158 1.2278 0.1327 2.47 0.1261 3.7052-0.143 1.2031-0.3957 2.3935-0.7247 3.5592-0.2437 1.0378-0.6237 2.0399-1.1088 2.9877-0.5119 1.086-1.0807 2.141-1.5752 3.2365-0.5282 1.0884-1.0648 2.1737-1.6454 3.2356-0.6267 0.84052-1.2406 1.6876-2.0141 2.4023-0.8521 0.96486-1.8212 1.8046-2.7756 2.6651-0.4765 0.50334-0.9654 0.98256-1.4354 1.4917-0.3227 0.3465 4.5774 4.9106 4.9002 4.5641 0.3448-0.37952 0.747-0.69629 1.0878-1.0798 0.9887-0.88806 1.9761-1.784 2.8657-2.7722 1.1412-1.0883 2.1275-2.2922 2.9931-3.6112 0.7703-1.2533 1.4595-2.563 2.0561-3.9089 0.37-0.98851 0.8298-1.9183 1.3149-2.8484 0.672-1.2678 1.3217-2.578 1.682-3.9728 0.4829-1.6621 0.8468-3.3493 1.0878-5.0654 0.011-1.5143 0.032-3.0327-0.112-4.5421-0.1589-1.2906-0.5451-2.5108-0.7028-3.7876-0.2291-1.5855-0.691-3.0738-1.1973-4.5804-0.5503-1.8589-0.7878-3.8241-2.1648-5.3265-1.0343-1.4709-2.3662-2.7698-3.6071-4.0611-0.3146-0.32745 0.6312 0.65306 0.9468 0.97959-0.571-0.58042-1.1503-1.1528-1.713-1.7413-0.3003-0.31399 1.2447 1.2125 0.9255 0.91781-1.0755-0.99283-2.0253-2.0606-3.2385-2.8801-0.3999-0.24757-0.8346-0.44556-1.2019-0.73943-0.024-0.0193-0.037-0.11241-0.014-0.0915 0.2894 0.26696 3.5222 3.582-0.7946-0.78195-0.098-0.0989-0.1866-0.20639-0.2799-0.30958-1.1993-1.0568-2.3286-2.2052-3.6686-3.0908-1.3015-0.81639-2.5552-1.7021-3.8672-2.501-1.2821-0.85003-2.6647-1.5435-3.9007-2.4663-1.5297-1.1157-3.1367-2.1871-4.9486-2.7803-1.5664-0.42966-3.1369-0.86138-4.6645-1.4145-2.7787-1.0505-5.6131-1.8923-8.6028-2.052-2.7497-0.0941-5.4419 0.2137-8.1493 0.68835-2.2608 0.24944-4.5284 0.24779-6.7925 0.04-0.4766 3e-3 -0.433 6.7443 0.044 6.7412z" color="#000000" opacity=".98598"/>
  <path d="m652.66 323.49c-2.3498 0.25982-4.6503 0.7537-7.0207 0.67429-1.1492-0.0794-0.5827-0.0354-1.6995-0.1312-0.4843 0.0184-0.2242 6.8672 0.2601 6.8488 1.3481 0.1632 0.6436 0.0882 2.1141 0.21958 2.9606 0.10261 5.9312-0.24636 8.7205-1.2923 0.4468-0.1679-1.9277-6.4871-2.3745-6.3192z" color="#000000" opacity=".98598"/>
  <path d="m640.82 330.04c0.435 1.4805 0.8269 2.9831 0.8047 4.5333 0.048 0.26051 0.01 0.14158 0.2139-0.31411-0.2917 0.37265 4.9784 4.4979 5.2701 4.1252 1.1028-1.6857 0.6996-0.82012 1.2721-2.5668 0.2538-2.592-0.04-5.1131-1.0681-7.5312-0.124-0.4591-6.6167 1.2945-6.4927 1.7536z" color="#000000" opacity=".98598"/>
 </g>
</svg>
