<?xml version="1.0" encoding="utf-8"?>
<!-- Designed by Vexels.com - 2016 All Rights Reserved - https://vexels.com/terms-and-conditions/  -->

<svg version="1.1" id="Capa_1" xmlns="http://www.w3.org/2000/svg" xmlns:xlink="http://www.w3.org/1999/xlink" x="0px" y="0px"
	 width="1200px" height="1200px" viewBox="0 0 1200 1200" enable-background="new 0 0 1200 1200" xml:space="preserve">
<g>
	<g>
		<g>
			<path fill="#F26924" d="M1013.467,801.407c36.302-317.578-142.008-345.83-142.008-345.83s28.218,65.841,17.385,118.381
				c-9.513,46.155-40.512,92.687-121.519,82.67c-84.472-10.445-91.485-67.891-99.068-105.357
				C645.494,438.86,838.982,283.292,714.358,79.82c0,0-13.927,251.691-149.553,203.472C418.362,231.229,494.454,50,494.454,50
				s-180.597,128.882-65.121,317.544c115.483,188.661-19.8,270.401-85.786,238.958c-65.99-31.435-56.095-182.36-56.095-182.36
				S-31.321,983.414,437.813,1123.6C798.479,1231.377,992.352,986.231,1013.467,801.407z"/>
		</g>
		<g>
			<path fill="#F49E21" d="M606.824,1149.999c-50.737-0.006-104.818-8.479-160.745-25.192
				c-107.987-32.27-179.637-90.786-212.959-173.933c-50.787-126.71-5.887-286.021,34.186-386.366
				c9.438,40.328,27.985,79.835,63.83,96.913c12.869,6.132,27.81,9.373,43.19,9.369c44.476-0.003,87.848-26.114,110.484-66.519
				c18.849-33.64,39.896-107.336-30.86-222.934c-42.089-68.756-45.476-136.229-10.082-200.541c0.67-1.216,1.346-2.415,2.035-3.604
				c-0.195,25.629,3.588,52.875,14.815,78.315c17.479,39.571,49.239,67.776,94.416,83.836c14.565,5.178,28.869,7.805,42.501,7.805
				h0.024c39.697-0.009,93.672-21.739,125.353-125.226c0.595-1.947,1.165-3.888,1.734-5.833
				c12.003,77.526-18.793,147.18-46.886,210.699c-24.729,55.927-48.081,108.756-37.893,159.068c0.363,1.795,0.72,3.643,1.096,5.526
				c7.57,38.528,21.667,110.252,122.715,122.746c8.541,1.055,16.901,1.59,24.854,1.59c67.619-0.002,114.448-39.034,128.468-107.083
				c4.735-22.944,3.338-47.48-0.289-69.288c40.625,34.535,87.967,112.768,67.978,287.637
				c-8.691,76.136-48.689,156.411-106.971,214.741c-49.366,49.394-136.447,108.271-270.979,108.271L606.824,1149.999
				L606.824,1149.999z"/>
		</g>
		<g>
			<path fill="#F5C729" d="M606.824,1149.999c-47.936-0.006-99.244-8.277-152.484-24.598
				c-99.13-30.385-164.539-84.565-194.43-161.053c-37.329-95.542-16.982-214.18,9.707-303.213
				c13.257,19.829,29.657,34.558,49.109,44.064c16.721,8.172,35.938,12.491,55.584,12.491
				c54.769-0.005,108.017-32.726,135.67-83.358c21.941-40.153,47.028-127.145-31.413-258.581
				c-14.547-24.367-23.821-48.101-27.841-71.396c21.875,32.633,53.617,56.672,94.74,71.667c17.679,6.448,35.226,9.716,52.172,9.716
				c21.403-0.003,52.078-5.43,81.966-29.726c-8.23,23.666-18.234,46.892-28.129,69.831c-25.477,59.083-51.809,120.168-39.785,181.01
				l1.059,5.521c7.691,40.109,25.701,134.092,147.495,149.548c9.719,1.227,19.274,1.85,28.393,1.85
				c76.631-0.003,133.06-44.257,153.387-119.232c15.392,42.616,24.593,106.198,14.096,200.393
				c-7.983,71.664-44.887,147.438-98.717,202.69c-45.501,46.703-125.908,102.374-250.558,102.374h-0.021V1149.999z"/>
		</g>
		<g>
			<path fill="#F6E764" d="M606.41,1149.999c-42.351-0.006-87.883-8.065-135.319-23.953
				c-84.705-28.381-140.238-77.964-165.048-147.376c-26.502-74.137-18.367-165.178-2.331-240.774
				c6.545,5.244,13.458,9.819,20.729,13.7c19.3,10.307,41.369,15.755,63.801,15.755c61.025,0,120.266-39.648,150.925-101.003
				c21.292-42.601,45.74-129.542-10.144-255.735c3.518,1.604,7.102,3.134,10.752,4.592c19.5,7.771,39.02,11.716,58.013,11.716
				c7.646,0,16.514-0.667,26.183-2.599c-0.144,0.362-0.289,0.732-0.439,1.095c-24.415,61.904-52.087,132.07-39.094,203.941
				l0.964,5.539c7.626,43.469,27.897,159.045,161.635,177.593c10.238,1.416,20.313,2.124,29.964,2.124
				c55,0,101.234-23.155,132.909-64.539c2.522,33.61,1.646,71.689-2.668,113.972c-6.819,66.909-38.551,137.888-84.878,189.856
				c-39.069,43.836-108.256,96.095-215.94,96.095h-0.013V1149.999z"/>
		</g>
		<g>
			<path fill="#F6F197" d="M618.121,1147.577c0,0,190.473-52.071,192.399-284.875c0,0-72.791,75.888-151.996,43.312
				c-82.429-33.9-72.792-178.836-72.792-178.836s-51.951,48.942-63.491,118.209c-11.548,69.264,48.101,93.203,3.85,134.682
				c-52.114,48.844-127.311-60.584-71.514-120.229c0,0-115.438,78.885-38.48,196.244
				C493.059,1173.452,618.121,1147.577,618.121,1147.577z"/>
		</g>
	</g>
</g>
</svg>
