<svg xmlns:dc="http://purl.org/dc/elements/1.1/" xmlns:cc="http://creativecommons.org/ns#" xmlns:rdf="http://www.w3.org/1999/02/22-rdf-syntax-ns#" xmlns:svg="http://www.w3.org/2000/svg" xmlns="http://www.w3.org/2000/svg" xmlns:sodipodi="http://sodipodi.sourceforge.net/DTD/sodipodi-0.dtd" xmlns:inkscape="http://www.inkscape.org/namespaces/inkscape" version="1.1" x="0px" y="0px" viewBox="0 0 100 100"><g transform="translate(0,-952.36218)"><path d="m 77.080555,1025.1222 c -0.359452,-0.9274 -1.197995,-3.3641 -1.634823,-4.7506 -0.502437,-1.5948 -1.335456,-4.5005 -1.332564,-4.6483 0.0064,-0.3419 0.245794,0.3628 1.473959,4.3442 0.7542,2.4448 1.587467,4.9755 1.819449,5.5258 0.03069,0.073 0.02199,0.1268 -0.02037,0.1268 -0.04067,0 -0.178163,-0.2691 -0.305618,-0.5979 z m -19.707658,-0.7552 c -0.0057,-0.7828 0.528738,-3.3207 1.241764,-5.8939 0.366891,-1.324 0.443037,-1.5218 0.585797,-1.5218 0.107342,0 0.04144,0.3294 -0.592014,2.9592 -0.313616,1.302 -0.677664,2.8505 -0.808988,3.441 -0.257944,1.16 -0.422471,1.5516 -0.426559,1.0155 z m 8.220831,-0.078 c 0.370477,-0.9467 0.569828,-2.7474 0.491751,-4.442 l -0.03953,-0.8574 -1.203397,-0.4055 c -2.207776,-0.7441 -2.816622,-1.1423 -4.196003,-2.7445 -0.721491,-0.838 -0.697432,-0.8421 -1.006883,0.1698 -0.228255,0.7464 -0.285731,0.8229 -0.391043,0.5208 -0.04427,-0.127 -0.107066,-0.231 -0.139527,-0.231 -0.03246,0 -0.204563,0.204 -0.38245,0.4533 -0.651073,0.9124 -1.843113,1.8909 -2.847124,2.3371 -1.100914,0.4892 -4.234016,0.9782 -4.234016,0.6608 0,-0.1921 0.187675,-0.2445 1.01457,-0.2831 2.022683,-0.094 3.895576,-0.8645 5.191789,-2.1348 0.695862,-0.6819 1.514786,-1.7936 1.802228,-2.4463 0.06931,-0.1574 0.09842,-4.7468 0.03013,-4.7468 -0.02284,0 -0.251141,0.3807 -0.507281,0.8461 -0.701548,1.2746 -1.18489,1.9654 -2.023793,2.8925 -1.654505,1.8283 -3.129474,2.8933 -4.276542,3.0878 -0.400017,0.068 -0.621603,0.056 -1.484757,-0.082 -1.859832,-0.2961 -2.930689,-0.5115 -3.60631,-0.7252 -0.368157,-0.1166 -1.185929,-0.2976 -1.817285,-0.4024 -1.389898,-0.2307 -1.926558,-0.3903 -2.403068,-0.7147 -0.404968,-0.2757 -0.933056,-0.7685 -0.880177,-0.8214 0.01895,-0.019 0.275031,0.1296 0.569114,0.33 0.713386,0.4861 1.132407,0.6558 1.829994,0.7409 0.876697,0.1071 1.587035,0.2498 3.000003,0.603 1.996226,0.4988 3.010576,0.6954 4.050182,0.7846 l 0.959866,0.082 0.608053,-0.3126 c 0.893685,-0.4595 1.420097,-0.8861 2.624017,-2.1264 1.266072,-1.3044 1.718048,-1.9116 2.505672,-3.3659 0.627247,-1.1583 1.252817,-2.2077 1.822504,-3.0575 0.88855,-1.3254 1.425542,-3.1208 1.426426,-4.7692 1.48e-4,-0.3253 0.02617,-0.3959 0.183644,-0.499 0.100884,-0.066 0.20201,-0.1017 0.224711,-0.079 0.09484,0.095 -0.108607,1.6962 -0.269712,2.123 -0.162066,0.4294 -0.163283,0.4507 -0.04378,0.7636 0.179259,0.4695 2.142741,3.0966 3.324681,4.4485 0.640642,0.7328 1.623889,1.6673 1.842568,1.7511 0.09381,0.036 1.502778,-0.9597 2.419822,-1.7102 0.637884,-0.5219 1.093538,-0.7628 1.330534,-0.7033 0.09198,0.023 0.523229,0.2439 0.958325,0.4906 0.435095,0.2468 1.262188,0.6784 1.837985,0.9592 1.024733,0.4997 1.060815,0.511 1.703027,0.5386 0.455619,0.02 0.800063,-0.01 1.127166,-0.092 0.716852,-0.1831 2.493896,-0.7854 2.548154,-0.8637 0.02638,-0.038 0.01973,-0.1435 -0.01478,-0.2342 -0.03451,-0.091 -0.212053,-0.8925 -0.394508,-1.7816 -0.528647,-2.5758 -0.62898,-2.891 -1.414594,-4.4427 -1.126325,-2.2249 -2.097684,-3.81619 -3.18055,-5.21068 -0.404225,-0.52059 -0.504565,-0.71486 -0.305695,-0.59195 0.171804,0.10616 1.31122,1.59528 1.861465,2.43273 0.981168,1.4933 1.569284,2.6227 2.255167,4.3306 0.180199,0.4487 0.348942,0.829 0.374996,0.845 0.107186,0.067 7.525331,-0.5132 9.320593,-0.7281 1.087534,-0.1301 2.239877,-0.4036 2.501491,-0.5935 0.09965,-0.072 0.234309,-0.1513 0.299253,-0.1754 0.189471,-0.07 1.377833,-0.9218 1.684724,-1.207 0.327839,-0.3048 0.697382,-0.851 0.697382,-1.0307 0,-0.232 -0.816683,-0.4151 -3.187728,-0.7146 -1.605932,-0.2028 -1.782539,-0.2132 -1.858303,-0.1096 -0.07423,0.1015 -0.107187,0.093 -0.290795,-0.075 l -0.207067,-0.1898 0.978339,0.041 c 1.042123,0.043 2.175725,0.1701 3.587222,0.4007 0.835325,0.1365 0.879328,0.1526 1.115639,0.4097 l 0.24602,0.2674 -0.04611,0.8774 c -0.04349,0.8268 -0.03614,0.8982 0.127378,1.2397 0.183778,0.3839 1.159953,1.8925 2.457757,3.7985 0.590259,0.8668 0.778669,1.1986 0.760932,1.3401 -0.02037,0.1623 -0.113225,0.062 -0.675811,-0.7307 -1.027378,-1.4474 -2.04349,-2.9673 -2.508097,-3.7518 l -0.426906,-0.7208 0,-0.6742 c 0,-0.3708 -0.01994,-0.6742 -0.0442,-0.6742 -0.02433,0 -0.308638,0.2487 -0.631802,0.5527 -0.966231,0.909 -1.811125,1.4567 -2.718268,1.7623 -0.637247,0.2147 -3.379512,0.4912 -6.135383,0.6188 -2.34473,0.1086 -4.716524,0.2744 -4.779425,0.3343 -0.04321,0.041 0.04413,0.5717 0.234684,1.4243 0.166989,0.7473 0.417712,1.9131 0.557176,2.5907 0.267046,1.2975 0.677113,2.9061 1.579461,6.1961 0.629128,2.2938 0.668895,2.464 0.57579,2.464 -0.214479,0 -0.924428,-2.2756 -1.797518,-5.7613 -0.299501,-1.1958 -0.571349,-2.2009 -0.604128,-2.2338 -0.03281,-0.033 -0.561052,0.1357 -1.173928,0.3744 -1.070369,0.417 -1.98247,0.6636 -2.454249,0.6636 -0.500563,0 -2.2976,-0.7839 -3.731615,-1.6279 -0.374939,-0.2207 -0.736562,-0.4012 -0.803599,-0.4012 -0.234274,0 -1.017201,0.4563 -1.987782,1.1585 -0.53808,0.3892 -1.218397,0.8281 -1.511815,0.9753 -0.339515,0.1704 -0.547537,0.3214 -0.572113,0.4153 -0.02122,0.081 -0.281006,0.7394 -0.57726,1.4625 -0.296247,0.7232 -0.700459,1.7325 -0.898247,2.2431 -0.368956,0.9524 -0.746767,2.2413 -0.698987,2.3847 0.01478,0.045 0.349211,0.1815 0.743224,0.3051 0.692537,0.2172 0.71862,0.2331 0.783019,0.4774 0.03663,0.139 0.0495,0.8724 0.02864,1.6296 -0.0331,1.1993 -0.06627,1.4953 -0.257024,2.295 -0.197937,0.8296 -0.451723,1.5097 -0.563392,1.5097 -0.02341,0 -0.02016,-0.057 0.0071,-0.1268 z m -0.933805,-6.3773 c 0.229103,-1.0105 0.615047,-2.1809 1.188857,-3.6053 0.570676,-1.4167 0.870332,-2.2689 0.870332,-2.4753 0,-0.13 -0.147448,-0.34 -0.493632,-0.703 -0.760169,-0.7971 -1.096742,-1.2143 -2.658777,-3.2948 -0.797164,-1.0619 -1.477884,-1.9312 -1.512721,-1.9319 -0.0348,-8e-4 -0.137816,0.2197 -0.228849,0.49 -0.09103,0.2703 -0.294359,0.6942 -0.451836,0.9421 -1.459128,2.2966 -1.378342,2.0684 -1.464425,4.1363 -0.03861,0.9278 -0.04031,1.9071 -0.0042,2.3218 0.0628,0.7165 0.0633,0.7179 0.485407,1.3407 0.578336,0.8534 1.669087,1.9353 2.270493,2.252 0.533059,0.2808 1.639108,0.7184 1.828459,0.7234 0.07892,0 0.1422,-0.071 0.170623,-0.196 z m -19.748111,6.0911 c -0.0035,-0.1274 0.07721,-0.4949 0.178792,-0.8164 0.101592,-0.3216 0.164888,-0.6168 0.140666,-0.656 -0.02426,-0.039 -0.218241,-0.071 -0.431149,-0.071 -0.212909,0 -0.763012,-0.064 -1.222457,-0.1428 -2.726996,-0.4662 -5.499105,-1.9965 -7.430082,-4.1017 -0.962611,-1.0495 -1.824938,-2.3403 -1.962753,-2.9381 -0.194648,-0.8443 -0.05276,-1.959 0.476863,-3.7457 0.180766,-0.6098 0.310993,-1.1548 0.289402,-1.2111 -0.08212,-0.214 -1.341419,0.3596 -3.143124,1.4314 -1.000093,0.595 -1.049103,0.6152 -1.59432,0.6587 -0.30938,0.025 -1.116289,0.016 -1.79314,-0.02 -1.375662,-0.072 -1.445564,-0.059 -2.084119,0.4 -0.197526,0.1419 -0.379932,0.2372 -0.405357,0.2118 -0.02539,-0.025 0.154831,-0.2406 0.400562,-0.478 l 0.446793,-0.4319 1.907427,0.02 1.907427,0.02 0.869633,-0.4898 c 1.40917,-0.7938 2.393223,-1.2764 3.056595,-1.4994 0.342124,-0.115 0.664609,-0.2525 0.716646,-0.3056 0.110588,-0.113 0.321262,-1.4537 0.321262,-2.0445 0,-0.2724 -0.02928,-0.4075 -0.08848,-0.4075 -0.04866,0 -0.276515,0.1861 -0.506333,0.4136 l -0.41784,0.4135 -0.272718,-0.095 c -0.69311,-0.2419 -0.819879,-0.4876 -1.360067,-2.6355 -0.462981,-1.8409 -0.760056,-2.7458 -1.718522,-5.2345 -0.970715,-2.52042 -1.316736,-3.50303 -1.656888,-4.70523 -0.15708,-0.55517 -0.304203,-1.02796 -0.32694,-1.0507 -0.07353,-0.0735 -0.233213,0.21448 -0.433236,0.78132 -0.894286,2.53432 -1.430506,3.52457 -2.727002,5.03631 -0.772807,0.9011 -0.976069,1.0359 -2.594314,1.7209 -1.126997,0.4771 -1.313759,0.6986 -2.613855,3.1008 -0.95092,1.757 -1.207768,2.0713 -0.391764,0.4794 0.984902,-1.9215 1.480557,-2.7799 1.765078,-3.0571 0.288496,-0.2811 0.798331,-0.5585 1.642793,-0.894 0.900311,-0.3576 1.083411,-0.4758 1.714137,-1.1066 0.627608,-0.62769 1.276531,-1.519 1.778445,-2.44291 0.725402,-1.33523 1.494489,-3.47302 1.57613,-4.38109 0.04745,-0.52762 0.07196,-0.59513 0.289557,-0.79715 0.893699,-0.82973 1.052236,-1.01412 1.325258,-1.5414 0.160475,-0.30993 0.333433,-0.70432 0.384338,-0.87642 0.104733,-0.35406 0.195045,-0.43327 0.986727,-0.86545 0.613308,-0.3348 0.882376,-0.56219 1.42608,-1.20516 0.19428,-0.22975 0.732361,-0.73283 1.195738,-1.11795 0.463384,-0.38512 1.03416,-0.87582 1.268398,-1.09047 0.294776,-0.2701 0.66178,-0.50068 1.19211,-0.74894 0.918402,-0.42994 1.119521,-0.56654 1.395917,-0.94809 0.171048,-0.23614 0.210956,-0.36536 0.210956,-0.68308 0,-0.47531 -0.124096,-1.00075 -0.263729,-1.11663 -0.08009,-0.0665 -0.269394,-0.041 -0.860035,0.11551 -0.875411,0.23204 -1.051904,0.32991 -0.935998,0.51909 0.203099,0.33149 0.44931,0.42458 1.122979,0.42458 0.355802,0 0.646908,0.0221 0.646908,0.0492 0,0.0631 -0.763054,0.34981 -0.926698,0.34824 -0.269344,-0.003 -0.703725,-0.32464 -0.84879,-0.62931 -0.07972,-0.16741 -0.185652,-0.32127 -0.235419,-0.34191 -0.113813,-0.0472 -1.243865,0.27694 -1.599674,0.45886 -0.146585,0.0749 -0.47779,0.30531 -0.73601,0.51193 -0.60567,0.48464 -1.41782,0.984 -2.885724,1.77431 -1.15938,0.6242 -1.538938,0.76865 -0.953275,0.36279 0.859342,-0.59552 1.641413,-1.77531 2.241072,-3.38072 0.258814,-0.69289 0.461538,-0.94049 1.587898,-1.93931 0.334133,-0.29628 0.71328,-0.70405 0.84256,-0.90614 0.326021,-0.50965 0.732892,-0.90036 1.702334,-1.63468 1.387133,-1.05072 1.76942,-1.54385 1.76942,-2.28246 0,-0.42325 -0.168792,-0.90587 -0.31682,-0.90587 -0.03607,0 -0.124888,0.18651 -0.197427,0.41448 -0.130228,0.40923 -0.138792,0.41789 -0.675423,0.68369 -0.298935,0.14806 -0.571745,0.27135 -0.606243,0.27398 -0.03451,0.003 -0.190022,-0.13383 -0.345618,-0.30323 l -0.282902,-0.308 -0.626815,0.32612 c -0.851697,0.44311 -1.563549,0.91858 -2.12419,1.41884 -0.451298,0.40268 -0.972349,0.76074 -2.210344,1.51892 -0.807934,0.4948 -1.304091,1.0155 -1.915404,2.01018 -1.097534,1.7858 -2.625298,3.91973 -3.422751,4.78077 -0.492331,0.53158 -0.172774,0.0535 0.51081,-0.76425 0.359841,-0.43046 0.775898,-0.98485 0.924584,-1.23198 0.148678,-0.24714 0.552578,-0.87328 0.89756,-1.39143 0.344989,-0.51815 0.767184,-1.19745 0.938225,-1.50956 0.171034,-0.3121 0.433271,-0.72217 0.582742,-0.91127 0.312506,-0.39534 1.096332,-1.00207 1.882816,-1.45738 0.383964,-0.22229 0.851994,-0.61534 1.59432,-1.33891 0.577947,-0.56333 1.328002,-1.23357 1.666796,-1.4894 1.030779,-0.77838 1.711358,-1.41534 1.876288,-1.75604 0.115065,-0.23769 0.152845,-0.45419 0.152845,-0.8759 0,-0.4933 -0.02058,-0.58075 -0.172413,-0.73258 -0.20334,-0.20334 -0.998828,-0.61816 -1.185435,-0.61816 -0.0715,0 -0.385208,0.23918 -0.697134,0.53152 -0.451786,0.4234 -0.562105,0.56712 -0.542402,0.70657 0.02157,0.1527 0.08461,0.18691 0.493703,0.26782 0.440612,0.0871 0.480046,0.0837 0.652219,-0.0564 0.100786,-0.082 0.329691,-0.24698 0.508674,-0.36658 0.440061,-0.29406 0.485054,-0.12796 0.06605,0.24385 -0.780191,0.69236 -1.540656,0.75267 -2.089034,0.16567 -0.09663,-0.10342 -0.213863,-0.18805 -0.260519,-0.18805 -0.248962,0 -1.123276,0.7082 -2.100208,1.70119 -0.897475,0.91222 -1.235866,1.20126 -1.940447,1.65739 -0.954916,0.6182 -1.503442,1.09598 -1.757249,1.5306 -0.09391,0.1608 -0.446715,0.92828 -0.784024,1.70551 -1.103135,2.5419 -1.57787,3.44869 -2.333307,4.45685 -0.400187,0.53406 -2.10373,2.26565 -2.16685,2.20253 -0.0203,-0.0203 0.339664,-0.40981 0.799851,-0.86563 1.341624,-1.32892 2.035717,-2.48288 3.397701,-5.64881 0.385803,-0.8968 0.786966,-1.78806 0.891464,-1.98055 0.247004,-0.45497 0.85215,-1.00965 1.734753,-1.59006 0.911726,-0.59956 1.525069,-1.1266 2.257727,-1.94007 0.551405,-0.61223 0.588838,-0.67436 0.588838,-0.9776 0,-0.34996 0.113884,-0.43653 0.187646,-0.14265 0.02504,0.0996 0.09198,0.18117 0.148835,0.18117 0.258736,0 1.863898,-1.00857 2.463153,-1.54768 l 0.37192,-0.33458 0.395321,0.136 c 0.584199,0.201 0.805884,0.33194 1.068686,0.63126 l 0.236452,0.26931 -0.02638,0.80331 -0.02638,0.80331 0.869626,0 c 0.827347,0 0.893345,-0.0113 1.357316,-0.23102 0.692976,-0.32827 1.005702,-0.55965 2.089869,-1.54622 1.284501,-1.16887 1.768706,-1.52497 2.712695,-1.99507 1.431052,-0.71264 1.956325,-0.77546 4.819198,-0.57628 3.751481,0.26102 3.753815,0.26157 6.274967,1.51114 1.859081,0.92142 2.879139,1.5084 4.051886,2.3316 0.438433,0.30776 0.835106,0.57435 0.881492,0.59241 0.04639,0.0181 0.16602,-0.0874 0.265851,-0.23426 0.174174,-0.25634 0.177392,-0.28071 0.07951,-0.60323 -0.164054,-0.54053 -0.12172,-0.56767 0.174442,-0.11182 0.489792,0.75387 1.156311,1.2492 2.548274,1.89374 0.636993,0.29495 0.762991,0.40754 1.465133,1.30914 0.194273,0.24945 0.646377,0.66897 1.047201,0.97173 0.690203,0.52134 1.117024,0.99993 1.215002,1.3624 0.02695,0.0996 -0.0425,0.0183 -0.154329,-0.18075 -0.147271,-0.26216 -0.413009,-0.52785 -0.964173,-0.96396 -1.204013,-0.95268 -1.553782,-1.28089 -1.740863,-1.63355 -0.165334,-0.31166 -0.228432,-0.35478 -1.169409,-0.79918 -0.547048,-0.25836 -1.190398,-0.60269 -1.429658,-0.76516 -0.239266,-0.16249 -0.463738,-0.29542 -0.498837,-0.29542 -0.09803,0 -0.397846,0.34294 -0.368603,0.42161 0.01422,0.0383 0.206699,0.21633 0.427698,0.39563 0.744462,0.60396 1.312585,1.40077 2.39241,3.35541 0.964697,1.74624 1.009768,1.80684 1.419467,1.90878 0.338398,0.0842 1.38132,0.56504 1.4434,0.66547 0.01655,0.0268 -0.290179,-0.077 -0.68164,-0.23068 -0.838535,-0.32917 -1.413505,-0.4884 -1.98457,-0.5496 l -0.415173,-0.0445 -0.214818,0.4788 c -0.158771,0.35386 -0.260356,0.49022 -0.389317,0.52259 -0.23892,0.06 -1.03462,-0.0926 -1.366879,-0.26214 -0.34641,-0.17672 -0.423525,-0.17502 -0.423525,0.009 0,0.39036 0.527897,0.95958 1.195745,1.28933 0.239146,0.11809 0.875064,0.38219 1.413145,0.5869 2.665333,1.01401 3.797669,1.88419 4.612329,3.54449 0.188721,0.38463 0.537635,1.02453 0.775367,1.42201 0.626653,1.04774 0.676865,1.19373 0.723514,2.10361 0.02249,0.43843 0.107893,1.05528 0.18981,1.37077 0.08191,0.31549 0.13399,0.58856 0.11573,0.60681 -0.03798,0.038 -1.264975,-0.98933 -1.833078,-1.53484 l -0.380462,-0.36533 0,-1.04517 0,-1.04517 0.289875,-0.31448 c 0.159435,-0.17296 0.289882,-0.36297 0.289882,-0.42223 0,-0.40998 -2.044161,-3.0208 -2.224191,-2.84077 -0.02051,0.0205 0.04604,0.38989 0.147766,0.82091 0.234465,0.99331 0.308695,1.5774 0.440358,3.46505 0.149534,2.14387 0.09328,2.56946 -0.65618,4.96414 -0.255723,0.81709 -0.530223,1.82804 -0.610012,2.24657 -0.07978,0.41847 -0.18945,0.91359 -0.243701,1.10015 -0.131521,0.45234 -0.748959,1.43608 -0.901697,1.43672 -0.06563,0 -0.269868,0.12949 -0.453879,0.28727 l -0.334551,0.28671 -0.09168,0.69272 c -0.05043,0.38096 -0.123134,0.71216 -0.161565,0.73596 -0.0384,0.024 -0.11952,-0.01 -0.180178,-0.067 -0.09577,-0.096 -0.09859,-0.19 -0.02136,-0.71517 0.06422,-0.43671 0.08005,-1.53156 0.057,-3.93844 -0.04045,-4.22203 -0.06103,-4.34703 -1.129401,-6.86481 -0.575486,-1.3562 -0.840078,-1.717 -1.42115,-1.93793 -0.300519,-0.11426 -0.361651,0.002 -0.151112,0.28736 0.197866,0.26818 0.232456,0.43441 0.09076,0.43617 -0.04979,7.1e-4 -0.644977,-0.27588 -1.322564,-0.61445 -0.67758,-0.33856 -1.313498,-0.62441 -1.413145,-0.63522 -0.177399,-0.0192 -0.180899,-0.0101 -0.168191,0.43875 0.0128,0.45136 0.0091,0.46068 -0.238128,0.60656 -0.191932,0.11324 -0.271685,0.22508 -0.338404,0.47454 -0.04802,0.17951 -0.12469,0.34073 -0.17039,0.35827 -0.04569,0.0175 -0.509149,-0.18161 -1.029867,-0.44254 -0.562155,-0.28169 -0.965192,-0.44461 -0.992123,-0.40103 -0.05941,0.0961 0.267018,0.64894 0.550683,0.9326 0.137003,0.13701 0.298461,0.22392 0.41721,0.22461 0.31262,0.002 0.391503,0.0903 0.337415,0.37858 -0.02737,0.14587 -0.01712,0.27503 0.02383,0.30032 0.126691,0.0783 1.686202,-0.3604 2.679562,-0.75379 l 0.962879,-0.38129 0.179747,0.16885 c 0.207491,0.19493 0.612092,0.96899 0.612092,1.17102 0,0.0753 -0.04745,0.22878 -0.105511,0.341 -0.114046,0.22055 -0.197964,0.24451 -1.182428,0.33769 -0.289854,0.0274 -0.541426,0.0732 -0.559043,0.10171 -0.01761,0.0285 0.277308,0.24321 0.655402,0.4771 0.7113,0.44003 1.443583,1.0374 1.278674,1.04309 -0.05177,0.002 -0.42528,-0.19256 -0.830071,-0.43189 -1.370725,-0.81042 -2.020236,-0.94266 -3.822577,-0.77831 -0.617799,0.0564 -1.159769,0.0897 -1.204374,0.0741 -0.08758,-0.0306 -0.338835,-1.15892 -0.279464,-1.25499 0.0198,-0.032 0.246685,-0.0808 0.504219,-0.10836 0.536249,-0.0574 0.675656,-0.16582 0.575386,-0.4474 -0.05134,-0.14425 -0.199174,-0.24324 -0.639234,-0.4281 -0.314826,-0.13225 -0.600295,-0.22323 -0.634369,-0.20218 -0.03409,0.0211 -0.04201,0.11783 -0.01761,0.21503 0.0616,0.24551 -0.01436,0.22237 -0.381736,-0.11629 -0.31711,-0.2923 -0.319154,-0.29296 -0.841499,-0.27175 l -0.523611,0.0213 0,0.90586 c 0,0.81312 0.02079,0.96248 0.203467,1.45879 0.111903,0.30411 0.282711,0.62738 0.379571,0.71837 l 0.176105,0.16545 0.49185,-0.19297 c 0.270518,-0.10613 0.536977,-0.19297 0.592133,-0.19297 0.05516,0 -0.0952,0.20381 -0.334125,0.45293 -0.512048,0.53388 -0.583272,0.65451 -0.676399,1.14554 -0.08446,0.44539 -0.05912,0.50205 0.530853,1.18759 0.443455,0.51527 0.868062,1.13022 0.816202,1.18206 -0.04625,0.046 -1.853551,-1.80907 -1.853551,-1.90285 0,-0.0465 0.163056,-0.35314 0.36235,-0.68126 0.199288,-0.32812 0.362344,-0.6278 0.362344,-0.66598 0,-0.0741 -0.305851,-0.21075 -0.471814,-0.21075 -0.05502,0 -0.144754,0.0897 -0.199408,0.19929 -0.05467,0.10961 -0.143657,0.18924 -0.197766,0.17697 -0.0541,-0.0123 -0.265611,-0.0659 -0.469997,-0.11913 -0.20438,-0.0532 -0.655253,-0.12042 -1.001925,-0.14929 -0.848607,-0.0707 -0.841096,-0.21159 0.01591,-0.29861 0.276785,-0.0281 0.507579,-0.005 0.730685,0.0738 0.438292,0.15439 0.526016,0.14717 0.751527,-0.0618 l 0.192937,-0.17881 -0.315307,-0.41906 c -0.173417,-0.23048 -0.387981,-0.55063 -0.476807,-0.71145 l -0.161508,-0.2924 0.146621,-0.52909 c 0.202392,-0.73035 0.26293,-1.33689 0.158579,-1.58883 -0.0466,-0.11256 -0.186656,-0.26485 -0.311176,-0.33841 -0.221452,-0.13081 -0.225143,-0.13071 -0.169181,0.004 0.231515,0.55865 0.235164,0.51466 -0.06846,0.82562 -0.156154,0.15992 -0.31984,0.29076 -0.363758,0.29076 -0.04392,0 -0.288249,-0.14676 -0.542961,-0.32612 -0.254712,-0.17936 -0.48936,-0.32611 -0.521433,-0.32611 -0.0955,0 -0.06796,0.34909 0.09835,1.24603 l 0.157123,0.84745 -0.419798,0.49323 c -0.230886,0.27127 -0.53028,0.61618 -0.665317,0.76645 l -0.245518,0.27324 -0.524262,-0.0958 -0.524262,-0.0958 -0.02192,-0.37673 c -0.01429,-0.24514 -0.0541,-0.37671 -0.114124,-0.37671 -0.05071,0 -0.318603,0.077 -0.595288,0.1711 l -0.503059,0.17111 -0.376772,-0.17197 c -0.571808,-0.26098 -1.092936,-0.37117 -2.506357,-0.52995 -0.710168,-0.0798 -1.32163,-0.16385 -1.358801,-0.18683 -0.09052,-0.0559 -0.08526,-0.3775 0.01379,-0.84492 0.09614,-0.45361 0.279189,-0.83814 0.489531,-1.02836 0.235893,-0.21333 0.729051,-0.11475 1.740021,0.34783 1.249812,0.57187 1.551441,0.64776 2.329637,0.58617 0.552473,-0.0437 0.706533,-0.0289 1.115589,0.1072 0.261028,0.0869 0.494049,0.18942 0.517826,0.22789 0.02376,0.0385 -0.04922,0.1868 -0.162264,0.32961 -0.497289,0.62833 -0.478653,0.58844 -0.391602,0.83815 0.102582,0.29426 0.425527,0.6352 0.601688,0.6352 0.162123,0 0.730247,-0.55507 1.060426,-1.03606 0.261876,-0.3815 0.260512,-0.33685 0.04583,-1.50036 -0.05516,-0.29894 -0.121401,-0.68242 -0.147208,-0.85217 -0.04123,-0.27096 -0.09645,-0.3441 -0.452486,-0.59906 -0.223057,-0.15973 -0.558321,-0.33578 -0.745041,-0.39123 -0.18672,-0.0555 -0.495379,-0.21982 -0.685918,-0.36525 -0.190539,-0.14544 -0.463809,-0.32427 -0.607275,-0.39739 -0.363603,-0.18532 -2.424511,-0.80096 -2.681295,-0.80096 -0.312945,0 -0.788055,-0.57112 -1.227783,-1.4759 -0.328567,-0.67606 -0.392924,-0.76248 -0.641271,-0.86118 -0.388963,-0.15459 -1.07759,-0.29953 -1.19996,-0.25258 -0.144987,0.0557 -0.367026,1.13493 -0.368758,1.79251 -0.0014,0.46132 0.04003,0.64757 0.272732,1.23168 0.308086,0.7733 0.455626,1.51515 0.341799,1.71854 -0.06513,0.11639 -0.08056,0.10876 -0.150157,-0.0743 -0.04265,-0.1122 -0.07757,-0.25066 -0.07757,-0.30769 0,-0.057 -0.213927,-0.3368 -0.4754,-0.62172 -0.462033,-0.50347 -0.859137,-1.17418 -1.045192,-1.76535 -0.172866,-0.54923 -0.234012,-0.46409 -0.182173,0.25365 0.106458,1.47405 -0.09114,1.91983 -1.690841,3.81449 -0.845643,1.00156 -1.117039,1.43402 -1.460564,2.32733 -0.164753,0.42844 -0.399663,1.03298 -0.522027,1.34342 -0.208014,0.52776 -0.223297,0.63134 -0.235235,1.59432 -0.0086,0.6941 -0.05156,1.17165 -0.131719,1.46473 -0.360979,1.31931 -0.337351,3.02866 0.06139,4.43872 0.04257,0.15063 0.02284,0.16301 -0.260539,0.16301 l -0.306644,0 0.0186,1.17766 c 0.01026,0.6477 0.014,1.2014 0.0083,1.2304 -0.01577,0.081 -1.018841,-0.3004 -1.327245,-0.5044 -0.269048,-0.1781 -0.364409,-0.3577 -0.63584,-1.1977 -0.244259,-0.75589 0.142717,-0.2467 0.464226,0.6108 0.120821,0.3223 0.152844,0.349 0.671795,0.5603 0.299705,0.1221 0.570047,0.2065 0.600761,0.1875 0.03069,-0.019 0.02376,-0.1733 -0.01549,-0.343 -0.09377,-0.4053 -0.03847,-1.1493 0.123424,-1.65961 l 0.129789,-0.40919 -0.23595,-0.38799 c -0.275094,-0.4524 -0.572324,-0.78656 -0.699567,-0.78656 -0.04922,0 -0.127193,0.11414 -0.173233,0.2536 -0.04604,0.13954 -0.105638,0.25361 -0.132441,0.25361 -0.0268,0 -0.189139,-0.16308 -0.360746,-0.36231 -0.171607,-0.19929 -0.33902,-0.3623 -0.372018,-0.3623 -0.03303,0 -0.08271,0.21195 -0.110454,0.471 -0.02772,0.25906 -0.0798,0.47108 -0.115673,0.47108 -0.03586,0 -0.134796,-0.13861 -0.219818,-0.30799 -0.279613,-0.55708 -0.653138,-0.815 -0.763577,-0.52716 -0.06422,0.16733 0.09715,2.11632 0.228318,2.75772 0.405202,1.9816 1.272592,3.3966 2.439893,3.9807 0.282166,0.1411 0.591794,0.2566 0.688061,0.2566 0.21718,0 0.522713,-0.1539 0.704645,-0.3549 0.07584,-0.084 0.160454,-0.1524 0.188043,-0.1524 0.02758,0 0.07051,0.3506 0.09535,0.779 0.05071,0.8744 0.386976,2.8201 0.665734,3.8522 0.239273,0.8859 0.472055,1.3006 1.015581,1.809 0.458964,0.4293 3.730179,3.1431 4.851065,4.0243 0.349777,0.275 0.725275,0.6408 0.834448,0.813 0.218863,0.3451 0.421821,1.19 0.624609,2.6004 0.06874,0.4783 0.163976,0.9125 0.211558,0.965 0.238757,0.2633 4.602025,0.3809 5.896378,0.1589 0.404077,-0.069 0.479014,-0.064 0.597869,0.044 0.07474,0.068 0.135885,0.1454 0.135885,0.1729 0,0.071 -2.087719,0.1818 -3.369808,0.1781 -0.628117,0 -1.505861,-0.059 -2.079084,-0.1362 -0.545627,-0.073 -1.039131,-0.1152 -1.096685,-0.093 -0.145291,0.056 -0.258793,2.213 -0.12092,2.2982 0.04972,0.03 0.24351,0.076 0.430682,0.101 0.578873,0.077 0.602098,0.121 0.442847,0.8433 -0.07501,0.3401 -0.185589,0.7314 -0.245731,0.8696 l -0.10935,0.251 -0.0057,-0.2317 z M 44.04556,1021.97 c 0.220744,-0.5628 -0.195758,-4.8741 -0.544531,-5.6365 -0.200475,-0.4382 -0.530287,-0.7348 -2.617164,-2.3533 -2.952683,-2.29 -3.486457,-2.777 -3.865244,-3.5275 -0.30032,-0.5949 -0.411778,-1.0201 -0.659666,-2.5165 -0.118197,-0.7136 -0.251388,-1.3332 -0.295978,-1.3769 -0.05912,-0.058 -0.116267,-0.037 -0.211041,0.079 -0.107781,0.1319 -0.136763,0.3483 -0.169776,1.2683 -0.04576,1.2743 -0.163374,1.826 -0.818224,3.8371 l -0.409558,1.2579 -0.01011,1.1596 -0.01011,1.1595 0.353121,0.5788 c 1.877364,3.0775 5.004582,5.3552 8.408627,6.1246 0.772764,0.1747 0.759497,0.1755 0.849702,-0.054 z m 24.937248,-31.23425 c 0.02886,-0.94502 -0.01075,-1.39589 -0.150185,-1.71012 -0.169846,-0.38269 -0.789893,-1.3517 -0.864936,-1.3517 -0.03126,0 -0.128347,0.0501 -0.215759,0.11133 -0.256735,0.17982 -0.332824,0.57751 -0.274422,1.4343 l 0.05205,0.76379 0.627459,0.65493 c 0.345102,0.36021 0.668224,0.65587 0.718047,0.65701 0.06344,10e-4 0.09573,-0.16633 0.107738,-0.55954 z m -6.820827,-9.67463 c 0.164323,-0.13707 0.509212,-0.70366 0.468462,-0.7696 -0.06322,-0.10231 -1.225498,-0.31024 -1.600161,-0.28627 -0.357012,0.0228 -0.362662,0.027 -0.383836,0.27816 -0.01712,0.20334 0.02157,0.29621 0.191119,0.45866 0.363298,0.34806 1.082066,0.52121 1.324416,0.31905 z m -24.734849,-5.29045 c 0.263793,-0.71227 0.263362,-0.70657 0.05318,-0.70657 -0.288418,0 -0.876725,0.33057 -1.093057,0.61419 -0.288269,0.37794 -0.209054,0.47285 0.394643,0.47285 l 0.504353,0 0.140907,-0.38047 z M 16.063216,1022.477 c 2.1e-5,-0.03 0.06719,-0.231 0.149273,-0.4469 0.240448,-0.6326 0.479954,-1.7472 0.725416,-3.3758 0.249323,-1.6541 0.247145,-1.5214 0.09412,-5.7446 -0.05141,-1.4183 -0.02581,-1.5407 0.480046,-2.2995 0.15945,-0.2391 0.290017,-0.4705 0.290144,-0.5142 1.41e-4,-0.055 -0.32153,-0.069 -1.068686,-0.045 -1.164437,0.037 -2.022938,-0.058 -3.460403,-0.3821 -1.478089,-0.3335 -2.411852,-0.9711 -2.876764,-1.9646 -0.223842,-0.4784 -0.226734,-0.4981 -0.143968,-0.9807 0.04646,-0.2709 0.211564,-0.8279 0.366912,-1.2377 0.355682,-0.9384 0.474198,-1.4885 0.376234,-1.7461 -0.03996,-0.1051 -0.275773,-0.3468 -0.524029,-0.5372 -0.248255,-0.1903 -0.7280045,-0.5661 -1.0660978,-0.8349 -0.58992,-0.4691 -0.6203021,-0.4838 -0.7528633,-0.3639 -0.209634,0.1898 -0.6665331,1.1965 -0.929654,2.0484 -0.3553495,1.1506 -0.6929265,1.5433 -2.7348453,3.1811 -1.019429,0.8177 -1.108687,0.8741 -1.087039,0.6863 0.01888,-0.1637 0.211933,-0.3564 0.965694,-0.9641 1.7192149,-1.386 2.3679543,-2.1571 2.6034796,-3.0948 0.2151502,-0.8565 0.9196893,-2.1615 1.5041212,-2.7859 0.1699024,-0.1816 1.2486456,-0.646 1.5004516,-0.646 0.06832,0 0.328178,0.1484 0.577437,0.3298 0.284281,0.2068 0.499969,0.3149 0.578689,0.2899 0.126119,-0.04 1.313943,-1.39758 1.708756,-1.95289 0.351976,-0.49505 0.755324,-0.89067 1.817681,-1.78304 1.634369,-1.37271 1.83901,-1.63587 2.570954,-3.30583 0.24252,-0.55332 0.697439,-1.4463 1.010928,-1.98439 0.706696,-1.21302 0.782906,-1.36676 1.554624,-3.13638 0.343786,-0.78833 0.737248,-1.6561 0.874356,-1.92837 0.286735,-0.56937 1.061225,-1.7233 1.756457,-2.61697 0.567035,-0.72889 0.899661,-1.40542 1.439227,-2.92727 0.64922,-1.83112 0.854151,-2.22551 1.676096,-3.22561 0.218806,-0.26623 0.62811,-0.94584 0.960192,-1.59432 0.31834,-0.62165 0.686328,-1.2818 0.817736,-1.467 0.398964,-0.56227 1.251984,-1.64449 1.27697,-1.62009 0.01287,0.0126 -0.02765,0.12172 -0.09008,0.24247 -0.06245,0.12075 -0.09707,0.26246 -0.07694,0.31491 0.04625,0.12046 0.662657,0.51436 0.753846,0.4817 0.115934,-0.0415 1.081713,-1.13338 1.190109,-1.34549 0.05644,-0.1104 0.12498,-0.30482 0.15237,-0.43204 0.04265,-0.19813 0.014,-0.27035 -0.199598,-0.50345 l -0.249394,-0.27214 -0.196225,0.12857 c -0.107922,0.0707 -0.332139,0.24836 -0.49825,0.39475 -0.340039,0.29968 -0.240073,0.13241 0.198212,-0.33169 0.15998,-0.1694 0.332273,-0.308 0.382881,-0.308 0.05064,0 0.273723,0.0891 0.495818,0.19805 0.447896,0.21967 0.43344,0.15489 0.210412,0.94298 -0.120072,0.42429 -0.525599,0.96384 -1.069769,1.4233 l -0.350059,0.29558 -0.460159,-0.24587 c -0.441638,-0.23596 -0.467472,-0.24106 -0.64176,-0.12687 -0.311091,0.20384 -0.805225,0.98006 -1.41999,2.23064 -0.469176,0.95441 -0.700267,1.33237 -1.118135,1.82876 -0.64787,0.7696 -0.993693,1.45977 -1.494737,2.98312 -0.514876,1.5654 -0.882772,2.32508 -1.526674,3.15241 -1.136572,1.46037 -1.723204,2.47646 -2.53128,4.38439 -0.420498,0.99283 -1.140716,2.41839 -1.62683,3.22006 -0.503491,0.83033 -0.778769,1.37346 -1.121841,2.2134 -0.51446,1.25959 -1.022371,1.90818 -2.176814,2.77976 -0.962823,0.72695 -2.240563,1.96819 -2.884458,2.80207 -0.246212,0.31889 -0.777673,0.92219 -1.181028,1.34069 -0.659136,0.6839 -0.727418,0.7126 -0.367012,0.1543 0.101472,-0.1572 0.09965,-0.1801 -0.02143,-0.2686 -0.240843,-0.1762 -0.879109,-0.2668 -1.2772174,-0.1814 -0.4852159,0.1041 -0.9376524,0.3419 -0.9376524,0.4928 0,0.1814 0.6472896,0.7546 1.1252358,0.9965 0.498024,0.2519 1.211396,0.8905 1.339007,1.1986 0.08269,0.1996 0.05835,0.308 -0.272343,1.2144 -0.664093,1.8201 -0.690657,2.5086 -0.125362,3.2498 0.710041,0.9309 3.285819,1.69 5.74678,1.6937 0.956026,0 1.066041,-0.028 1.452954,-0.3879 0.239252,-0.2225 0.242915,-0.2234 0.194025,-0.046 -0.02744,0.1 -0.245511,0.4682 -0.484678,0.8191 -0.606243,0.8893 -0.641668,0.9962 -0.641668,1.9361 l 0,0.8032 0.269812,0.1127 c 0.148396,0.062 0.659036,0.2134 1.134761,0.3366 l 0.864958,0.2238 0.550146,-0.1143 c 0.302577,-0.063 0.98039,-0.2957 1.50625,-0.5174 0.52586,-0.2217 1.066459,-0.4238 1.201339,-0.4491 0.192117,-0.036 0.448095,0.032 1.181736,0.3142 0.515068,0.1981 1.078764,0.3835 1.252648,0.4121 0.233651,0.038 0.470039,0.1723 0.905863,0.5135 0.758691,0.594 1.364651,1.1273 1.325485,1.1665 -0.0169,0.017 -0.3567,-0.1829 -0.755091,-0.444 -1.015341,-0.6652 -1.824428,-1.081 -2.625807,-1.3493 -0.981479,-0.3285 -1.444651,-0.2893 -2.717589,0.2304 -0.922526,0.3766 -0.957158,0.3846 -1.666796,0.3835 -0.639815,-7e-4 -0.817885,-0.032 -1.520402,-0.2668 -0.437648,-0.1461 -0.822559,-0.2388 -0.855367,-0.206 -0.03282,0.033 -0.0057,0.6879 0.06033,1.4556 0.131352,1.5285 0.09489,2.2557 -0.194472,3.8794 -0.185899,1.0431 -0.765833,3.5564 -0.862142,3.7364 -0.07212,0.1347 -0.287655,0.1994 -0.287584,0.086 z m 37.519982,-10.6348 c -0.428964,-0.2138 -0.962483,-0.4266 -1.185611,-0.4729 -0.469501,-0.097 -0.645139,-0.047 -1.71983,0.4882 -0.352916,0.176 -0.662509,0.299 -0.68799,0.2736 -0.08043,-0.081 0.438066,-0.4609 1.039775,-0.7629 0.764815,-0.3838 1.191771,-0.4354 1.75418,-0.2121 0.915708,0.3636 1.688104,0.8297 1.688104,1.0187 0,0.1029 -0.05813,0.081 -0.888628,-0.3326 z m -2.527694,-2.8158 c -0.344444,-0.131 -0.857227,-0.3755 -1.139528,-0.5432 -0.776322,-0.4612 -1.825093,-1.265 -1.803883,-1.3825 0.02779,-0.1539 0.414289,-0.2331 0.675734,-0.1385 0.251798,0.091 0.547621,0.013 1.610112,-0.4229 0.3302,-0.1355 0.635443,-0.2248 0.678322,-0.1983 0.04286,0.026 0.532515,0.045 1.088078,0.041 0.898134,-0.01 1.07602,0.014 1.604455,0.1812 0.538059,0.1705 0.577176,0.1949 0.413157,0.2584 -0.09965,0.039 -1.045369,0.079 -2.101608,0.09 -1.840949,0.019 -2.097252,0.042 -3.315459,0.2969 -0.08968,0.018 -0.163056,0.063 -0.163056,0.098 0,0.081 1.294933,0.9431 1.775488,1.1825 0.654256,0.3259 1.127909,0.4481 1.749406,0.4512 0.566455,0 0.618223,-0.011 1.302833,-0.358 0.925262,-0.4686 1.66362,-1.1522 1.598125,-1.4796 -0.03381,-0.1692 -0.01358,-0.217 0.105121,-0.248 0.128975,-0.034 0.136125,-0.059 0.0582,-0.2044 -0.154641,-0.289 -0.807553,-0.8902 -1.401617,-1.2906 l -0.573732,-0.3868 -0.514134,0.2646 -0.514141,0.2646 -0.433986,-0.1122 c -0.238693,-0.061 -0.602996,-0.165 -0.809561,-0.2296 l -0.375583,-0.1175 -0.466538,0.304 c -0.436065,0.2841 -0.861188,0.6711 -1.204027,1.0963 -0.211862,0.2627 -0.188304,0.04 0.03635,-0.343 0.190871,-0.3257 1.285202,-1.2122 1.598061,-1.2946 0.08512,-0.023 0.421064,0.043 0.746548,0.1462 0.755155,0.2386 0.928211,0.235 1.453944,-0.03 0.236869,-0.1196 0.460273,-0.2175 0.496447,-0.2175 0.12121,0 1.492799,1.1275 1.80877,1.4868 0.280073,0.3186 0.308326,0.3839 0.273602,0.6321 -0.117731,0.8417 -1.141841,1.8059 -2.373449,2.2346 -0.776195,0.2702 -1.105321,0.2648 -1.882435,-0.031 z m -4.555285,-3.1349 c 0,-0.025 0.226905,-0.5116 0.504227,-1.0826 0.351749,-0.7242 0.603625,-1.1418 0.832963,-1.3812 0.1808,-0.1887 0.350278,-0.3215 0.376615,-0.2952 0.02631,0.026 -0.10191,0.2731 -0.284974,0.5485 -0.183071,0.2753 -0.501468,0.8382 -0.707552,1.251 -0.206083,0.4126 -0.425123,0.8074 -0.486751,0.8771 -0.110658,0.1253 -0.234528,0.1688 -0.234528,0.082 z m 10.732641,-1.4412 c -0.380837,-0.8171 -0.597876,-1.3539 -0.561935,-1.3898 0.06676,-0.067 0.492508,0.6389 0.669977,1.1103 0.268659,0.7138 0.189641,0.9182 -0.108042,0.2795 z m 5.996266,-1.2775 c 0.264104,-0.5147 0.265158,-0.5204 0.27752,-1.5037 0.0085,-0.6721 0.06054,-1.2224 0.163247,-1.72418 0.243531,-1.18996 0.304232,-1.20892 0.259189,-0.0808 -0.07504,1.87918 -0.332245,3.27398 -0.668478,3.62488 -0.306884,0.3203 -0.3152,0.2368 -0.03147,-0.3162 z m 25.623803,-0.516 c -0.382535,-0.4073 -0.569269,-0.6342 -0.521857,-0.6342 0.02122,0 0.224719,0.212 0.452168,0.4711 0.466375,0.5312 0.508816,0.6305 0.06966,0.1631 z m -26.433654,-0.3926 c -0.09764,-0.098 -0.05191,-1.296 0.05495,-1.4416 0.09962,-0.1357 0.106054,-0.1334 0.181168,0.064 0.122915,0.322 0.09946,1.1772 -0.036,1.3127 -0.129697,0.1297 -0.134457,0.1312 -0.200151,0.066 z m -11.408071,-0.5101 -0.360159,-0.4133 -1.073219,0.2426 -1.07322,0.2427 -0.272159,-0.2918 c -0.258955,-0.2776 -0.496588,-0.8493 -0.502854,-1.2097 -0.0021,-0.1347 -0.0215,-0.1278 -0.18829,0.068 -0.10213,0.1196 -0.313765,0.4783 -0.470308,0.7971 l -0.284621,0.5798 0.02645,-0.3697 c 0.05361,-0.7502 0.608209,-1.50816 1.560763,-2.13306 l 0.554375,-0.36365 0.03621,-0.80475 c 0.03197,-0.70948 0.05389,-0.81655 0.185355,-0.90354 0.147328,-0.0976 0.148763,-0.0912 0.119817,0.53494 -0.02051,0.44307 0.0035,0.7278 0.07961,0.94654 0.117907,0.33876 0.123176,0.33155 -0.29762,0.40446 -0.269464,0.0467 -0.846902,0.41804 -0.950255,0.61118 -0.03748,0.07 -0.07701,0.38828 -0.08788,0.70718 l -0.0198,0.5801 0.348355,0.3226 c 0.191593,0.1776 0.374968,0.3328 0.4075,0.3451 0.03253,0.012 0.198488,-0.1288 0.368786,-0.3136 0.377083,-0.409 0.657099,-0.5619 1.029337,-0.5619 0.259479,0 0.323475,0.044 0.782701,0.5481 0.641271,0.7029 0.852362,0.7849 1.385372,0.5386 0.209471,-0.097 0.67038,-0.3928 1.024244,-0.6577 0.353865,-0.2649 0.659702,-0.4817 0.679645,-0.4817 0.01994,0 0.260957,0.2119 0.535592,0.471 0.274634,0.2591 0.55086,0.4711 0.613838,0.4711 0.293899,0 0.832008,-0.8669 0.933487,-1.5037 0.02702,-0.16949 0.07575,-0.30804 0.10836,-0.30804 0.07379,0 0.291099,0.62464 0.288114,0.82814 -0.0021,0.1368 -0.0088,0.1389 -0.07607,0.023 -0.124994,-0.2145 -0.258298,-0.1423 -0.409735,0.2221 -0.218651,0.5261 -0.561815,0.8831 -0.848946,0.8831 -0.148601,0 -0.285625,-0.057 -0.372959,-0.155 -0.200914,-0.2254 -0.552515,-0.3523 -0.976578,-0.3523 -0.350526,0 -0.401404,0.025 -0.876089,0.4348 l -0.503951,0.4348 -0.531539,0 -0.531539,0 -0.360151,-0.4134 z m 35.374838,-1.85119 c -0.32175,-0.32885 -0.792249,-0.85877 -1.045546,-1.17766 -0.253305,-0.31881 -0.725402,-0.85693 -1.049111,-1.19569 -0.323701,-0.33883 -0.964293,-1.03997 -1.423541,-1.55808 -0.459233,-0.51818 -1.076529,-1.20574 -1.371758,-1.52794 -0.295236,-0.32219 -0.8629,-1.05433 -1.261481,-1.62698 -0.398575,-0.57266 -0.93713,-1.27108 -1.196785,-1.55204 -0.660034,-0.71422 -0.732234,-0.82747 -1.59408,-2.50038 -0.421899,-0.81895 -1.225816,-2.22274 -1.786486,-3.11955 -2.135173,-3.41529 -2.585155,-4.41459 -3.426407,-7.60926 -0.429508,-1.63107 -0.820431,-2.86055 -1.064803,-3.34888 -0.175447,-0.3506 -0.521716,-0.67154 -1.63698,-1.51721 -0.329804,-0.25008 -0.844229,-0.66302 -1.143163,-0.91764 -0.298935,-0.25463 -0.862723,-0.6759 -1.252861,-0.93615 -0.39013,-0.26025 -0.694496,-0.48803 -0.676356,-0.50616 0.07881,-0.0788 0.760119,0.30436 1.22076,0.68657 0.855155,0.70955 1.013077,0.81441 1.226516,0.81441 0.270151,0 0.270688,-0.16068 0.0021,-0.58368 -0.389119,-0.61244 -0.952229,-0.9993 -1.564405,-1.07477 -0.319048,-0.0393 -0.389671,-0.0814 -0.60067,-0.3582 -0.324783,-0.426 -0.301042,-0.52012 0.05099,-0.20209 0.159542,0.14414 0.323624,0.26208 0.364621,0.26208 0.263093,0 0.07259,-0.62468 -0.256211,-0.84012 -0.149301,-0.0978 -0.288609,-0.11399 -0.691321,-0.0802 -0.277386,0.0233 -0.50434,0.0195 -0.50434,-0.008 0,-0.0989 0.673167,-0.45548 0.819102,-0.43389 0.08251,0.0122 0.783931,0.69718 1.580854,1.5438 l 1.432537,1.52185 0.0042,0.37685 c 0.0042,0.36098 0.01867,0.3884 0.348419,0.65084 0.189322,0.1507 0.607176,0.53724 0.928558,0.85899 0.576836,0.57748 0.587699,0.59518 0.846074,1.37829 0.143955,0.43632 0.459764,1.51503 0.701802,2.39713 0.803621,2.92882 1.391907,4.3372 2.712837,6.4946 0.38436,0.62776 1.012873,1.65501 1.396681,2.28277 0.383808,0.62777 0.935764,1.63055 1.226559,2.22843 0.63992,1.31564 0.950743,1.79982 1.581745,2.46395 0.265094,0.279 0.750509,0.89703 1.078701,1.37339 0.759009,1.1017 0.99476,1.39705 2.410628,3.02004 0.638931,0.73239 1.336136,1.54357 1.549327,1.8027 0.213198,0.25905 0.864434,0.99336 1.44719,1.63177 1.304558,1.4291 1.351751,1.4844 1.268476,1.4844 -0.03699,0 -0.330427,-0.269 -0.652177,-0.59791 z m -30.97285,-0.20035 -0.155539,-0.21839 0.195355,0.089 c 0.173205,0.0789 0.21008,0.0709 0.325272,-0.0714 0.142299,-0.17574 0.252817,-0.20333 0.327881,-0.0818 0.04378,0.0708 -0.367903,0.49103 -0.48801,0.49817 -0.02716,0 -0.119414,-0.0953 -0.204959,-0.21549 z m -0.903041,-0.54442 c -0.04958,-0.44137 -0.235101,-1.24534 -0.430167,-1.86416 -0.124767,-0.39576 -0.06075,-0.45403 0.119379,-0.1087 0.145037,0.27808 0.924682,2.03128 0.924682,2.07937 0,0.0184 -0.03911,-0.007 -0.08696,-0.0538 -0.11544,-0.11542 -0.275385,-0.11082 -0.275385,0.008 0,0.0523 -0.04569,0.15729 -0.101464,0.23359 -0.09231,0.12631 -0.10585,0.0997 -0.150086,-0.29413 z m 1.501865,-1.47872 c -0.161303,-0.11684 -0.374317,-0.32066 -0.473363,-0.45291 -0.245207,-0.32744 -0.433554,-0.71153 -0.348914,-0.71153 0.07089,0 1.081204,1.08247 1.187379,1.27222 0.09189,0.16421 -0.04576,0.12355 -0.365102,-0.10778 z m -10.741184,-0.0375 c 0.0977,-0.0964 2.6464,-1.41712 2.734753,-1.41712 0.09267,0 -0.269111,0.32921 -0.635733,0.5785 -0.578131,0.39315 -1.102923,0.64322 -1.461512,0.69647 -0.172688,0.0255 -0.386212,0.0917 -0.474487,0.14675 -0.209408,0.13062 -0.297556,0.12815 -0.163021,-0.007 z m 26.301721,-0.81224 c -0.457104,-0.30566 -0.705698,-0.61705 -0.830155,-1.03968 -0.02935,-0.0996 0.07494,0.0149 0.231742,0.25453 0.156797,0.2396 0.413108,0.54017 0.569566,0.6679 0.305568,0.24943 0.321141,0.31273 0.02885,0.11725 z m -26.925305,-1.84499 c -0.07888,-0.12758 0.08593,-0.18565 0.666498,-0.23473 0.482776,-0.041 0.782439,-0.12489 1.892292,-0.53103 0.209804,-0.0768 0.410895,-0.0969 0.634107,-0.0634 0.57963,0.0869 0.370541,0.25754 -0.31561,0.25754 -0.348794,0 -0.474474,0.0395 -0.806153,0.25313 -0.464374,0.29922 -0.723167,0.35827 -1.349204,0.30806 -0.255724,-0.0205 -0.482812,-0.008 -0.50463,0.0269 -0.05453,0.0882 -0.157434,0.0805 -0.2173,-0.0163 z m 4.624918,0.0325 c -0.150461,-0.0608 -0.105383,-0.16782 0.225299,-0.53566 0.222059,-0.24698 0.363949,-0.5008 0.477684,-0.85453 0.183403,-0.5704 0.194917,-0.52514 -0.340215,-1.33764 -0.178608,-0.2712 -0.308998,-0.50883 -0.289755,-0.52808 0.05651,-0.0565 0.676031,0.57794 0.880432,0.90173 0.302201,0.47871 0.242668,0.72582 -0.367783,1.52666 -0.126288,0.16567 -0.251445,0.43042 -0.278128,0.58841 -0.04632,0.27426 -0.105857,0.32051 -0.307534,0.23911 z m 7.299395,-0.38954 c -0.45859,-0.10893 -1.519984,-0.51662 -1.519984,-0.58385 0,-0.10723 0.182356,-0.0785 1.1845,0.18648 0.52434,0.13867 1.083785,0.27301 1.243221,0.29855 0.239026,0.0383 0.264451,0.0567 0.144938,0.10512 -0.185419,0.0751 -0.723366,0.0719 -1.052675,-0.007 z m 1.306312,-0.0961 c 0,-0.0564 0.584481,-0.42786 0.619008,-0.39334 0.07297,0.073 -0.05127,0.257 -0.227824,0.33744 -0.174146,0.0794 -0.391184,0.11035 -0.391184,0.0559 z M 42.29701,994.27887 c 0,-0.0437 0.06337,-0.21887 0.140878,-0.38933 0.07748,-0.17047 0.158898,-0.39672 0.180928,-0.50277 0.03239,-0.15597 0.191663,-0.27732 0.833352,-0.63492 0.436311,-0.24315 0.937044,-0.50371 1.112738,-0.57902 0.753352,-0.32293 2.17876,-0.25273 3.022352,0.14883 0.259076,0.12332 0.429749,0.23958 0.379275,0.25835 -0.0505,0.0187 -0.423306,-0.0533 -0.828515,-0.1602 -0.595436,-0.15705 -0.855813,-0.1892 -1.357606,-0.16762 -0.545712,0.0235 -0.704207,0.0644 -1.309325,0.33852 -0.697248,0.31578 -1.179373,0.66278 -0.920892,0.66278 0.06966,0 0.424332,-0.14952 0.788196,-0.33226 0.702092,-0.35261 1.526356,-0.57113 1.85474,-0.49169 0.260355,0.063 1.731718,0.79774 1.791641,0.8947 0.06719,0.10868 -0.02065,0.12367 -1.305732,0.22293 -0.798868,0.0617 -1.383116,0.0687 -1.870065,0.0226 -1.10368,-0.10468 -1.488789,-0.0436 -1.908601,0.30254 -0.56876,0.46898 -0.603364,0.4923 -0.603364,0.40661 z m 4.599712,-0.97867 c 0.288001,-0.21058 -0.136635,-0.54919 -0.510478,-0.40705 -0.230398,0.0876 -0.210285,0.28408 0.04215,0.4118 0.230561,0.11665 0.303312,0.11591 0.468328,-0.005 z m 23.056568,0.33375 c -0.23566,-0.46537 -0.423808,-1.11822 -0.344982,-1.19704 0.03635,-0.0363 0.143693,0.16323 0.251148,0.46712 0.207314,0.5863 0.342351,1.07415 0.297315,1.07415 -0.01605,0 -0.107611,-0.1549 -0.203481,-0.34423 z m -10.557116,-0.0641 c -0.508831,-0.43433 -0.637997,-0.47719 -1.179968,-0.39156 -0.821654,0.12981 -2.19523,0.178 -2.256319,0.0792 -0.03027,-0.049 -0.01874,-0.12535 0.0256,-0.1697 0.111762,-0.11176 0.1008,-0.31104 -0.02398,-0.4358 -0.228665,-0.22866 -0.736562,0.095 -0.678944,0.43267 0.01959,0.11471 -0.02143,0.12974 -0.303178,0.11121 -0.446319,-0.0294 -0.522699,-0.12926 -0.260243,-0.34035 0.477175,-0.38379 1.441893,-0.76149 1.944981,-0.76149 0.491722,0 1.739908,0.29112 2.108631,0.4918 0.224082,0.12196 0.473688,0.35174 0.683485,0.6292 0.181776,0.2404 0.35914,0.47494 0.39414,0.52122 0.0367,0.0485 0.03614,0.10115 -0.0014,0.12436 -0.03578,0.0221 -0.23955,-0.1087 -0.45279,-0.29072 z m 2.105158,0.3077 c 0,-0.0155 -0.163983,-0.75375 -0.364402,-1.64057 -0.200418,-0.88683 -0.351615,-1.6252 -0.335985,-1.64084 0.04866,-0.0487 0.325179,0.65214 0.479282,1.21459 0.118276,0.43169 0.363737,1.80169 0.365619,2.04064 2.12e-4,0.0299 -0.03218,0.0544 -0.07204,0.0544 -0.03989,0 -0.07247,-0.0127 -0.07247,-0.0281 z m -21.921997,-0.62406 c 0.151678,-0.72473 0.848607,-2.14349 1.299353,-2.64512 0.22462,-0.24997 0.154386,-0.0754 -0.510216,1.26821 -0.423879,0.85695 -0.786782,1.5744 -0.806457,1.59432 -0.01966,0.0199 -0.01188,-0.0779 0.01733,-0.21741 z m 20.037802,-0.31594 c 0,-0.26572 -0.945312,-0.85034 -1.900001,-1.17504 -0.610521,-0.20765 -0.727297,-0.21457 -0.967377,-0.0573 -0.105001,0.0688 -0.399756,0.1342 -0.702403,0.15586 -0.446928,0.032 -0.550281,0.0661 -0.722977,0.23881 -0.268998,0.269 -1.359834,0.67473 -1.359834,0.50579 0,-0.0935 0.519495,-0.39456 1.015843,-0.58864 0.218516,-0.0854 0.571716,-0.23611 0.784893,-0.33481 0.892094,-0.41307 1.788148,-0.387 2.728403,0.0794 0.957122,0.47474 1.658585,1.18203 1.250272,1.26066 -0.07547,0.0146 -0.126819,-0.0198 -0.126819,-0.0847 z m -17.209914,-0.26137 c -0.02383,-0.0385 0.145482,-0.16586 0.376184,-0.283 0.230709,-0.11713 0.831067,-0.48934 1.334134,-0.82714 0.784865,-0.52701 1.557771,-0.92144 1.805644,-0.92144 0.03833,0 0.06973,0.0453 0.06973,0.10064 0,0.0554 -0.269041,0.23934 -0.597869,0.40889 -0.328829,0.16955 -0.949768,0.55013 -1.379863,0.84573 -0.924739,0.63556 -1.487014,0.87205 -1.607984,0.67632 z m -13.045956,-5.7275 c 0.07214,-0.0797 0.147477,-0.14494 0.167406,-0.14494 0.01994,0 -0.02277,0.0652 -0.09494,0.14494 -0.07214,0.0797 -0.147469,0.14494 -0.167399,0.14494 -0.01994,0 0.02277,-0.0652 0.09493,-0.14494 z m 43.292469,-4.40593 c -0.952285,-0.84533 -1.108446,-1.10096 -2.045504,-3.34827 -0.675374,-1.61974 -1.082053,-2.46506 -1.322748,-2.74949 -0.361531,-0.42722 -3.732563,-2.57958 -4.76721,-3.04378 -0.601144,-0.26972 -1.588245,-0.58401 -1.834202,-0.58401 -0.177222,0 -0.184344,0.0147 -0.140341,0.28988 0.03621,0.22644 0.02334,0.28987 -0.05891,0.28987 -0.05792,0 -0.12544,-0.0326 -0.150072,-0.0725 -0.02461,-0.0399 -0.289069,-0.0725 -0.587629,-0.0725 -0.344847,0 -0.620825,-0.0403 -0.756647,-0.11056 -0.197264,-0.10201 -0.213813,-0.14127 -0.213813,-0.50728 0,-0.2182 -0.02051,-0.39673 -0.04554,-0.39673 -0.02504,0 -0.178099,0.11974 -0.340081,0.26608 -0.161988,0.14635 -0.306516,0.23009 -0.321183,0.18609 -0.092,-0.27601 0.815834,-1.1675 1.057307,-1.03827 0.06683,0.0358 0.373518,0.21402 0.681582,0.39616 0.308072,0.18214 0.605161,0.31388 0.660197,0.29276 0.140644,-0.054 1.294819,0.41124 2.366016,0.95367 1.536166,0.77788 4.188995,2.52953 4.611163,3.04473 0.135984,0.16594 0.323192,0.49321 0.416028,0.72726 0.09284,0.23405 0.308164,0.78426 0.478505,1.2227 0.318482,0.81972 0.993403,2.3849 1.249975,2.89876 0.0796,0.15944 0.49139,0.62415 0.915085,1.03269 0.827609,0.79802 0.926613,1.01378 0.148071,0.32268 z m -10.597823,-9.69201 c 0.05481,-0.14292 -0.130815,-0.34612 -0.530005,-0.58006 -0.359098,-0.21044 -0.459388,-0.18653 -0.459388,0.10954 0,0.28197 0.358906,0.58192 0.696285,0.58192 0.158389,0 0.266063,-0.041 0.293108,-0.1114 z m 5.480547,9.20276 c -0.420464,-0.20952 -0.613534,-0.38637 -0.403193,-0.36932 0.107419,0.009 0.128254,-0.0448 0.122844,-0.31562 l -0.0064,-0.32611 0.116472,0.26109 c 0.06407,0.14361 0.221897,0.38117 0.350745,0.52793 0.199691,0.22743 0.293256,0.40671 0.212272,0.40671 -0.01209,0 -0.188785,-0.0831 -0.392627,-0.18468 z m -5.366742,-10.74698 c -0.08861,-0.22851 -0.161104,-0.47386 -0.161104,-0.54523 0,-0.0714 0.193056,-0.32282 0.42902,-0.55878 0.51226,-0.51226 0.656264,-0.5341 1.189253,-0.18042 0.712092,0.47254 1.018255,0.49335 1.466596,0.0997 0.283065,-0.24853 0.346821,-0.19204 0.307895,0.27284 -0.02277,0.2715 -0.02765,0.27546 -0.53023,0.42999 -0.279005,0.0858 -0.644581,0.22679 -0.81239,0.31335 -0.363985,0.18775 -0.620988,0.19431 -0.963106,0.0246 l -0.253644,-0.12583 0.01973,-0.48668 c 0.01181,-0.29191 -0.0095,-0.48667 -0.0534,-0.48667 -0.04017,0 -0.186783,0.12229 -0.325745,0.27175 -0.274422,0.29518 -0.306183,0.47605 -0.179817,1.02413 0.103727,0.44994 0.05424,0.43032 -0.133064,-0.0528 z m 1.852929,-0.55735 c 0.02567,-0.17927 -0.219641,-0.42247 -0.576567,-0.5716 -0.231792,-0.0969 -0.274253,-0.0973 -0.352061,-0.004 -0.112979,0.13614 0.02305,0.49706 0.247145,0.65567 0.223771,0.1584 0.654566,0.10749 0.681483,-0.0805 z" style="" fill="#000000"></path></g></svg>